<svg width="27" height="18" viewBox="0 0 27 18" fill="none" xmlns="http://www.w3.org/2000/svg">
<g clip-path="url(#clip0_2_2112)">
<path fill-rule="evenodd" clip-rule="evenodd" d="M27 8.99986C27 8.7486 26.9002 8.50763 26.7225 8.32997C26.5449 8.1523 26.3039 8.05249 26.0526 8.05249L3.708 8.05249L9.67074 2.09165C9.84863 1.91376 9.94856 1.67249 9.94856 1.42091C9.94856 1.16934 9.84863 0.928064 9.67074 0.750173C9.49285 0.572282 9.25157 0.472346 9 0.472346C8.74842 0.472346 8.50715 0.572282 8.32926 0.750173L0.750313 8.32912C0.662089 8.41712 0.592093 8.52167 0.544333 8.63676C0.496573 8.75186 0.471989 8.87524 0.471989 8.99986C0.471989 9.12447 0.496573 9.24785 0.544333 9.36295C0.592093 9.47805 0.662089 9.58259 0.750313 9.67059L8.32926 17.2495C8.50715 17.4274 8.74842 17.5274 9 17.5274C9.25157 17.5274 9.49285 17.4274 9.67074 17.2495C9.84863 17.0716 9.94856 16.8304 9.94856 16.5788C9.94856 16.3272 9.84863 16.086 9.67074 15.9081L3.708 9.94722L26.0526 9.94722C26.3039 9.94722 26.5449 9.84741 26.7225 9.66975C26.9002 9.49208 27 9.25111 27 8.99986Z" fill="#C2874A"/>
</g>
<defs>
<clipPath id="clip0_2_2112">
<rect width="18" height="27" fill="white" transform="matrix(4.37114e-08 -1 -1 -4.37114e-08 27 18)"/>
</clipPath>
</defs>
</svg>
