<svg width="703" height="546" viewBox="0 0 703 546" fill="none" xmlns="http://www.w3.org/2000/svg">
<path d="M399.727 519C382.127 522.2 369.727 509.666 365.727 503L321.227 523L318.227 531L309.227 540C309.227 542.167 308.827 546.1 307.227 544.5C305.627 542.9 299.894 540.833 297.227 540H284.227C281.227 540 278.227 541 275.227 540C272.227 539 269.227 536 266.227 536C263.227 536 260.727 533 259.227 533C257.727 533 252.227 536 249.227 536C246.827 536 241.227 534 238.727 533L181.727 497H143.227L132.227 481.5V468L134.727 458L126.727 452L122.227 450H115.227L111.227 454H108.727V447C107.394 446.167 103.527 443.5 98.7271 439.5C98.7271 434.5 94.727 424.5 92.727 419C90.727 413.5 94.727 411 94.727 404C94.727 398.4 91.727 396.333 90.2271 396H83.2271L79.2271 389H73.2271C73.2271 387.833 72.827 384.9 71.2271 382.5C69.6271 380.1 64.8937 379.833 62.727 380L57.2271 375C57.2271 373.167 56.6271 369.5 54.2271 369.5C51.8271 369.5 48.8938 362.833 47.7271 359.5V355L38.7271 349.5L31.2271 342.5H22.7271H16.7271H14.2271C12.7271 341.667 8.72711 339.8 4.72709 339C0.727081 338.2 0.727089 333.333 1.22709 331C2.39376 329.667 5.7271 325.7 9.72711 320.5C8.12711 316.5 10.3938 311.833 11.7271 310L31.2271 307L35.7271 313.5L44.2271 307H47.7271L54.2271 302L51.7271 266.5V252.5L57.2271 242V232.5L62.727 227C62.0603 223.833 61.127 217.5 62.727 217.5C64.327 217.5 63.3937 210.167 62.727 206.5L65.727 200.5L75.727 191.5L86.227 200.5L92.727 191.5V179L94.727 168.5C96.227 166 98.8269 159.9 97.2269 155.5C95.6269 151.1 96.5602 149.333 97.2269 149L107.227 144V140.5L125.727 106H132.227C134.56 106.5 139.427 107.2 140.227 106C141.227 104.5 147.727 105.5 149.227 103.5C150.427 101.9 148.727 95.5 147.727 92.5L153.227 78.4998L159.227 60.5C160.727 58.3333 163.827 53.4 164.227 51C164.627 48.6 162.727 45.6667 161.727 44.5C163.06 41.3333 166.527 33.8 169.727 29C173.727 25.8 179.394 27.6667 181.727 29L189.227 33L194.727 22.9998L204.227 20L211.227 35L230.727 1L237.727 9.5C240.06 9.83333 245.227 10.8 247.227 12C249.227 13.2 249.727 17.8333 249.727 20L253.727 22.9998C255.227 23.8332 258.627 25 260.227 22.9998C261.827 20.9996 268.56 20.1665 271.727 20H277.727C278.927 20 281.227 16 282.227 14H291.727V22.9998L297.227 20C299.227 20.1667 303.727 19.9 305.727 17.4998C311.727 13.0998 315.227 15.6664 316.227 17.4998L325.727 22.9998L330.227 17.4998H335.727V22.9998L369.727 37.4998L390.227 65.9998L410.227 78.4998C414.56 85.1664 423.427 98.9998 424.227 101C425.027 103 429.227 102.833 431.227 102.5C434.06 107.5 439.727 118 439.727 120C439.727 122 434.06 125.833 431.227 127.5L428.227 135.5C425.727 140.166 419.427 150.3 414.227 153.5C409.027 156.7 410.727 164.833 412.227 168.5L410.227 187.5C411.394 187.5 415.127 187.9 420.727 189.5C426.327 191.1 426.394 188.833 425.727 187.5L431.227 189.5L434.227 187.5L439.727 189.5C440.727 188 443.227 185 445.227 185H456.227L465.727 189.5L453.227 204V209L456.227 213L462.727 225L471.227 235C472.06 236.333 474.127 239 475.727 239C477.327 239 480.727 242.666 482.227 244.5V252.5L488.227 260.5C489.727 261.5 494.327 264.1 500.727 266.5C502.327 270.9 513.394 279.333 518.727 283L653.727 329H701.227L561.227 473.5L518.727 471C502.727 475 470.827 484.4 471.227 490C471.627 495.6 464.727 501 461.227 503C453.227 504.166 435.627 506.6 429.227 507C423.522 507.356 418.453 513.566 416.002 517.626C416.486 517.983 415.998 518.525 415.227 519C415.444 518.583 415.704 518.121 416.002 517.626C415.126 516.979 411.065 516.938 399.727 519Z" fill="#58665C"/>
<path d="M365.727 503C369.727 509.666 382.127 522.2 399.727 519C417.327 515.8 417.394 517.666 415.227 519C417.227 515.166 422.827 507.4 429.227 507C435.627 506.6 453.227 504.166 461.227 503C464.727 501 471.627 495.6 471.227 490C470.827 484.4 502.727 475 518.727 471L561.227 473.5L701.227 329H653.727L518.727 283C513.394 279.333 502.327 270.9 500.727 266.5C494.327 264.1 489.727 261.5 488.227 260.5L482.227 252.5V244.5C480.727 242.666 477.327 239 475.727 239C474.127 239 472.06 236.333 471.227 235L462.727 225L456.227 213L453.227 209V204L465.727 189.5L456.227 185C453.394 185 447.227 185 445.227 185C443.227 185 440.727 188 439.727 189.5L434.227 187.5L431.227 189.5L425.727 187.5C426.394 188.833 426.327 191.1 420.727 189.5C415.127 187.9 411.394 187.5 410.227 187.5M365.727 503L321.227 523L318.227 531L309.227 540C309.227 542.167 308.827 546.1 307.227 544.5C305.627 542.9 299.894 540.833 297.227 540C293.894 540 286.627 540 284.227 540C281.227 540 278.227 541 275.227 540C272.227 539 269.227 536 266.227 536C263.227 536 260.727 533 259.227 533C257.727 533 252.227 536 249.227 536C246.827 536 241.227 534 238.727 533L181.727 497H143.227L132.227 481.5V468L134.727 458L126.727 452L122.227 450H115.227L111.227 454H108.727V447C107.394 446.167 103.527 443.5 98.7271 439.5C98.7271 434.5 94.727 424.5 92.727 419C90.727 413.5 94.727 411 94.727 404C94.727 398.4 91.727 396.333 90.2271 396H83.2271L79.2271 389H73.2271C73.2271 387.833 72.8271 384.9 71.2271 382.5C69.6271 380.1 64.8937 379.833 62.727 380L57.2271 375C57.2271 373.167 56.6271 369.5 54.2271 369.5M365.727 503C364.894 500.667 363.727 495.9 365.727 495.5C363.227 493 360.227 492 361.727 490C363.227 488 367.227 486 370.227 488C373.227 490 375.727 483 377.227 482.5C378.427 482.1 381.727 482.333 383.227 482.5V473.5L403.227 477L390.727 459V451L383.227 445L388.227 440V431C386.56 431.333 382.927 431 381.727 427C380.527 423 373.56 417.667 370.227 415.5V403.5L377.227 400C378.06 401 379.727 401.7 379.727 396.5C379.727 391.3 381.06 389 381.727 388.5C387.227 399 398.527 419.1 399.727 415.5C404.527 413.5 406.394 409 406.727 407V401.5L412.227 394.5H421.727L433.227 363.5C433.227 361.833 432.827 358 431.227 356C429.627 354 425.894 349.167 424.227 347C423.394 341 422.227 328.4 424.227 326C426.227 323.6 429.727 314.667 431.227 310.5V300.5L433.227 296L440.227 302.5C441.727 302.5 445.027 302.5 446.227 302.5C447.727 302.5 449.227 307.5 449.227 310.5C449.227 312.9 451.56 317.833 452.727 320C453.894 319.167 456.427 316.8 457.227 314C458.027 311.2 458.894 308.833 459.227 308H464.227L465.727 298L461.227 294.5L464.227 289L451.227 274.5L449.227 268.5L445.227 256.5L440.227 251V246.5L431.227 248.5L428.727 254.5L425.727 256.5H420.727H412.227H408.727L406.727 259L404.727 256.5H399.727L396.727 259L390.727 256.5C387.06 257.833 378.627 261.3 374.227 264.5C369.827 267.7 366.727 265.833 365.727 264.5C364.727 263.167 363.327 260.5 365.727 260.5C368.127 260.5 371.394 260.5 372.727 260.5L370.227 256.5L362.727 259M410.227 187.5L412.227 168.5C410.727 164.833 409.027 156.7 414.227 153.5C419.427 150.3 425.727 140.166 428.227 135.5L431.227 127.5C434.06 125.833 439.727 122 439.727 120C439.727 118 434.06 107.5 431.227 102.5C429.227 102.833 425.027 103 424.227 101C423.427 98.9998 414.56 85.1664 410.227 78.4998L390.227 65.9998L369.727 37.4998L335.727 22.9998V17.4998H330.227L325.727 22.9998M410.227 187.5H388.227L385.727 193L379.727 199.5L378.727 212L374.227 232.5L377.227 235C375.727 235.667 372.227 237.8 370.227 241C368.227 244.2 364.394 249 362.727 251V259M325.727 22.9998L316.227 17.4998C315.227 15.6664 311.727 13.0998 305.727 17.4998C303.727 19.9 299.227 20.1667 297.227 20L291.727 22.9998V14H282.227C281.227 16 278.927 20 277.727 20C276.527 20 273.227 20 271.727 20C268.56 20.1665 261.827 20.9996 260.227 22.9998C258.627 25 255.227 23.8332 253.727 22.9998L249.727 20C249.727 17.8333 249.227 13.2 247.227 12C245.227 10.8 240.06 9.83333 237.727 9.5L230.727 1L211.227 35L204.227 20L194.727 22.9998L189.227 33L181.727 29C179.394 27.6667 173.727 25.8 169.727 29C166.527 33.8 163.06 41.3333 161.727 44.5C162.727 45.6667 164.627 48.6 164.227 51M325.727 22.9998L323.727 26.5L317.727 26C316.56 26.5 314.027 27.8 313.227 29C312.227 30.5 317.727 29 317.727 30.5C317.727 32 316.227 33 314.227 34.5C312.627 35.7 314.894 36.9999 316.227 37.4998V41H319.727V48L320.977 65L316.227 65.9998V75L317.727 83L319.727 86.5L317.727 90.5C317.227 91.5 316.927 94.3 319.727 97.5C322.527 100.7 322.894 102.167 322.727 102.5V107.5C321.56 108.667 319.327 111.8 319.727 115C320.127 118.2 318.56 122.333 317.727 124M164.227 51C163.827 53.4 160.727 58.3333 159.227 60.5L153.227 78.4998L147.727 92.5C148.727 95.5 150.427 101.9 149.227 103.5C147.727 105.5 141.227 104.5 140.227 106C139.427 107.2 134.56 106.5 132.227 106H125.727L107.227 140.5V144M164.227 51L166.227 64L174.227 65L178.727 69L184.227 73.5L190.727 75L193.227 72L197.227 70.5L200.727 73.5L206.727 75L216.227 73.5L220.727 69L225.227 60.5L227.727 65L233.727 69H239.227H245.727L250.727 65.9998L255.227 64L260.227 65L258.727 69L268.227 70.5L269.227 75L271.727 81H275.727L279.227 80L280.727 83H284.227V86.5H282.727V90.5L286.227 93.5C286.894 93.1667 288.627 92.1 290.227 90.5C291.827 88.9 294.227 93.5 295.227 96V107.5H290.227L292.227 112C292.894 116 294.427 124.2 295.227 125C296.027 125.8 298.56 124.667 299.727 124H306.227C305.894 124.667 306.027 126.3 309.227 127.5C312.427 128.7 313.227 125.667 313.227 124H317.727M107.227 144L97.2269 149C96.5602 149.333 95.6269 151.1 97.2269 155.5C98.8269 159.9 96.227 166 94.727 168.5L92.727 179V191.5L86.227 200.5L75.727 191.5L65.727 200.5L62.727 206.5C63.3937 210.167 64.327 217.5 62.727 217.5C61.127 217.5 62.0603 223.833 62.727 227L57.2271 232.5V242L51.7271 252.5V266.5M107.227 144C106.894 145.667 107.527 149 112.727 149C117.927 149 126.56 141.333 130.227 137.5H140.227L144.227 144C144.727 146.5 145.927 151.9 146.727 153.5C147.527 155.1 151.06 152.167 152.727 150.5L157.727 146V155.5L160.727 160C160.727 161.833 161.127 165.5 162.727 165.5C164.327 165.5 165.727 164.5 166.227 164L167.727 171C166.394 171.5 163.827 172.8 164.227 174C164.627 175.2 166.727 177.833 167.727 179L162.727 182.5L155.227 191.5V196.5H157.727L155.227 202.5L160.727 212C160.727 210.333 161.427 207.5 164.227 209.5C167.027 211.5 168.727 214.333 169.227 215.5H175.727L181.727 217.5L190.727 219.5M51.7271 266.5L54.2271 302M51.7271 266.5L54.2271 271H62.727L69.7271 262.5L65.727 259L71.2271 256.5L67.7271 248.5L79.2271 251L83.2271 254.5L86.227 243.5L90.2271 236.5V232.5L94.727 231L96.2271 236.5L100.227 235L105.727 236.5L112.727 241C112.06 242.167 111.627 244.9 115.227 246.5C118.827 248.1 121.06 247.167 121.727 246.5L123.727 248.5C124.727 249.167 126.727 250.9 126.727 252.5C126.727 254.1 129.06 257.5 130.227 259V264.5C131.06 263.833 133.527 262.5 136.727 262.5C139.927 262.5 141.384 266.5 141.712 268.5L146.727 275.5L152.727 271L150.227 266.5C149.394 265.167 148.227 262.5 150.227 262.5C152.227 262.5 154.394 263.833 155.227 264.5V252.5C152.394 251.833 146.727 250.1 146.727 248.5C146.727 246.9 148.06 244.5 148.727 243.5V227L155.227 224.5L162.727 219.5C163.56 217.5 165.427 214.3 166.227 217.5C167.027 220.7 168.56 223.5 169.227 224.5L174.227 219.5H177.227C178.06 219.5 180.127 220 181.727 222C183.327 224 186.394 222.833 187.727 222L190.727 219.5M54.2271 302L47.7271 307H44.2271L35.7271 313.5L31.2271 307L11.7271 310C10.3938 311.833 8.12711 316.5 9.72711 320.5C5.7271 325.7 2.39376 329.667 1.22709 331C0.727089 333.333 0.727081 338.2 4.72709 339C8.72711 339.8 12.7271 341.667 14.2271 342.5H16.7271H22.7271H31.2271L38.7271 349.5L47.7271 355V359.5C48.8938 362.833 51.8271 369.5 54.2271 369.5M54.2271 302L58.7271 296L62.727 300.5L71.2271 306.5L79.2271 311.5L88.2271 319C90.3937 317.833 95.327 315.7 97.7271 316.5C100.127 317.3 98.7271 319.167 97.7271 320L88.2271 324.5L94.727 326C92.3937 327 87.8271 330 88.2271 334C88.6271 338 91.3937 339.333 92.727 339.5L94.727 344.5L100.227 347C99.7271 347.833 98.7271 349.8 98.7271 351C98.7271 352.2 103.394 350.5 105.727 349.5M54.2271 369.5H71.2271L79.2271 373L83.2271 371L90.2271 369.5L94.727 363.5C95.5604 364.167 98.9271 366.3 105.727 369.5C118.127 365.1 110.894 354.333 105.727 349.5M362.727 259L354.227 262.5L350.227 265.5L342.727 272.5L340.227 279L336.727 280.5C336.06 282 334.327 285.3 332.727 286.5C331.127 287.7 330.06 287 329.727 286.5C330.394 285.667 331.627 283.5 331.227 281.5C330.827 279.5 330.06 279 329.727 279L325.227 277.5L323.727 272.5L320.977 273M174.727 495.5L181.727 477L185.227 459L196.227 458L205.727 459L221.227 452L230.227 458L233.227 439.5L238.727 431L233.227 423L225.227 419C225.227 416 225.727 409.7 227.727 408.5C229.727 407.3 228.56 398.667 227.727 394.5H230.227M230.227 394.5C231.394 392.667 234.727 390.1 238.727 394.5C242.727 398.9 247.394 400 249.227 400L244.727 407V411.5H238.727L244.727 427H252.727L249.227 419L255.727 408.5V403.5C256.227 401 259.027 396.8 266.227 400C273.427 403.2 279.56 410.333 281.727 413.5H288.227C287.227 409 285.827 400 288.227 400C290.627 400 286.56 392.667 284.227 389L275.227 388.5L266.227 382.5V369.5C262.894 370.667 255.527 372.3 252.727 369.5C249.927 366.7 242.227 372 238.727 375M230.227 394.5L238.727 375M238.727 375C238.06 372.5 237.127 367.1 238.727 365.5C240.327 363.9 246.394 356.833 249.227 353.5L252.727 349.5L255.727 347V339.5L262.227 326V318L260.227 315.5C260.227 314.833 260.427 313.6 261.227 314C262.027 314.4 263.894 317.5 264.727 319L267.727 322.5L268.227 315L265.727 311.5L264.727 307.5C263.06 305.833 259.227 303.5 257.227 307.5C255.227 311.5 252.394 313.5 251.227 314H249.227L248.227 308.5C247.06 307.833 244.327 306.7 242.727 307.5C241.127 308.3 234.727 308.5 231.727 308.5L227.727 310.5H223.227L217.227 308.5L213.727 306.5L210.727 307.5V311.5V315L216.727 316.5L217.227 326L216.727 329L212.727 327L208.727 324.5C207.727 324.667 205.727 325.4 205.727 327C205.727 328.6 207.727 331 208.727 332L207.727 341.5L208.227 348L206.727 355.5C203.894 357.167 197.827 360.8 196.227 362C194.627 363.2 185.894 363.5 181.727 363.5L169.227 355.5L155.227 353.5L143.227 347L140.727 339.5L134.727 334L136.727 329V324.5C135.06 323.167 131.427 320.9 130.227 322.5C129.027 324.1 129.727 326.167 130.227 327L132.227 329L126.727 334L119.727 335.5L117.727 332H111.227L108.727 337L105.727 341.5V349.5M190.727 219.5L197.227 220.5V227L203.727 232.5C203.727 232 204.127 231 205.727 231C207.327 231 218.06 237.667 223.227 241L248.227 227H252.727C253.227 223.333 254.827 215.9 257.227 215.5C259.627 215.1 269.227 215.333 273.727 215.5L275.227 227C276.56 227.167 278.127 227.7 273.727 228.5C269.327 229.3 266.56 230.5 265.727 231C266.56 232.333 268.927 235 271.727 235C274.527 235 274.227 240.667 273.727 243.5C274.727 244.833 276.927 247.3 277.727 246.5C278.527 245.7 280.06 244.167 280.727 243.5C281.56 244.167 283.427 245.7 284.227 246.5C285.027 247.3 285.894 250.833 286.227 252.5H288.227L295.727 243.5L299.727 242C300.56 241.667 302.127 241.9 301.727 245.5C301.327 249.1 300.227 251.667 299.727 252.5L297.227 256.5L301.727 258L304.727 261.5V264.5L301.727 265.5H298.227L295.727 264.5H293.727L294.227 267V270L298.227 271L299.727 273.5V275.5L297.227 280.5L295.727 281.5V288.5L297.227 291.5H299.727C299.727 289.167 300.327 284.9 302.727 286.5C305.127 288.1 306.06 290.5 306.227 291.5L309.227 287.5L317.227 286.5L318.227 273.5L320.977 273M320.977 273L323.727 267C322.56 266.167 320.127 264.1 319.727 262.5C319.327 260.9 322.227 257.833 323.727 256.5L322.727 248.5L322.227 244L329.727 245.5L331.227 242L332.727 236L328.727 231C328.06 230.833 327.127 230.1 328.727 228.5C330.327 226.9 333.394 226.833 334.727 227L336.727 209.5L332.727 199.5L335.727 191.5L336.727 187.5L332.727 168.5L325.727 153.5L320.977 144L319.727 127.5L317.727 124" stroke="white"/>
<circle cx="283.965" cy="306.957" r="10" transform="rotate(5.78482 283.965 306.957)" fill="#C2874A"/>
<ellipse cx="335.254" cy="253.142" rx="10" ry="10" transform="rotate(90.4055 335.254 253.142)" fill="#C2874A"/>
<ellipse cx="258" cy="273" rx="10" ry="10" transform="rotate(90 258 273)" fill="#C2874A"/>
<ellipse cx="211" cy="154" rx="10" ry="10" transform="rotate(90 211 154)" fill="#C2874A"/>
<rect x="284" y="307" width="83" height="17" fill="#F1F1EA"/>
<rect x="335" y="253" width="83" height="17" fill="#F1F1EA"/>
<rect x="258" y="273" width="83" height="17" fill="#F1F1EA"/>
<rect x="211" y="154" width="83" height="17" fill="#F1F1EA"/>
<path d="M304.721 315.075V317.082H306.71C307.43 317.082 307.79 316.743 307.79 316.065C307.79 315.405 307.43 315.075 306.71 315.075H304.721ZM303.596 318V311.574H306.719C307.313 311.574 307.778 311.709 308.114 311.979C308.456 312.249 308.627 312.645 308.627 313.167C308.627 313.815 308.321 314.271 307.709 314.535V314.553C308.513 314.727 308.915 315.279 308.915 316.209C308.915 316.743 308.729 317.166 308.357 317.478C307.943 317.826 307.34 318 306.548 318H303.596ZM304.721 312.492V314.265H306.557C306.833 314.265 307.058 314.187 307.232 314.031C307.412 313.875 307.502 313.656 307.502 313.374C307.502 312.786 307.187 312.492 306.557 312.492H304.721ZM309.933 318V311.574H311.058V318H309.933ZM312.051 315.858H313.176C313.176 316.326 313.335 316.68 313.653 316.92C313.935 317.13 314.319 317.235 314.805 317.235C315.267 317.235 315.618 317.133 315.858 316.929C316.062 316.755 316.164 316.533 316.164 316.263C316.164 315.867 315.987 315.603 315.633 315.471C315.585 315.453 314.946 315.276 313.716 314.94C312.768 314.682 312.294 314.139 312.294 313.311C312.294 312.705 312.54 312.228 313.032 311.88C313.47 311.574 314.007 311.421 314.643 311.421C315.345 311.421 315.924 311.595 316.38 311.943C316.866 312.321 317.109 312.831 317.109 313.473H315.984C315.936 312.717 315.474 312.339 314.598 312.339C314.286 312.339 314.025 312.396 313.815 312.51C313.551 312.66 313.419 312.882 313.419 313.176C313.419 313.59 313.674 313.866 314.184 314.004C314.694 314.136 315.312 314.301 316.038 314.499C316.44 314.619 316.755 314.841 316.983 315.165C317.187 315.459 317.289 315.783 317.289 316.137C317.289 316.809 317.022 317.325 316.488 317.685C316.026 317.997 315.441 318.153 314.733 318.153C313.953 318.153 313.326 317.97 312.852 317.604C312.33 317.202 312.063 316.62 312.051 315.858ZM318.247 318V311.574H319.372V314.13H322.297V311.574H323.422V318H322.297V315.102H319.372V318H318.247ZM327.505 311.421C328.441 311.421 329.194 311.751 329.764 312.411C330.31 313.047 330.583 313.839 330.583 314.787C330.583 315.735 330.31 316.524 329.764 317.154C329.194 317.82 328.441 318.153 327.505 318.153C326.569 318.153 325.816 317.82 325.246 317.154C324.7 316.524 324.427 315.735 324.427 314.787C324.427 313.839 324.7 313.047 325.246 312.411C325.816 311.751 326.569 311.421 327.505 311.421ZM327.505 312.339C326.863 312.339 326.365 312.594 326.011 313.104C325.705 313.548 325.552 314.109 325.552 314.787C325.552 315.465 325.705 316.026 326.011 316.47C326.365 316.98 326.863 317.235 327.505 317.235C328.147 317.235 328.645 316.98 328.999 316.47C329.305 316.026 329.458 315.465 329.458 314.787C329.458 314.109 329.305 313.548 328.999 313.104C328.645 312.594 328.147 312.339 327.505 312.339ZM331.607 318V311.574H336.044V312.546H332.732V314.229H335.639V315.147H332.732V318H331.607ZM336.33 312.546V311.574H341.532V312.546H339.489V318H338.364V312.546H336.33ZM342.205 315.687V311.574H343.33V315.318C343.33 315.9 343.399 316.317 343.537 316.569C343.759 316.977 344.194 317.181 344.842 317.181C345.49 317.181 345.925 316.977 346.147 316.569C346.285 316.317 346.354 315.9 346.354 315.318V311.574H347.479V315.687C347.479 316.491 347.239 317.109 346.759 317.541C346.297 317.949 345.658 318.153 344.842 318.153C344.026 318.153 343.39 317.949 342.934 317.541C342.448 317.109 342.205 316.491 342.205 315.687Z" fill="#191E19"/>
<path d="M363.061 258.681L362.089 261.444H364.051L363.088 258.681H363.061ZM360.019 264L362.485 257.574H363.682L366.157 264H364.951L364.348 262.299H361.783L361.18 264H360.019ZM367.831 264L366.139 257.574H367.282L368.443 262.488H368.461L369.757 257.574H370.909L372.169 262.488H372.187L373.384 257.574H374.527L372.754 264H371.611L370.324 259.086H370.306L368.992 264H367.831ZM377.563 258.681L376.591 261.444H378.553L377.59 258.681H377.563ZM374.521 264L376.987 257.574H378.184L380.659 264H379.453L378.85 262.299H376.285L375.682 264H374.521ZM380.884 261.858H382.009C382.009 262.326 382.168 262.68 382.486 262.92C382.768 263.13 383.152 263.235 383.638 263.235C384.1 263.235 384.451 263.133 384.691 262.929C384.895 262.755 384.997 262.533 384.997 262.263C384.997 261.867 384.82 261.603 384.466 261.471C384.418 261.453 383.779 261.276 382.549 260.94C381.601 260.682 381.127 260.139 381.127 259.311C381.127 258.705 381.373 258.228 381.865 257.88C382.303 257.574 382.84 257.421 383.476 257.421C384.178 257.421 384.757 257.595 385.213 257.943C385.699 258.321 385.942 258.831 385.942 259.473H384.817C384.769 258.717 384.307 258.339 383.431 258.339C383.119 258.339 382.858 258.396 382.648 258.51C382.384 258.66 382.252 258.882 382.252 259.176C382.252 259.59 382.507 259.866 383.017 260.004C383.527 260.136 384.145 260.301 384.871 260.499C385.273 260.619 385.588 260.841 385.816 261.165C386.02 261.459 386.122 261.783 386.122 262.137C386.122 262.809 385.855 263.325 385.321 263.685C384.859 263.997 384.274 264.153 383.566 264.153C382.786 264.153 382.159 263.97 381.685 263.604C381.163 263.202 380.896 262.62 380.884 261.858ZM387.08 264V257.574H388.205V260.13H391.13V257.574H392.255V264H391.13V261.102H388.205V264H387.08Z" fill="#191E19"/>
<path d="M281.929 284V277.574H286.555V278.546H283.054V280.229H286.294V281.147H283.054V283.028H286.618V284H281.929ZM287.553 284V277.574H288.741L291.675 282.308H291.693V277.574H292.764V284H291.576L288.651 279.275H288.624V284H287.553ZM293.481 278.546V277.574H298.683V278.546H296.64V284H295.515V278.546H293.481ZM302.164 277.421C303.1 277.421 303.853 277.751 304.423 278.411C304.969 279.047 305.242 279.839 305.242 280.787C305.242 281.735 304.969 282.524 304.423 283.154C303.853 283.82 303.1 284.153 302.164 284.153C301.228 284.153 300.475 283.82 299.905 283.154C299.359 282.524 299.086 281.735 299.086 280.787C299.086 279.839 299.359 279.047 299.905 278.411C300.475 277.751 301.228 277.421 302.164 277.421ZM302.164 278.339C301.522 278.339 301.024 278.594 300.67 279.104C300.364 279.548 300.211 280.109 300.211 280.787C300.211 281.465 300.364 282.026 300.67 282.47C301.024 282.98 301.522 283.235 302.164 283.235C302.806 283.235 303.304 282.98 303.658 282.47C303.964 282.026 304.117 281.465 304.117 280.787C304.117 280.109 303.964 279.548 303.658 279.104C303.304 278.594 302.806 278.339 302.164 278.339ZM305.654 278.546V277.574H310.856V278.546H308.813V284H307.688V278.546H305.654ZM314.337 277.421C315.273 277.421 316.026 277.751 316.596 278.411C317.142 279.047 317.415 279.839 317.415 280.787C317.415 281.735 317.142 282.524 316.596 283.154C316.026 283.82 315.273 284.153 314.337 284.153C313.401 284.153 312.648 283.82 312.078 283.154C311.532 282.524 311.259 281.735 311.259 280.787C311.259 279.839 311.532 279.047 312.078 278.411C312.648 277.751 313.401 277.421 314.337 277.421ZM314.337 278.339C313.695 278.339 313.197 278.594 312.843 279.104C312.537 279.548 312.384 280.109 312.384 280.787C312.384 281.465 312.537 282.026 312.843 282.47C313.197 282.98 313.695 283.235 314.337 283.235C314.979 283.235 315.477 282.98 315.831 282.47C316.137 282.026 316.29 281.465 316.29 280.787C316.29 280.109 316.137 279.548 315.831 279.104C315.477 278.594 314.979 278.339 314.337 278.339Z" fill="#191E19"/>
<path d="M228.513 165V158.574H229.638V164.028H232.905V165H228.513ZM235.976 159.681L235.004 162.444H236.966L236.003 159.681H235.976ZM232.934 165L235.4 158.574H236.597L239.072 165H237.866L237.263 163.299H234.698L234.095 165H232.934ZM239.684 165V158.574H240.809V161.499L243.671 158.574H245.057L242.492 161.139L245.237 165H243.833L241.727 161.931L240.809 162.84V165H239.684ZM245.845 165V158.574H250.471V159.546H246.97V161.229H250.21V162.147H246.97V164.028H250.534V165H245.845ZM253.407 159.546V158.574H258.609V159.546H256.566V165H255.441V159.546H253.407ZM261.649 159.681L260.677 162.444H262.639L261.676 159.681H261.649ZM258.607 165L261.073 158.574H262.27L264.745 165H263.539L262.936 163.299H260.371L259.768 165H258.607ZM265.312 165V158.574H266.5L269.434 163.308H269.452V158.574H270.523V165H269.335L266.41 160.275H266.383V165H265.312ZM274.147 159.681L273.175 162.444H275.137L274.174 159.681H274.147ZM271.105 165L273.571 158.574H274.768L277.243 165H276.037L275.434 163.299H272.869L272.266 165H271.105Z" fill="#191E19"/>
</svg>
