<svg width="40" height="40" viewBox="0 0 40 40" fill="none" xmlns="http://www.w3.org/2000/svg">
<g clip-path="url(#clip0_287_4008)">
<path fill-rule="evenodd" clip-rule="evenodd" d="M4.31659 2.20333L9.05659 0L15.7916 13.1483L11.2516 15.385C10.3549 17.4833 14.8499 25.8667 16.7466 26.005C16.8966 25.9083 21.1983 23.7917 21.1983 23.7917L28.0483 37.0117C28.0483 37.0117 23.4416 39.2683 23.2916 39.3383C22.2949 39.7933 21.2666 40.0033 20.2216 40C10.8066 39.9683 0.0782563 22.6167 -7.69975e-05 11.1167C-0.0267437 7.105 1.24159 3.805 4.31659 2.20333ZM7.53326 4.32667L5.82826 5.16667C-2.99508 9.77 12.7899 40.475 21.9083 36.31L23.5283 35.52L19.7433 28.215L18.0333 29.05C12.7616 31.6283 4.26326 15.3517 9.60826 12.4867L11.2866 11.6567L7.53326 4.32667ZM33.3333 28.3333H31.6666V6.66667H33.3333V28.3333ZM29.9999 25H28.3333V10H29.9999V25ZM36.6666 23.3333H34.9999V11.6667H36.6666V23.3333ZM26.6666 21.6667H24.9999V13.3333H26.6666V21.6667ZM23.3333 20H21.6666V15H23.3333V20ZM39.9999 20H38.3333V15H39.9999V20ZM19.9999 18.3333H18.3333V16.6667H19.9999V18.3333Z" fill="#C2874A"/>
</g>
<defs>
<clipPath id="clip0_287_4008">
<rect width="40" height="40" fill="white"/>
</clipPath>
</defs>
</svg>
