<svg id="Layer_1" data-name="Layer 1" xmlns="http://www.w3.org/2000/svg" viewBox="0 0 1109.27 494.31"><defs><style>.cls-1{fill:#32c05c;}.cls-2{fill:#38a344;}.cls-3{fill:#ffe68b;}.cls-4{fill:#a82f2f;}.cls-5{fill:#18c6e0;}.cls-6{fill:#dc4da0;}.cls-7{fill:#6946a8;}.cls-8{fill:#c2884a;}.cls-9{fill:#a36f40;}.cls-10{fill:#b7428b;}.cls-11,.cls-12,.cls-13,.cls-14{isolation:isolate;}.cls-12,.cls-13,.cls-14{font-size:77.53px;font-family:MyriadPro-Bold, Myriad Pro;font-weight:700;}.cls-12{letter-spacing:-0.07em;}.cls-13{letter-spacing:-0.06em;}.cls-15{letter-spacing:-0.07em;}</style></defs><rect x="378.64" y="48.61" width="7.18" height="365.14"/><g id="BG"><path class="cls-1" d="M297.83,119.38c-11.1-24-31.87-53.29-58.8-76.49S179,2.49,143.34,2.51a111.51,111.51,0,0,0-15.71,1.11C86.06,9.57,54.86,32.36,34,64.35S2.51,137.45,2.51,179.82a259.74,259.74,0,0,0,1.41,27A246.34,246.34,0,0,0,40,311.28c19.53,31.05,46,56.7,77.48,72.29l.54.27c.93.46,1.84.9,2.75,1.32a174.52,174.52,0,0,0,17.21,7c.84.29,1.67.57,2.49.83,3.54,1.16,6.88,2.13,10,2.94h0c.93.25,1.83.49,2.72.69s2,.48,2.88.69l.65.14.24.63c2.06,5.47,4,10.45,5.61,14.9.38,1,.73,1.94,1.07,2.86,1.48,4,2.79,7.57,3.87,10.52s1.71,4.73,2.14,6a30.63,30.63,0,0,1,.84,3h0a64.19,64.19,0,0,1,1.86,14.13c0,5.51-1,11.54-4.74,16.52a49.9,49.9,0,0,1-3.44,3.95,13.26,13.26,0,0,0-2.51,3.39,5.53,5.53,0,0,0-.54,2.43v.52a6.17,6.17,0,0,0,.15.84,8.43,8.43,0,0,0,1,2.59c.95,1.57,3.12,3,6.08,4.13a53.44,53.44,0,0,0,10.52,2.54,149.31,149.31,0,0,0,20.92,1.38h4c15-.52,26-2.2,34.22-4.31a68.79,68.79,0,0,0,17.76-7,36.09,36.09,0,0,0,7.89-5.84,17.39,17.39,0,0,0,4.47-7.35,15.93,15.93,0,0,0,.65-4.6,24.84,24.84,0,0,0-1-6.42c-6.81-26.32-9.66-35-10-35.93v-.14c-1.07-3.51-2.81-9.19-5-16.26-1.37-4.44-3.32-11.36-5.07-17.68a10.55,10.55,0,0,1-.63-2.83,3.6,3.6,0,0,1,.39-1.7h0a3.9,3.9,0,0,1,1.07-1.25l.15-.1h0l.11-.09.15-.06c24.29-10.19,42.19-30.59,54.1-56.7s17.74-57.91,17.74-90.58C320.8,191,313,152.08,297.83,119.38ZM263.12,276.17c-4.36,16.81-13,35.75-27.42,50.58-.39.4-.78.79-1.19,1.19s-.79.78-1.21,1.17q-1.22,1.17-2.49,2.28l-1,.91-2.54,2.06c-.43.35-.87.69-1.31,1s-.89.69-1.33,1c-.23.17-.46.34-.69.49s-.45.32-.69.47c-.59.42-1.18.82-1.78,1.21s-1.2.78-1.81,1.16-1.19.73-1.79,1.08l-.12.07c-.61.35-1.23.68-1.85,1l-1.24.69-.24.12c-.45.24-.91.48-1.38.69a77.78,77.78,0,0,1-9.13,3.86l-.63.21c-.67.24-1.36.47-2.06.69-1.13.36-2.28.69-3.44,1l-1,.27c-1,.25-2,.48-3,.69l-.17,0h0a10.79,10.79,0,0,1-1.08.23c-1.85.37-3.76.69-5.71,1l-1.37.17c-1.14.14-2.3.27-3.49.35-1.54.14-3.14.23-4.74.28-.49,0-1,0-1.48,0h-2c-.85,0-1.72,0-2.59,0H169.5c-9.77,0-20.07-3.18-30.33-8.81S118.68,329.51,109,319.54q-1.68-1.74-3.31-3.54c-.51-.55-1-1.12-1.51-1.67-.86-1-1.72-1.94-2.56-2.95s-1.69-2-2.52-3q-2.33-2.82-4.55-5.79c-.52-.68-1-1.37-1.51-2-.69-.9-1.33-1.82-2-2.76s-1.19-1.68-1.77-2.52c-.3-.43-.6-.87-.88-1.3-1.52-2.23-3-4.52-4.44-6.83-.73-1.17-1.44-2.34-2.14-3.54h0l-1.38-2.39c-.46-.8-.93-1.61-1.37-2.43-1-1.76-2-3.55-2.91-5.36-.36-.69-.69-1.37-1.07-2.06q-1.2-2.39-2.36-4.82l-1.15-2.45c-1.18-2.58-2.33-5.18-3.44-7.82-.38-.91-.76-1.81-1.1-2.76-.64-1.63-1.27-3.27-1.87-4.92-.28-.76-.55-1.52-.82-2.29-.44-1.26-.88-2.54-1.31-3.82v-.08a150,150,0,0,1-7.24-27.72,232.62,232.62,0,0,1-3.44-39.51,186,186,0,0,1,2.76-32.82v-.07a79.12,79.12,0,0,1,2.75-11.47,173.91,173.91,0,0,1,6.77-18.4c5.92-13.7,14.73-29.36,27-41.65,8.15-8.19,17.85-14.87,29.23-18.41a70.33,70.33,0,0,1,22.56-3.75,88.57,88.57,0,0,1,13.11,1c26.71,4.08,48.81,20.14,66,41.68s29.6,48.65,36.95,75,9.86,47.5,9.86,64.42C269.42,250.94,265.94,265.27,263.12,276.17Z" transform="translate(0 0)"/><path class="cls-2" d="M300.1,118.33C288.82,94,267.88,64.49,240.64,41S179.86,0,143.36,0a113.63,113.63,0,0,0-16.07,1.14C85,7.18,53.06,30.52,31.83,63S0,137,0,179.82A259,259,0,0,0,1.44,207.1,248.76,248.76,0,0,0,37.83,312.63C57.56,344,84.32,370,116.31,385.82c.69.35,1.43.69,2.15,1,.91.44,1.83.87,2.75,1.28a171.27,171.27,0,0,0,16.69,6.61c.85.29,1.69.57,2.52.83,2.93.95,5.72,1.77,8.35,2.48l2.63.69q1.77.45,3.45.84,3.35,8.84,6,15.87h0c.35,1,.69,1.91,1,2.81,1.25,3.37,2.36,6.36,3.29,9,1.08,3,1.72,4.72,2.12,5.94.31.9.57,1.82.79,2.75h0a61,61,0,0,1,1.81,13.58c0,5.2-1,10.66-4.24,15-1.32,1.8-3,3.32-4.41,5a13.68,13.68,0,0,0-1.84,2.8,8.21,8.21,0,0,0-.77,3.48v.33a10.92,10.92,0,0,0,1.6,4.92,10,10,0,0,0,3,3,20.73,20.73,0,0,0,4.31,2.17c4.82,1.85,11.07,2.84,17,3.41s11.65.69,15.31.69c2.51,0,4.07-.05,4.07-.05,15.18-.53,26.35-2.22,34.77-4.4A71.14,71.14,0,0,0,257,478.52a39.44,39.44,0,0,0,8.43-6.26,20,20,0,0,0,5.09-8.41,19,19,0,0,0,.75-5.3,27.54,27.54,0,0,0-1.07-7.05c-7-26.92-9.86-35.43-10.11-36.13h0c-1.06-3.51-2.79-9.18-5-16.24-1.38-4.42-3.33-11.31-5.08-17.62a9.62,9.62,0,0,1-.46-2.18,1.2,1.2,0,0,1,.11-.56l.22-.29.14-.11h0C275,367.9,293.29,347,305.35,320.48s18-58.65,18-91.62C323.3,190.7,315.43,151.42,300.1,118.33Zm3,201.11C291.14,345.6,273.21,366,249,376.13l-.15.06-.11.09h0l-.15.1a3.82,3.82,0,0,0-1.08,1.25h0a3.64,3.64,0,0,0-.42,1.71,10.29,10.29,0,0,0,.56,2.85c1.76,6.32,3.72,13.23,5.07,17.68,2.17,7.06,3.91,12.75,5,16.26v.14c.31.93,3.18,9.63,10,35.88a24.56,24.56,0,0,1,1,6.43,16,16,0,0,1-.65,4.6,17.35,17.35,0,0,1-4.47,7.35,36.42,36.42,0,0,1-7.89,5.84,68.87,68.87,0,0,1-17.75,7c-8.22,2.11-19.2,3.79-34.23,4.31h-4a149.31,149.31,0,0,1-20.92-1.38,53.35,53.35,0,0,1-10.51-2.54c-3-1.13-5.14-2.59-6.09-4.13a8.43,8.43,0,0,1-1-2.59,6.17,6.17,0,0,1-.15-.84v-.52a5.67,5.67,0,0,1,.54-2.43,13.26,13.26,0,0,1,2.51-3.39,47.69,47.69,0,0,0,3.44-3.95c3.69-5,4.74-11,4.74-16.52a64.11,64.11,0,0,0-1.86-14.13h0c-.21-.93-.43-1.71-.84-3s-1.05-3-2.14-6-2.38-6.5-3.87-10.52c-.34-.92-.69-1.87-1.07-2.86-1.65-4.45-3.53-9.43-5.61-14.9l-.23-.63-.66-.14q-1.39-.31-2.88-.69c-1-.24-1.79-.45-2.71-.69h0c-3.12-.81-6.46-1.78-10-2.94-.82-.26-1.65-.54-2.49-.83a175.52,175.52,0,0,1-17.21-7c-.91-.42-1.82-.86-2.75-1.32l-.54-.27C85.88,368,59.45,342.31,39.92,311.26a246.34,246.34,0,0,1-36-104.44,259.41,259.41,0,0,1-1.41-27C2.48,137.43,13,96.3,33.92,64.33S86.06,9.57,127.65,3.62a111.51,111.51,0,0,1,15.71-1.11c35.68,0,68.74,17.13,95.69,40.38s47.7,52.52,58.8,76.49c15.15,32.7,23,71.66,23,109.47C320.8,261.5,315,293.28,303.06,319.44Z" transform="translate(0 0)"/><path class="cls-2" d="M259.56,166.46c-7.34-26.37-19.73-53.45-37-75s-39.31-37.6-66-41.68a87.26,87.26,0,0,0-13.12-1.05,70.68,70.68,0,0,0-22.56,3.74C109.54,56,99.84,62.66,91.69,70.85c-12.24,12.29-21,28-27,41.64A177.1,177.1,0,0,0,58,130.9a80.48,80.48,0,0,0-2.76,11.47v.06a187.07,187.07,0,0,0-2.75,32.82,232.44,232.44,0,0,0,3.44,39.51,149.27,149.27,0,0,0,7.24,27.73v.07c.42,1.29.86,2.57,1.31,3.83.26.76.54,1.53.81,2.29.61,1.65,1.23,3.29,1.88,4.92.36.91.69,1.82,1.1,2.75q1.61,4,3.44,7.83l1.14,2.44Q74,269,75.17,271.44c.35.69.69,1.38,1.07,2.07.94,1.8,1.91,3.59,2.9,5.35.45.82.92,1.64,1.38,2.43l1.38,2.4h0c.69,1.19,1.38,2.37,2.14,3.53,1.44,2.32,2.9,4.6,4.43,6.83.29.44.59.88.89,1.3.58.85,1.16,1.69,1.77,2.53l2,2.75c.49.69,1,1.38,1.5,2q2.23,3,4.56,5.78c.83,1,1.67,2,2.52,3s1.7,2,2.56,2.94c.5.56,1,1.12,1.51,1.68q1.63,1.8,3.3,3.53c9.64,10,19.87,18.09,30.14,23.74s20.56,8.82,30.32,8.82h1.62c.86,0,1.74,0,2.59,0h2a14.54,14.54,0,0,0,1.48,0c1.6,0,3.19-.13,4.74-.27,1.19-.08,2.35-.21,3.49-.35l1.37-.17c1.94-.25,3.86-.58,5.71-.95.36-.07.73-.14,1.08-.23h0l.17,0c1-.22,2-.45,3-.69l1-.27c1.15-.29,2.3-.62,3.45-1,.7-.22,1.39-.45,2.06-.69.2-.08.42-.14.63-.22a79.45,79.45,0,0,0,9.13-3.85c.48-.23.94-.46,1.37-.69a1.15,1.15,0,0,0,.25-.12c.41-.22.82-.44,1.23-.69.63-.34,1.24-.69,1.86-1.05a.41.41,0,0,0,.11-.07c.6-.34,1.2-.69,1.79-1.07s1.22-.77,1.82-1.17,1.19-.79,1.78-1.2l.69-.48.68-.48c.45-.33.91-.69,1.34-1s.88-.64,1.31-1c.86-.69,1.71-1.38,2.54-2.07l1-.9c.85-.74,1.68-1.51,2.49-2.28l1.21-1.18,1.19-1.19c14.45-14.82,23.06-33.73,27.42-50.57,2.81-10.9,6.3-25.23,6.3-45.29C269.42,214,267,193,259.56,166.46Zm1.13,109.09C256.41,292,247.93,310.6,233.91,325s-33.54,24.67-60.19,24.68c-.86,0-1.72,0-2.61,0h-1.59c-9.21,0-19.13-3-29.12-8.51-15-8.26-30.11-22-43.28-39.33a207.23,207.23,0,0,1-31.67-60.08v-.06c-2.46-6.2-5.11-15.79-7.13-27.31a227.51,227.51,0,0,1-3.44-39.07,182.72,182.72,0,0,1,2.75-32.44v0h0a100.55,100.55,0,0,1,4.46-16.61c4-11.61,10.69-27,20.49-40.62s22.72-25.63,39.06-30.68a68,68,0,0,1,21.81-3.65,85.2,85.2,0,0,1,12.76,1c25.91,4,47.5,19.54,64.44,40.77s29.23,48,36.49,74.12c7.32,26.3,9.75,47.07,9.75,63.75C266.91,250.65,263.51,264.68,260.69,275.55Z" transform="translate(0 0)"/><path class="cls-3" d="M266.91,230.89c0,19.76-3.4,33.79-6.19,44.66C256.44,292,248,310.6,233.94,325s-33.55,24.67-60.19,24.68c-.86,0-1.73,0-2.61,0h-1.59c-9.22,0-19.14-3-29.12-8.51-15-8.26-30.11-22-43.28-39.33a207.23,207.23,0,0,1-31.67-60.08v-.06a146.92,146.92,0,0,1-7.13-27.31,228.53,228.53,0,0,1-3.45-39.07,183.67,183.67,0,0,1,2.76-32.44v0h0a100.55,100.55,0,0,1,4.46-16.61c4-11.61,10.68-27,20.49-40.62s22.72-25.63,39.06-30.68a68,68,0,0,1,21.81-3.65,84.81,84.81,0,0,1,12.73,1c25.91,4,47.5,19.54,64.44,40.77s29.23,48,36.49,74.12C264.48,193.46,266.91,214.21,266.91,230.89Z" transform="translate(0 0)"/></g><g id="DOTS"><path class="cls-4" d="M205.17,248.22a5.34,5.34,0,0,1-5.92-.74l-.07-.06h0a8.43,8.43,0,0,1-2.06-2.39A8,8,0,0,1,196,240.7v-.11a5,5,0,0,1,2.35-4.13c2.57-1.48,6.2-.05,8.07,3.2S207.73,246.73,205.17,248.22Z" transform="translate(0 0)"/><path class="cls-4" d="M243.18,444.6a5.34,5.34,0,0,1-5.92-.75l-.07-.05h0a8.35,8.35,0,0,1-2.07-2.4,8.11,8.11,0,0,1-1.11-4.32V437a5,5,0,0,1,2.36-4.13c2.56-1.48,6.19-.05,8.06,3.2S245.74,443.11,243.18,444.6Z" transform="translate(0 0)"/><path class="cls-4" d="M239.83,203.35c-4.46.07-8.15,4.13-8.19,9s3.49,8.75,8.2,8.75c4.88,0,8.46-3.79,8.43-8.95C248.25,207.53,244.19,203.29,239.83,203.35Z" transform="translate(0 0)"/><path class="cls-5" d="M179.24,192.91a4.64,4.64,0,0,0-5.1,3.28,7,7,0,0,0,.58,6.32,4.26,4.26,0,0,0,4,2.06,4.22,4.22,0,0,0,4-2.7,13.21,13.21,0,0,0,.59-2.56C183.27,195.84,181.53,193.32,179.24,192.91Z" transform="translate(0 0)"/><polygon points="141.63 71.47 141.67 71.45 141.54 71.36 141.63 71.47"/><ellipse class="cls-5" cx="233.05" cy="296.74" rx="6.58" ry="4.39"/><ellipse class="cls-6" cx="109" cy="90.77" rx="7.32" ry="4.39"/><ellipse class="cls-5" cx="215.5" cy="110.21" rx="5.12" ry="8.05"/><ellipse class="cls-7" cx="160.04" cy="69.73" rx="5.77" ry="6.58"/><ellipse class="cls-4" cx="87.79" cy="122.3" rx="8.05" ry="5.85"/><circle class="cls-5" cx="91.87" cy="159.23" r="5.85"/><ellipse class="cls-7" cx="70.2" cy="198.37" rx="6.45" ry="4.11"/><ellipse class="cls-6" cx="240.15" cy="252.28" rx="10.97" ry="5.85"/><ellipse class="cls-6" cx="226.83" cy="147.71" rx="7.97" ry="4.79"/><ellipse class="cls-7" cx="207.05" cy="180.69" rx="6.96" ry="9.8"/><ellipse class="cls-7" cx="215.08" cy="451.19" rx="14.13" ry="10.13" transform="translate(-228.67 221.14) rotate(-37.11)"/><ellipse class="cls-7" cx="217.32" cy="421.24" rx="9.94" ry="13.98" transform="translate(-241.43 302) rotate(-48.14)"/><ellipse class="cls-3" cx="236.49" cy="357.86" rx="8.75" ry="5.36"/><ellipse class="cls-7" cx="288.59" cy="261.26" rx="13.12" ry="9.4" transform="matrix(0.53, -0.85, 0.85, 0.53, -86.03, 367.09)"/><ellipse class="cls-5" cx="289.01" cy="255.03" rx="8.99" ry="4.02" transform="translate(-64.34 409) rotate(-64.97)"/><ellipse class="cls-6" cx="291.79" cy="194.9" rx="9.8" ry="5.78"/><ellipse class="cls-4" cx="253.69" cy="105.73" rx="10.03" ry="5.2"/><ellipse class="cls-3" cx="234.13" cy="61.69" rx="9.9" ry="7.68"/><ellipse class="cls-3" cx="109.13" cy="40.03" rx="8.71" ry="5.17"/><ellipse class="cls-3" cx="61.68" cy="71.37" rx="7.44" ry="6.7"/><ellipse class="cls-4" cx="270.02" cy="328.27" rx="7.44" ry="6.7"/><ellipse class="cls-6" cx="32.52" cy="125.24" rx="6.26" ry="8.33"/><ellipse class="cls-7" cx="38.9" cy="141.7" rx="7.65" ry="4.8" transform="translate(-103.26 104.54) rotate(-60)"/><ellipse class="cls-3" cx="42.55" cy="245.61" rx="9.98" ry="4.96"/><ellipse class="cls-7" cx="59.63" cy="301.38" rx="9.46" ry="8.14"/><circle class="cls-6" cx="114.96" cy="34.68" r="7.56"/><ellipse class="cls-7" cx="185.87" cy="37.84" rx="10.07" ry="7.55"/><ellipse class="cls-4" cx="27.3" cy="188.79" rx="9.92" ry="8.27"/><ellipse class="cls-6" cx="54.91" cy="292.7" rx="8.65" ry="5.24"/><ellipse class="cls-7" cx="209.98" cy="391.85" rx="15.22" ry="10.44" transform="translate(-229.39 324.03) rotate(-53.04)"/><ellipse class="cls-6" cx="219.08" cy="391.92" rx="9.82" ry="5.98" transform="translate(-212.96 269.7) rotate(-45)"/><ellipse class="cls-5" cx="226.89" cy="417.66" rx="8.36" ry="4.47"/><ellipse class="cls-6" cx="194.96" cy="398.3" rx="6.49" ry="9.6"/><ellipse class="cls-4" cx="196.13" cy="425.8" rx="6.4" ry="12.62" transform="translate(-243.64 263.4) rotate(-45)"/><circle class="cls-3" cx="204.15" cy="459.61" r="9.4"/><ellipse class="cls-7" cx="287.18" cy="144.25" rx="6.99" ry="4.02" transform="translate(18.67 320.83) rotate(-60)"/><ellipse class="cls-5" cx="278.08" cy="139.23" rx="6.41" ry="8.13"/></g><g id="LADY"><g id="LEGS"><path class="cls-8" d="M177.8,357.17c-.14,3.82-.43,8.26-1,13.22-.77,7.06-1.44,13.08-3.26,19.58-4.53,16.22-13.92,27.48-23.22,38.62-4.17,5-7.87,8.86-10.28,11.29a54.64,54.64,0,0,1,6.12,17.21,78.19,78.19,0,0,1,.93,19.68,84,84,0,0,1-2.26,13.94,11.47,11.47,0,0,1-2.25-1.37c-2.23-1.68-3.31-3.76-5.13-7-2-3.57-2.72-5.76-3.83-11.06-2.19-10.39-3.08-14.38-3.48-21.54-2.63,2.91-4.86,4.62-6.4,6.38a3.74,3.74,0,0,0-.94,3c.69,5,1.77,6,2.52,18.89.18,3.32-.87,9.22-3.38,12.57a12.11,12.11,0,0,1-2.55-.91,46.2,46.2,0,0,0-9.07-25.05c-.59-.69-3.72-3-4.72-4.28-.46-.57-1.16-1.43-1-3.77a5.67,5.67,0,0,1,.89-3,8.21,8.21,0,0,1,3.68-2.51c4.73-2.17,8-5.79,11-9.07,2.72-3,7.28-8.88,7.27-11,0-1.89-.64-6.79-.69-7.1-1.46-8.19-2.31-13.61-4.32-27.27-1.91-12.91-4-25.36-6-33.9a51,51,0,0,0,21,3.94c1,0,1.94,0,2.89,0q-.69,4.81-1.27,10c-.63,5.94-1,11.59-1.19,16.89l.09,22.65,14.29-18.59,8.76-9.92c-.81-1.82-3.33-14.57-5-22.62a79.56,79.56,0,0,0,20.43-7.12C176.86,357.67,177.32,357.44,177.8,357.17Z" transform="translate(0 0)"/><path class="cls-9" d="M161,387.64l-8.76,9.95L138,416.18l-.09-22.65c.19-5.3.56-10.95,1.19-16.88q.55-5.2,1.27-10a10.79,10.79,0,0,0,1.27-.05c.43-.06.86,0,1.28-.05-.52,3.44-1,6.95-1.33,10.41-.58,5.5-1,11.12-1.17,16.67l.06,15.27,9.83-12.79.05-.06,0-.06,7.82-8.9c-.77-2.75-1.9-8.15-3.51-15.91-.41-2-.81-4-1.18-5.69l1.24-.21L156,365C157.7,373.07,160.22,385.82,161,387.64Z" transform="translate(0 0)"/><path class="cls-9" d="M180.35,355.67c-.13,5-.47,10-1,15-.79,7.12-1.47,13.26-3.35,20a80.16,80.16,0,0,1-12.39,25.18c-.28.41-.58.83-.87,1.23l-.91,1.22c-3.07,4.13-6.32,8.05-9.55,11.92-2.91,3.5-6,6.88-9.14,10.13a56.07,56.07,0,0,1,5.51,16.35,80.43,80.43,0,0,1,1,20.32,85.2,85.2,0,0,1-2.31,14.37l-.71,3L143.82,493a14.69,14.69,0,0,1-2.72-1.62c-2.56-1.92-3.81-4.22-5.55-7.37l-.25-.45c-2.06-3.78-2.92-6.2-4.09-11.76l-.28-1.32c-1.46-6.89-2.29-10.85-2.8-15.15l-.17.16a31.14,31.14,0,0,0-2.3,2.28,1.17,1.17,0,0,0-.33,1c.19,1.44.41,2.52.68,3.76.62,2.9,1.33,6.19,1.86,15.33.24,4.06-1,10.42-3.88,14.21l-1,1.31-1.59-.37a14.62,14.62,0,0,1-3.22-1.18l-1.19-.69-.07-1.38a40.26,40.26,0,0,0-3.71-15.4,38.47,38.47,0,0,0-4.74-8.13c-.17-.18-.89-.77-1.38-1.21a26,26,0,0,1-3.44-3.2c-.57-.68-1.75-2.2-1.47-5.5a7.88,7.88,0,0,1,1.37-4.28,10.05,10.05,0,0,1,4.46-3.2l.17-.06c4.19-1.94,7.18-5.18,10.07-8.34l.17-.17c3.32-3.62,6.37-8.16,6.6-9.38,0-1.67-.58-6.14-.65-6.63-1.47-8.31-2.32-13.67-4.33-27.35q-.8-5.32-1.56-10.11c-.18-1-.34-2.06-.5-3-1.58-9.53-3.07-17.22-4.4-22.56.5.28,1,.53,1.49.77l1.43.68c.86,3.74,1.77,8.23,2.65,13.18.13.69.26,1.42.38,2.14.4,2.29.8,4.69,1.2,7.13.17,1,.33,2,.49,3,.44,2.75.87,5.61,1.29,8.46,2,13.67,2.87,19.08,4.33,27.27.05.31.69,5.21.69,7.11,0,2.16-4.55,8.07-7.27,11-3,3.29-6.3,6.89-11,9.08a8.06,8.06,0,0,0-3.68,2.5,5.61,5.61,0,0,0-.89,3c-.19,2.34.52,3.21,1,3.77,1,1.27,4.13,3.58,4.72,4.28a46.23,46.23,0,0,1,9.07,25.06,12,12,0,0,0,2.54.9c2.52-3.35,3.57-9.25,3.38-12.56-.75-12.92-1.85-13.93-2.52-18.9a3.75,3.75,0,0,1,1-3c1.53-1.75,3.76-3.44,6.39-6.37.41,7.15,1.3,11.14,3.49,21.53,1.11,5.3,1.86,7.49,3.83,11.07,1.82,3.27,2.89,5.35,5.12,7a11.89,11.89,0,0,0,2.26,1.38,84.37,84.37,0,0,0,2.25-13.94,77.71,77.71,0,0,0-.95-19.68,54.64,54.64,0,0,0-6.12-17.21c2.41-2.43,6.11-6.29,10.28-11.29,3.56-4.26,7.14-8.56,10.44-13.13h0c.29-.41.6-.81.89-1.22a.83.83,0,0,0,.09-.16c.28-.36.53-.72.77-1.1.59-.84,1.15-1.68,1.69-2.54s1.1-1.74,1.63-2.63l.11-.19q1.51-2.57,2.87-5.31c.24-.47.46-1,.69-1.44s.45-1,.69-1.46.41-1,.61-1.44c.44-1.05.86-2.11,1.24-3.22.18-.49.35-1,.52-1.5.09-.27.18-.55.26-.82s.2-.63.3-.94c.15-.5.3-1,.44-1.51,1.83-6.52,2.5-12.51,3.27-19.58.54-4.95.83-9.4,1-13.22l1.27-.73C179.5,356.22,179.91,355.94,180.35,355.67Z" transform="translate(0 0)"/></g><path class="cls-6" d="M205.78,311.37c0,6.58-1.44,23.07-15.6,34.27-3.44,2.72-6.75,5.12-9.73,7-.43.29-.85.55-1.27.82l-1.25.75c-.92.54-1.79,1-2.6,1.43a76.92,76.92,0,0,1-19.82,6.88l-1.23.24L153,363a71.8,71.8,0,0,1-8,.9c-.55,0-1.11.06-1.69.07s-.85,0-1.27.06l-1.3.05c-7.57.26-16.26-.09-25-4.48l-1.5-.81-.12-.06c-.49-.27-1-.56-1.45-.87-13.23-8.19-18.27-22.18-22.35-33.5-5.7-15.89-6.19-30.17-5.93-40.84.58-25.68,6.56-51.9,17.79-78.09a81.88,81.88,0,0,0,3.16,9.37l.52,1.26c4.39,10.7,11.7,28.6,24.69,28.61,13.77,0,24.74-16.81,28.18-22.72,3.58,3.76,7.93,9.4,13.51,16.67a180.45,180.45,0,0,1,24.32,38.32C202.41,289.6,205.71,301.62,205.78,311.37Z" transform="translate(0 0)"/><path class="cls-10" d="M208.25,311.37v.17c0,7-1.64,24.27-16.52,36.07a123.3,123.3,0,0,1-11.35,8.06l-1.28.76-1.27.74c-.48.27-.93.5-1.38.73A79.69,79.69,0,0,1,156,365l-1.23.22-1.24.21a69.76,69.76,0,0,1-8.42,1l-2.2.09c-.43,0-.85.05-1.28.05s-.85,0-1.27.06c-.95,0-1.9.05-2.89.05-6.39,0-13.68-.69-21-4-.48-.21-1-.43-1.43-.69s-1-.49-1.49-.76l-.69-.36C97.75,352.39,92.11,336.67,88,325.2c-5.85-16.28-6.33-30.86-6.07-41.74.6-27,7.09-54.55,19.27-82,.14.69.31,1.38.48,2.07s.34,1.31.52,2C90.94,231.61,85,257.86,84.38,283.54c-.24,10.67.22,25,5.93,40.84,4.08,11.32,9.12,25.31,22.35,33.51.48.3,1,.59,1.45.86l.12.06c.5.28,1,.56,1.5.81,8.73,4.39,17.44,4.74,25,4.48l1.29-.05c.43,0,.85,0,1.28-.06.58,0,1.14-.05,1.69-.07a71.8,71.8,0,0,0,8-.9l1.24-.21,1.23-.24a76.92,76.92,0,0,0,19.82-6.88c.81-.41,1.68-.89,2.6-1.43l1.25-.75c.42-.27.84-.53,1.27-.82,3-1.91,6.3-4.31,9.73-7,14.17-11.23,15.64-27.72,15.64-34.3,0-9.75-3.33-21.77-9.16-34.42a180.55,180.55,0,0,0-24.31-38.32c-5.59-7.27-9.94-12.91-13.52-16.67.26-.46.48-.83.64-1.15s.28-.51.36-.68.18-.33.25-.49c3.81,3.87,8.27,9.69,14.22,17.39C189.86,256.1,208.16,287,208.25,311.37Z" transform="translate(0 0)"/><path d="M195.27,131.42c-3.8,16.87-19.27,30.84-36.57,31.67a36.82,36.82,0,0,1-8.64-.63,14.8,14.8,0,0,1,2.27-3.9,38.41,38.41,0,0,1,7.48-7.15c.95-.75,1.93-1.51,3-2.42,3.73-3.11,7.57-6.31,10-11.63.95-2.07,3.85-8.26,1.69-15.68-.85-2.9-3.56-9.89-10.33-12a13.32,13.32,0,0,0-4-.61,17.4,17.4,0,0,0-8,2.12C137.08,119.08,134,147.33,134,147.6a7.45,7.45,0,0,1-.65,2.12,8.3,8.3,0,0,1-1.58,2.35c-9-10.64-10.27-26.64-5.68-39,6-16,21.64-26.41,34.43-26.07,6.58.17,15.87,1,25.72,9.64C195.49,104.74,197.94,119.61,195.27,131.42Z" transform="translate(0 0)"/><path class="cls-9" d="M150,162.55a.11.11,0,0,0,0-.08,14.74,14.74,0,0,1,2.27-3.89,38.4,38.4,0,0,1,7.48-7.15c1-.76,1.93-1.52,3-2.42,3.73-3.12,7.58-6.31,10-11.64,1-2.06,3.85-8.26,1.69-15.68-.85-2.9-3.56-9.89-10.33-12a13.31,13.31,0,0,0-4-.6,17.21,17.21,0,0,0-8,2.12C137,119.1,134,147.34,134,147.62a7.91,7.91,0,0,1-.66,2.12,8.43,8.43,0,0,1-1.57,2.34,15.19,15.19,0,0,1-2.4,2.06l-.6.44-.87.69c-1.5,1.17-1.73,1.37-11.63,8.62l-5.51,4c-6,4.32-7.39,5.35-9.4,8.31-3.7,5.42-2.26,12.64-1.92,14.06a82.57,82.57,0,0,0,1.72,11.17c.13.69.3,1.38.47,2.07s.34,1.32.52,2a80.78,80.78,0,0,0,3.25,9.31l.52,1.26c4.39,10.7,11.7,28.6,24.69,28.61,13.77,0,24.74-16.81,28.18-22.72.26-.45.47-.83.64-1.14s.28-.51.36-.69.17-.32.25-.49c8.26-15.83,8-26.41,7.72-29.29-.82-8.59-8.42-17.7-15-20.81-.53-.25-1.06-.47-1.55-.69a10,10,0,0,1-2.38-1.25v-.08A19.79,19.79,0,0,1,150,162.55Zm1.64,9.25c5.94,2.81,12.83,11.16,13.57,18.8.75,7.82-2.72,18.59-7.12,27.25l-.58,1.13h0c-.17.35-.39.74-.61,1.14-4.14,7.29-14.6,22-26.32,22h0c-11.76,0-18.75-18.29-22.89-28.33a80.11,80.11,0,0,1-3.9-12.1c-.17-.69-.31-1.38-.45-2.07s-.27-1.42-.41-2.11a76.44,76.44,0,0,1-1-7.7s-1.93-7.21,1.5-12.25c2.23-3.27,3.6-3.83,14.35-11.71,11.53-8.47,10-7.35,12.56-9.34a22.55,22.55,0,0,0,3.17-2.61,11.1,11.1,0,0,0,2.15-3.17,10.85,10.85,0,0,0,.87-3c.14-1.94,3.53-27.44,16.86-34.42a15,15,0,0,1,6.85-1.84,10.58,10.58,0,0,1,3.21.48c6.19,2,8.31,9.2,8.65,10.33,1.91,6.51-.69,12.08-1.55,13.93-2.24,4.82-5.73,7.72-9.36,10.76-4.24,3.55-7.2,5.29-10.85,10a17.45,17.45,0,0,0-2.67,4.62l-.1.27a22.67,22.67,0,0,0-1.27,5.32c-.29,2.59,2.46,3.23,5.35,4.6Z" transform="translate(0 0)"/><path class="cls-8" d="M147.59,161.92a.88.88,0,0,1,.1-.27,17.45,17.45,0,0,1,2.67-4.62c3.65-4.66,6.61-6.4,10.85-9.95,3.63-3,7.12-5.94,9.36-10.76.85-1.84,3.44-7.41,1.55-13.93-.34-1.14-2.45-8.37-8.65-10.32a10.29,10.29,0,0,0-3.21-.49,15,15,0,0,0-6.85,1.84c-13.33,7-16.72,32.46-16.86,34.43a11,11,0,0,1-.87,3,11.19,11.19,0,0,1-2.15,3.16,22.55,22.55,0,0,1-3.17,2.61c-2.56,2-1,.88-12.56,9.34-10.75,7.9-12.12,8.46-14.35,11.71-3.45,5-1.5,12.25-1.5,12.25a76.64,76.64,0,0,0,1,7.71c.14.68.26,1.37.41,2.1s.28,1.34.45,2.07a79.79,79.79,0,0,0,3.89,12.14c4.14,10,11.13,28.31,22.89,28.32h0c11.7,0,22.21-14.76,26.32-22,.23-.39.44-.79.61-1.14h0c.2-.38.39-.74.58-1.13,4.41-8.68,7.87-19.43,7.12-27.25-.73-7.64-7.62-16-13.57-18.8-2.89-1.37-5.64-2-5.35-4.56A22.8,22.8,0,0,1,147.59,161.92Zm-6.11,46.82c-1.74,6.81-6.15,13.86-10.49,13.86s-9.08-6.08-11.34-14.79c0,0-1.33-3.77-2.16-17.74a2.37,2.37,0,0,1,.48-1.64,3.38,3.38,0,0,1,2.72-.85l19.06-.27a3.21,3.21,0,0,1,2.43.63,2.81,2.81,0,0,1,1,2.27C143.13,200.85,142.31,205.54,141.48,208.74Z" transform="translate(0 0)"/><path class="cls-10" d="M142.18,188a3.26,3.26,0,0,0-2.43-.64l-19.06.28a3.31,3.31,0,0,0-2.72.85,2.36,2.36,0,0,0-.48,1.64c.83,14,2.13,17.7,2.16,17.74,2.26,8.71,6.92,14.79,11.34,14.79s8.75-7.05,10.49-13.86c.83-3.2,1.66-7.89,1.66-18.53A2.8,2.8,0,0,0,142.18,188Zm-3.12,20.17c-1.74,6.75-5.76,12-8.07,12-2.69,0-6.73-4.53-9-13,0,0-1.22-3.68-2-17h.69l19.16-.28H140a.38.38,0,0,1,.6.41c0,10.31-.8,14.82-1.58,17.86Z" transform="translate(0 0)"/><path class="cls-6" d="M140.63,190.21c0,10.33-.79,14.86-1.57,17.9-1.74,6.76-5.76,12-8.07,12-2.69,0-6.73-4.53-9-13,0,0-1.22-3.68-2-17h.69l19.16-.28H140a.84.84,0,0,1,.54.07A.65.65,0,0,1,140.63,190.21Z" transform="translate(0 0)"/></g><polygon points="447.93 47.1 447.93 94.12 492.25 47.1 523.39 47.1 479.06 91.89 527.68 160.52 496.38 160.52 462.23 109.53 447.93 123.98 447.93 160.52 422.99 160.52 422.99 47.1 447.93 47.1"/><path d="M621.87,151.86Q609,163,586.28,163.06q-23,0-35.63-11.13T538,117.62V47.1h24.91v70.53a51.89,51.89,0,0,0,.79,9.06,17.59,17.59,0,0,0,10.41,13.41q4.53,2.16,12.15,2.15,13.37,0,18.45-6t5.09-18.66V47.1h24.94v70.53q0,23-12.86,34.23" transform="translate(0 0)"/><path d="M718.13,47.1a36.44,36.44,0,0,1,13.74,2.46,31.63,31.63,0,0,1,10.49,6.75A29.17,29.17,0,0,1,749,66.24a31.86,31.86,0,0,1,2.31,12.16,34,34,0,0,1-4.22,17.31q-4.2,7.31-13.73,11.12v.31A19.24,19.24,0,0,1,741,111a21.6,21.6,0,0,1,4.93,6.19,28.88,28.88,0,0,1,2.78,7.86,71.08,71.08,0,0,1,1.19,8.58c.11,1.81.21,3.92.32,6.36s.29,4.93.56,7.47a49.29,49.29,0,0,0,1.27,7.23,16.63,16.63,0,0,0,2.62,5.8H729.75a43.9,43.9,0,0,1-2.54-12.87q-.48-7.47-1.43-14.3-1.28-8.91-5.4-13t-13.5-4.13h-25v44.3H657V47.1Zm-8.91,51.31q8.58,0,12.87-3.82t4.29-12.39q0-8.26-4.29-12t-12.87-3.74h-27.3V98.41Z" transform="translate(0 0)"/><rect x="772.45" y="47.1" width="24.94" height="113.42"/><polygon points="899.85 47.1 899.85 68.07 845.05 68.07 845.05 94.28 892.55 94.28 892.55 113.66 845.05 113.66 845.05 160.52 820.11 160.52 820.11 47.1 899.85 47.1"/><polygon points="906.21 68.07 906.21 47.1 999.13 47.1 999.13 68.07 965.14 68.07 965.14 160.52 940.2 160.52 940.2 68.07 906.21 68.07"/><path d="M1096.34,151.86q-12.85,11.19-35.58,11.2-23,0-35.63-11.13t-12.63-34.31V47.1h24.94v70.53a50.94,50.94,0,0,0,.79,9.06,17.62,17.62,0,0,0,10.4,13.41q4.55,2.16,12.16,2.15,13.37,0,18.45-6t5.09-18.66V47.1h24.94v70.53q0,23-12.87,34.23" transform="translate(0 0)"/><path d="M428.15,221.15h47.34a62.22,62.22,0,0,1,14,1.51,33,33,0,0,1,11.45,4.93,23.39,23.39,0,0,1,7.7,9,30.76,30.76,0,0,1,2.78,13.82q0,11.44-6.43,19.29t-17.87,9.77v.32q7.78,1,12.31,4.13a20.16,20.16,0,0,1,6.75,7.79,31.64,31.64,0,0,1,2.87,10.18,98.29,98.29,0,0,1,.63,11.12v6.51a54,54,0,0,0,.31,6,30.25,30.25,0,0,0,1,5.16,11.42,11.42,0,0,0,2,4H505.2a20.54,20.54,0,0,1-2.47-9.29q-.23-5.32-.24-11c0-3.81-.16-7.59-.48-11.36a24.27,24.27,0,0,0-3-10.09,18,18,0,0,0-8-7.14Q485.5,283,475.49,283H435.14v51.63h-7Zm47.34,55.76A41.83,41.83,0,0,0,487,275.4a24.39,24.39,0,0,0,9.12-4.69,22.25,22.25,0,0,0,6-8.1,28.36,28.36,0,0,0,2.23-11.75A23,23,0,0,0,502,240a21.11,21.11,0,0,0-6.37-7.39,26.23,26.23,0,0,0-9.21-4.13,46,46,0,0,0-11-1.27H435.14v49.72Z" transform="translate(0 0)"/><polygon points="529.02 221.15 605.26 221.15 605.26 227.19 536.01 227.19 536.01 272.62 601.13 272.62 601.13 278.66 536.01 278.66 536.01 328.54 606.06 328.54 606.06 334.57 529.02 334.57 529.02 221.15"/><path d="M692.79,253.56a30.26,30.26,0,0,0-3.1-12.73,26.62,26.62,0,0,0-7.54-9.06,33.05,33.05,0,0,0-11.36-5.48,53.65,53.65,0,0,0-14.37-1.83,51.89,51.89,0,0,0-10.25,1.12A32.38,32.38,0,0,0,636,229.47a23,23,0,0,0-7.7,7.46,21.11,21.11,0,0,0-3,11.68q0,6.84,3.33,11.12a24.37,24.37,0,0,0,8.78,6.94,57.1,57.1,0,0,0,12.39,4.2q7,1.61,14.13,3,7.32,1.42,14.23,3.42a48.23,48.23,0,0,1,12.38,5.4,26.65,26.65,0,0,1,8.82,8.91q3.34,5.47,3.34,13.74,0,8.91-3.82,14.93a32.17,32.17,0,0,1-9.62,9.85,39.71,39.71,0,0,1-12.86,5.48,59.18,59.18,0,0,1-13.58,1.67,78.84,78.84,0,0,1-18.74-2.14,42.22,42.22,0,0,1-15.27-7,33.74,33.74,0,0,1-10.25-12.48Q614.79,308,615,297.09h7q-.47,9.39,2.7,15.8a28.49,28.49,0,0,0,8.82,10.57,36.54,36.54,0,0,0,13.26,6,68.31,68.31,0,0,0,16,1.82A50.45,50.45,0,0,0,673.66,330a33.06,33.06,0,0,0,10.64-4.29,26.23,26.23,0,0,0,8.1-7.94q3.27-4.92,3.26-12.39c0-4.76-1.11-8.66-3.34-11.67a24.45,24.45,0,0,0-8.81-7.31,57,57,0,0,0-12.4-4.46q-6.9-1.67-14.21-3.1-7.15-1.43-14.14-3.33a48.78,48.78,0,0,1-12.39-5.16,26.42,26.42,0,0,1-8.73-8.42q-3.35-5.16-3.34-13.26a26.87,26.87,0,0,1,3.41-13.9,27.93,27.93,0,0,1,8.91-9.37,39.58,39.58,0,0,1,12.31-5.25,56.9,56.9,0,0,1,13.5-1.66,66.4,66.4,0,0,1,16.61,2,39.94,39.94,0,0,1,13.5,6.19,31.14,31.14,0,0,1,9.29,10.88,38.56,38.56,0,0,1,4,16.05Z" transform="translate(0 0)"/><path d="M822.42,277.87a72.73,72.73,0,0,1-3.66,23.27A56.09,56.09,0,0,1,808.2,320a49.26,49.26,0,0,1-16.92,12.63,58.46,58.46,0,0,1-45.51,0,49,49,0,0,1-17-12.63,55.85,55.85,0,0,1-10.58-18.91,76,76,0,0,1,0-46.55,55.85,55.85,0,0,1,10.56-18.9,49,49,0,0,1,17-12.62,58.46,58.46,0,0,1,45.51,0,49.23,49.23,0,0,1,16.92,12.62,56,56,0,0,1,10.56,18.9,72.75,72.75,0,0,1,3.66,23.28m-100.87,0a65.78,65.78,0,0,0,3.18,20.65,50.82,50.82,0,0,0,9.21,16.92,43.86,43.86,0,0,0,34.63,15.8,43.94,43.94,0,0,0,19.77-4.29A44.83,44.83,0,0,0,803,315.43a51,51,0,0,0,9.22-16.92,68.79,68.79,0,0,0,0-41.3A50.92,50.92,0,0,0,803,240.29a45,45,0,0,0-14.7-11.52,43.94,43.94,0,0,0-19.77-4.29,43.83,43.83,0,0,0-34.63,15.81,50.69,50.69,0,0,0-9.2,16.94,65.78,65.78,0,0,0-3.18,20.65" transform="translate(0 0)"/><path d="M838.14,221.15h47.34a62.22,62.22,0,0,1,14,1.51,33,33,0,0,1,11.45,4.93,23.6,23.6,0,0,1,7.69,9,30.76,30.76,0,0,1,2.78,13.82q0,11.44-6.44,19.29t-17.87,9.77v.32q7.77,1,12.31,4.13a20.16,20.16,0,0,1,6.75,7.79A31.13,31.13,0,0,1,919,301.87a98.3,98.3,0,0,1,.64,11.12v6.51a51.62,51.62,0,0,0,.31,6,29.13,29.13,0,0,0,1,5.16,11.57,11.57,0,0,0,2,4h-7.8a20.65,20.65,0,0,1-2.46-9.29q-.24-5.32-.24-11c0-3.81-.16-7.59-.47-11.36a24.25,24.25,0,0,0-3-10.09,18,18,0,0,0-8-7.14Q895.5,283,885.48,283H845.13v51.63h-7Zm47.34,55.76A42,42,0,0,0,897,275.4a24.36,24.36,0,0,0,9.13-4.69,22.33,22.33,0,0,0,6-8.1,28.1,28.1,0,0,0,2.22-11.75A23.15,23.15,0,0,0,912,240a21.11,21.11,0,0,0-6.37-7.39,26.23,26.23,0,0,0-9.21-4.13,46,46,0,0,0-11-1.27H845.13v49.72Z" transform="translate(0 0)"/><polygon points="926.62 227.19 926.62 221.15 1013.5 221.15 1013.5 227.19 973.48 227.19 973.48 334.57 966.49 334.57 966.49 227.19 926.62 227.19"/><path d="M1094.23,253.56a30.41,30.41,0,0,0-3.1-12.73,26.7,26.7,0,0,0-7.57-9.06,33,33,0,0,0-11.36-5.48,54,54,0,0,0-14.37-1.83,51.89,51.89,0,0,0-10.25,1.12,32.38,32.38,0,0,0-10.18,3.89,23.11,23.11,0,0,0-7.71,7.46,21.19,21.19,0,0,0-3,11.68q0,6.84,3.33,11.12a24.24,24.24,0,0,0,8.74,6.91,57.48,57.48,0,0,0,12.39,4.21q7,1.59,14.13,3,7.32,1.44,14.22,3.42a49,49,0,0,1,12.39,5.4,26.83,26.83,0,0,1,8.82,8.91q3.33,5.48,3.34,13.75,0,8.9-3.82,14.92a32.17,32.17,0,0,1-9.62,9.85,39.71,39.71,0,0,1-12.86,5.48,59.26,59.26,0,0,1-13.59,1.67,78.84,78.84,0,0,1-18.74-2.14,41.89,41.89,0,0,1-15.27-7,33.63,33.63,0,0,1-10.25-12.47q-3.74-7.63-3.57-18.59h7q-.48,9.39,2.7,15.81a28.56,28.56,0,0,0,8.81,10.57,36.66,36.66,0,0,0,13.27,5.95,68.77,68.77,0,0,0,16,1.83A51.09,51.09,0,0,0,1075,330a33.67,33.67,0,0,0,10.65-4.29,26.45,26.45,0,0,0,8.1-7.94q3.26-4.94,3.25-12.39,0-7.15-3.33-11.68a24.5,24.5,0,0,0-8.82-7.31,56.73,56.73,0,0,0-12.39-4.45q-6.9-1.67-14.21-3.1-7.15-1.43-14.14-3.33a48.45,48.45,0,0,1-12.39-5.17,26.61,26.61,0,0,1-8.74-8.41q-3.33-5.17-3.34-13.27a26.9,26.9,0,0,1,3.42-13.9,28,28,0,0,1,8.91-9.37,39.56,39.56,0,0,1,12.31-5.24,56.39,56.39,0,0,1,13.5-1.67,66.73,66.73,0,0,1,16.6,2,39.82,39.82,0,0,1,13.51,6.2,31.06,31.06,0,0,1,9.29,10.88,38.71,38.71,0,0,1,4,16Z" transform="translate(0 0)"/><path class="cls-8" d="M466.85,397.77c-11.37,0-20.59,6.18-20.59,13.81s9.22,13.8,20.59,13.8,20.6-6.18,20.6-13.8-9.22-13.81-20.6-13.81" transform="translate(0 0)"/><path class="cls-8" d="M1066.79,425.38c11.37,0,20.59-6.18,20.59-13.8s-9.22-13.81-20.59-13.81-20.59,6.18-20.59,13.81,9.22,13.8,20.59,13.8" transform="translate(0 0)"/><g class="cls-11"><text class="cls-12" transform="translate(527.54 440.23)">A</text><text class="cls-13" transform="translate(569.49 440.23)">W</text><text class="cls-14" transform="translate(630.04 440.23)">ASH <tspan class="cls-15" x="161.81" y="0">F</tspan><tspan x="197.47" y="0">ALLS</tspan></text></g></svg>