<svg id="Layer_1" data-name="Layer 1" xmlns="http://www.w3.org/2000/svg" xmlns:xlink="http://www.w3.org/1999/xlink" viewBox="0 0 1109.76 496.54"><defs><style>.cls-1{fill:none;}.cls-2{clip-path:url(#clip-path);}.cls-3{fill:#32c05c;}.cls-4{fill:#38a344;}.cls-5{fill:#ffe68b;}.cls-6{fill:#a82f2f;}.cls-7{fill:#18c6e0;}.cls-8{fill:#dc4da0;}.cls-9{fill:#6946a8;}.cls-10{fill:#c2884a;}.cls-11{fill:#a36f40;}.cls-12{fill:#b7428b;}.cls-13{font-size:163.09px;font-family:HelveticaNeue-Bold, HelveticaNeue Bold;font-weight:700;letter-spacing:0em;}.cls-14{font-size:160px;font-family:HelveticaNeue-Thin, HelveticaNeue Thin;font-weight:200;letter-spacing:0.01em;}</style><clipPath id="clip-path" transform="translate(0 0)"><rect class="cls-1" width="1200" height="496.54"/></clipPath></defs><g class="cls-2"><path class="cls-3" d="M299.19,119.93c-11.15-24.09-32-53.51-59.07-76.84S179.85,2.5,144,2.52a111.21,111.21,0,0,0-15.78,1.12c-41.78,6-73.12,28.89-94.13,61s-31.58,73.43-31.58,116a263.42,263.42,0,0,0,1.42,27.16A247.44,247.44,0,0,0,40.13,312.7c19.62,31.19,46.17,57,77.83,72.61l.54.27c.94.46,1.85.9,2.77,1.33a176.84,176.84,0,0,0,17.31,7c.84.29,1.67.57,2.49.83,3.56,1.17,6.92,2.14,10,3h0c.93.25,1.84.49,2.73.7s2,.48,2.9.69l.65.14.24.63c2.09,5.5,4,10.51,5.64,15,.38,1,.73,1.95,1.07,2.87q2.25,6.06,3.89,10.57c1.09,3,1.72,4.75,2.15,6s.63,2.07.84,3h0a64.15,64.15,0,0,1,1.88,14.2c0,5.52-1.06,11.59-4.77,16.57a45.88,45.88,0,0,1-3.49,4,13.86,13.86,0,0,0-2.51,3.41,5.71,5.71,0,0,0-.54,2.45v.29l0,.22a7.29,7.29,0,0,0,.15.84,8.72,8.72,0,0,0,1.05,2.61c.95,1.59,3.13,3.05,6.11,4.18a53.43,53.43,0,0,0,10.56,2.55,149.68,149.68,0,0,0,21,1.37l2.94,0,1.07,0c15.09-.51,26.13-2.2,34.38-4.32a68.5,68.5,0,0,0,17.83-7.08,36.11,36.11,0,0,0,7.93-5.86,17.42,17.42,0,0,0,4.49-7.39,16.15,16.15,0,0,0,.66-4.62,25,25,0,0,0-1-6.45c-6.88-26.4-9.76-35.11-10.08-36.06l0-.08,0-.05c-1.07-3.53-2.82-9.24-5-16.34-1.36-4.47-3.34-11.41-5.1-17.75a11.06,11.06,0,0,1-.57-2.87,3.69,3.69,0,0,1,.39-1.7v0a3.81,3.81,0,0,1,1.09-1.25l.15-.1v0l.11-.09.15-.06c24.33-10.19,42.34-30.69,54.3-56.94s17.84-58.18,17.84-91c0-38-7.86-77.1-23.08-109.94m-34.87,157.5c-4.38,16.89-13,35.91-27.55,50.8-.39.4-.78.81-1.2,1.2s-.79.79-1.2,1.18c-.82.78-1.65,1.55-2.51,2.29l-1,.91c-.83.71-1.69,1.4-2.56,2.1-.42.35-.87.68-1.31,1s-.89.67-1.34,1l-.68.49c-.23.16-.45.33-.68.48-.59.41-1.18.81-1.79,1.2s-1.21.8-1.82,1.18-1.2.73-1.8,1.08l-.12.06c-.61.37-1.23.72-1.86,1.06l-1.24.66-.24.13c-.46.24-.92.48-1.4.7a79.07,79.07,0,0,1-9.17,3.88l-.63.21c-.68.24-1.37.47-2.08.68-1.13.37-2.28.7-3.43,1l-1,.26c-1,.25-2,.49-3,.71l-.18,0s0,0,0,0c-.35.09-.72.17-1.08.23-1.87.38-3.79.71-5.74,1l-1.37.17c-1.15.14-2.32.27-3.5.36-1.56.13-3.16.22-4.77.27-.49,0-1,0-1.49,0s-1.34,0-2,0c-.86,0-1.74,0-2.61,0h-.07l-1.55,0c-9.8,0-20.16-3.19-30.47-8.86s-20.57-13.83-30.26-23.84q-1.68-1.74-3.33-3.55c-.51-.55-1-1.12-1.52-1.69-.85-1-1.72-1.95-2.56-2.95s-1.7-2-2.53-3Q97.28,307,95,304c-.52-.67-1-1.35-1.52-2-.66-.9-1.33-1.82-2-2.75s-1.2-1.69-1.78-2.54c-.3-.43-.6-.87-.89-1.31q-2.28-3.36-4.46-6.86c-.73-1.17-1.44-2.36-2.15-3.55h0c-.48-.8-.94-1.6-1.41-2.41s-.93-1.62-1.38-2.44c-1-1.77-2-3.57-2.92-5.38-.37-.7-.72-1.39-1.07-2.08q-1.22-2.4-2.38-4.83-.59-1.23-1.14-2.46c-1.2-2.59-2.34-5.21-3.44-7.86-.38-.91-.75-1.81-1.11-2.73-.64-1.64-1.27-3.29-1.87-4.95-.28-.75-.56-1.52-.82-2.29-.45-1.27-.89-2.55-1.32-3.85,0,0,0-.05,0-.07a151.13,151.13,0,0,1-7.27-27.85,233.45,233.45,0,0,1-3.47-39.69,186.36,186.36,0,0,1,2.79-33s0,0,0-.07a80.33,80.33,0,0,1,2.78-11.52A175.1,175.1,0,0,1,65,113C71,99.28,79.81,83.55,92.1,71.2c8.2-8.23,17.94-15,29.36-18.5a70.75,70.75,0,0,1,22.67-3.76A86.81,86.81,0,0,1,157.3,50c26.83,4.09,49,20.22,66.32,41.86s29.75,48.87,37.12,75.36,9.91,47.72,9.91,64.72c0,20.14-3.5,34.54-6.33,45.49" transform="translate(0 0)"/><path class="cls-4" d="M301.48,118.87c-11.33-24.44-32.37-54.09-59.73-77.69S180.68,0,144,0a113.21,113.21,0,0,0-16.13,1.15C85.36,7.21,53.31,30.66,32,63.27S0,137.66,0,180.63A259.87,259.87,0,0,0,1.45,208,249.86,249.86,0,0,0,38,314.05c19.82,31.51,46.7,57.62,78.86,73.53l2.15,1,2.75,1.29a174.82,174.82,0,0,0,16.77,6.64c.85.29,1.69.57,2.53.83,2.94,1,5.75,1.78,8.39,2.49l2.64.68c1.18.3,2.34.59,3.45.85q3.36,8.87,6,15.94h0c.35,1,.7,1.91,1,2.82,1.26,3.39,2.37,6.39,3.31,9,1.08,3,1.72,4.75,2.13,6a28.19,28.19,0,0,1,.79,2.78h0a61.55,61.55,0,0,1,1.82,13.64c0,5.22-1,10.71-4.26,15.06-1.34,1.8-3,3.32-4.43,5a13.66,13.66,0,0,0-1.85,2.81,8.14,8.14,0,0,0-.77,3.5v.32a11,11,0,0,0,1.6,4.95,10.14,10.14,0,0,0,3,3,20.62,20.62,0,0,0,4.33,2.18c4.85,1.86,11.11,2.86,17.1,3.42s11.7.68,15.38.68c2.53,0,4.09-.05,4.09-.05,15.25-.53,26.46-2.23,34.93-4.42a71.34,71.34,0,0,0,18.46-7.31,39.44,39.44,0,0,0,8.47-6.29,20,20,0,0,0,5.11-8.44,18.9,18.9,0,0,0,.75-5.33,27.63,27.63,0,0,0-1.07-7.08c-7.06-27-9.91-35.59-10.15-36.29,0,0,0,0,0,0-1.07-3.52-2.81-9.22-5-16.31-1.36-4.44-3.33-11.36-5.09-17.7a9.42,9.42,0,0,1-.47-2.19,1.37,1.37,0,0,1,.11-.57l.23-.29.14-.1,0,0c25-10.53,43.34-31.55,55.45-58.16s18-58.92,18.06-92c0-38.3-7.91-77.77-23.3-111m2.95,202c-12,26.25-30,46.75-54.3,56.94l-.15.07-.11.08v0l-.15.1a3.76,3.76,0,0,0-1.09,1.26h0a3.69,3.69,0,0,0-.39,1.7,11.06,11.06,0,0,0,.57,2.87c1.76,6.34,3.74,13.28,5.1,17.75,2.17,7.1,3.92,12.81,5,16.34l0,.05,0,.08c.32.95,3.2,9.66,10.08,36.06a25,25,0,0,1,1,6.45,16.15,16.15,0,0,1-.66,4.62,17.42,17.42,0,0,1-4.49,7.39,36.11,36.11,0,0,1-7.93,5.86,68.5,68.5,0,0,1-17.83,7.08c-8.25,2.12-19.29,3.81-34.38,4.32l-1.07,0-2.94,0a149.68,149.68,0,0,1-21-1.37,53.26,53.26,0,0,1-10.56-2.55c-3-1.13-5.16-2.59-6.11-4.18a8.72,8.72,0,0,1-1.05-2.61,7.29,7.29,0,0,1-.15-.84l0-.22v-.29a5.71,5.71,0,0,1,.54-2.45,13.64,13.64,0,0,1,2.51-3.4,47.65,47.65,0,0,0,3.49-4c3.71-5,4.77-11,4.77-16.57a64.15,64.15,0,0,0-1.88-14.2h0c-.21-.93-.43-1.72-.84-3s-1.06-3.05-2.15-6-2.39-6.53-3.89-10.57c-.34-.92-.69-1.88-1.07-2.87-1.66-4.47-3.55-9.48-5.64-15l-.24-.63-.65-.14c-.93-.21-1.9-.44-2.9-.69s-1.8-.45-2.73-.7h0c-3.12-.82-6.48-1.79-10-3-.82-.26-1.65-.54-2.49-.83a175.84,175.84,0,0,1-17.31-7c-.92-.43-1.83-.87-2.77-1.33l-.54-.27C86.3,369.66,59.75,343.89,40.13,312.7A247.44,247.44,0,0,1,3.94,207.79a260.64,260.64,0,0,1-1.42-27.16c0-42.56,10.58-83.87,31.58-116s52.35-55,94.13-61A111.21,111.21,0,0,1,144,2.52c35.84,0,69.05,17.21,96.11,40.57S288,95.84,299.19,119.93c15.22,32.84,23.08,72,23.08,109.94,0,32.82-5.87,64.76-17.84,91" transform="translate(0 0)"/><path class="cls-4" d="M260.74,167.22c-7.37-26.49-19.82-53.7-37.12-75.36S184.13,54.09,157.3,50a86.81,86.81,0,0,0-13.17-1.06,70.81,70.81,0,0,0-22.67,3.76C110,56.25,100.29,63,92.1,71.2,79.81,83.55,71,99.28,65,113a175.1,175.1,0,0,0-6.8,18.49A81.75,81.75,0,0,0,55.43,143s0,0,0,.07a187.31,187.31,0,0,0-2.79,33,233.45,233.45,0,0,0,3.47,39.69,150.78,150.78,0,0,0,7.27,27.84.41.41,0,0,1,0,.08c.43,1.3.87,2.58,1.32,3.85.26.77.54,1.54.82,2.29.6,1.66,1.23,3.31,1.87,4.95.37.92.73,1.82,1.11,2.73q1.62,4,3.44,7.86.56,1.23,1.14,2.46,1.17,2.43,2.38,4.83c.35.69.7,1.38,1.07,2.08.94,1.81,1.92,3.61,2.92,5.38.45.82.92,1.64,1.38,2.44s.93,1.61,1.41,2.41h0c.71,1.19,1.42,2.38,2.15,3.55,1.45,2.33,2.92,4.62,4.46,6.86.29.44.59.88.89,1.31.58.85,1.17,1.69,1.78,2.54s1.32,1.85,2,2.75c.5.68,1,1.36,1.52,2,1.49,2,3,3.93,4.58,5.81.83,1,1.67,2,2.53,3s1.71,2,2.56,2.95c.51.57,1,1.14,1.53,1.69q1.64,1.82,3.32,3.55c9.69,10,20,18.17,30.26,23.84s20.67,8.86,30.47,8.86l1.55,0h.07c.87,0,1.75,0,2.61,0,.68,0,1.36,0,2,0s1,0,1.49,0c1.61,0,3.21-.14,4.77-.27,1.18-.09,2.35-.22,3.49-.36l1.38-.17c2-.25,3.87-.58,5.73-1,.37-.06.73-.14,1.09-.23,0,0,0,0,0,0l.18,0c1-.22,2-.46,3-.71l1-.26c1.16-.3,2.31-.63,3.44-1,.7-.21,1.4-.44,2.08-.68l.63-.21A79.07,79.07,0,0,0,214,345c.48-.22.94-.46,1.4-.7l.24-.13,1.24-.66c.63-.34,1.25-.69,1.86-1.06l.12-.06c.6-.35,1.2-.72,1.8-1.08s1.22-.77,1.82-1.18,1.2-.79,1.79-1.2l.68-.48.68-.49c.45-.33.9-.66,1.34-1s.88-.65,1.31-1c.87-.7,1.73-1.39,2.56-2.1l1-.91c.86-.74,1.69-1.51,2.51-2.29.41-.39.81-.78,1.2-1.18s.81-.8,1.2-1.2c14.5-14.89,23.17-33.91,27.55-50.8,2.83-10.95,6.33-25.35,6.33-45.49,0-17-2.48-38.1-9.91-64.72m1.14,109.58c-4.3,16.55-12.82,35.21-26.91,49.67s-33.69,24.78-60.45,24.79c-.87,0-1.74,0-2.63,0h-.08c-.5,0-1,0-1.52,0-9.25,0-19.22-3-29.25-8.55-15-8.28-30.25-22.16-43.48-39.51a208.3,208.3,0,0,1-31.8-60.36v-.07c-2.47-6.23-5.14-15.86-7.16-27.43a229.45,229.45,0,0,1-3.44-39.25A184.24,184.24,0,0,1,57.9,143.5v-.07a102.32,102.32,0,0,1,4.48-16.68c4-11.67,10.74-27.08,20.59-40.81s22.81-25.75,39.24-30.82a67.75,67.75,0,0,1,21.91-3.66,84.67,84.67,0,0,1,12.79,1c26,4,47.7,19.63,64.74,40.95S251,141.67,258.33,167.9c7.36,26.42,9.8,47.29,9.8,64,0,19.85-3.42,33.95-6.25,44.86" transform="translate(0 0)"/><path class="cls-5" d="M268.13,231.94c0,19.85-3.42,33.95-6.25,44.86-4.3,16.55-12.82,35.21-26.91,49.67s-33.69,24.78-60.45,24.79c-.87,0-1.74,0-2.63,0h-.08c-.5,0-1,0-1.52,0-9.25,0-19.22-3-29.25-8.55-15-8.28-30.25-22.16-43.48-39.51a208.3,208.3,0,0,1-31.8-60.36v-.07c-2.47-6.23-5.13-15.86-7.16-27.43a229.45,229.45,0,0,1-3.44-39.25A184.24,184.24,0,0,1,57.9,143.5v-.07a102.32,102.32,0,0,1,4.48-16.68c4-11.67,10.74-27.08,20.59-40.81s22.81-25.75,39.24-30.82a67.75,67.75,0,0,1,21.91-3.66,84.67,84.67,0,0,1,12.79,1c26,4,47.7,19.63,64.74,40.95S251,141.67,258.33,167.9c7.36,26.42,9.8,47.29,9.8,64" transform="translate(0 0)"/><path class="cls-6" d="M206.1,249.35a5.4,5.4,0,0,1-5.94-.75l-.07,0h0a8.35,8.35,0,0,1-2.09-2.41,8.06,8.06,0,0,1-1.11-4.34s0-.08,0-.12a5,5,0,0,1,2.36-4.16c2.58-1.49,6.21,0,8.1,3.21s1.32,7.14-1.26,8.63" transform="translate(0 0)"/><path class="cls-6" d="M244.28,446.62a5.4,5.4,0,0,1-5.94-.75l-.07-.05h0a8.35,8.35,0,0,1-2.09-2.41,8.15,8.15,0,0,1-1.11-4.34s0-.08,0-.12a5,5,0,0,1,2.37-4.16c2.57-1.49,6.2,0,8.09,3.21s1.32,7.14-1.26,8.63" transform="translate(0 0)"/><path class="cls-6" d="M240.92,204.27c-4.48.07-8.18,4.14-8.23,9s3.51,8.79,8.24,8.78c4.9,0,8.49-3.8,8.47-9,0-4.66-4.1-8.93-8.48-8.87" transform="translate(0 0)"/><path class="cls-7" d="M180.05,193.79a4.64,4.64,0,0,0-5.12,3.29,7,7,0,0,0,.58,6.35,4.28,4.28,0,0,0,4,2.1,4.21,4.21,0,0,0,4-2.72,13.32,13.32,0,0,0,.59-2.57c0-3.51-1.77-6-4.07-6.45" transform="translate(0 0)"/><polygon points="142.28 71.8 142.31 71.77 142.18 71.68 142.28 71.8"/><path class="cls-7" d="M240.73,298.1c0-2.44-3-4.41-6.62-4.41s-6.61,2-6.61,4.41,3,4.41,6.61,4.41,6.62-2,6.62-4.41" transform="translate(0 0)"/><path class="cls-8" d="M116.84,91.18c0-2.43-3.29-4.41-7.35-4.41s-7.35,2-7.35,4.41,3.29,4.41,7.35,4.41,7.35-2,7.35-4.41" transform="translate(0 0)"/><path class="cls-7" d="M221.62,110.72c0-4.47-2.3-8.09-5.14-8.09s-5.14,3.62-5.14,8.09,2.3,8.08,5.14,8.08,5.14-3.62,5.14-8.08" transform="translate(0 0)"/><path class="cls-9" d="M166.56,70.05c0-3.65-2.59-6.61-5.79-6.61s-5.8,3-5.8,6.61,2.6,6.61,5.8,6.61,5.79-3,5.79-6.61" transform="translate(0 0)"/><path class="cls-6" d="M96.27,122.86c0-3.25-3.62-5.88-8.08-5.88s-8.08,2.63-8.08,5.88,3.62,5.88,8.08,5.88,8.08-2.63,8.08-5.88" transform="translate(0 0)"/><path class="cls-7" d="M98.17,160a5.88,5.88,0,1,0-5.88,5.88A5.88,5.88,0,0,0,98.17,160" transform="translate(0 0)"/><path class="cls-9" d="M77,199.27c0-2.28-2.9-4.13-6.48-4.13S64,197,64,199.27s2.9,4.13,6.48,4.13S77,201.55,77,199.27" transform="translate(0 0)"/><path class="cls-8" d="M252.26,253.43c0-3.24-4.94-5.87-11-5.87s-11,2.63-11,5.87,4.94,5.88,11,5.88,11-2.63,11-5.88" transform="translate(0 0)"/><path class="cls-8" d="M235.87,148.38c0-2.66-3.59-4.81-8-4.81s-8,2.15-8,4.81,3.59,4.81,8,4.81,8-2.15,8-4.81" transform="translate(0 0)"/><path class="cls-9" d="M215,181.51c0-5.44-3.13-9.85-7-9.85s-7,4.41-7,9.85,3.13,9.85,7,9.85,7-4.41,7-9.85" transform="translate(0 0)"/><path class="cls-9" d="M222.21,461.33c6.25-4.73,8.56-12.2,5.17-16.68s-11.2-4.28-17.45.45-8.57,12.19-5.18,16.67,11.21,4.28,17.46-.44" transform="translate(0 0)"/><path class="cls-9" d="M228.77,432.55c3.68-4.11,2-11.64-3.8-16.82s-13.44-6-17.12-1.93-2,11.63,3.8,16.81,13.45,6,17.12,1.94" transform="translate(0 0)"/><path class="cls-5" d="M246.35,359.49c0-3-3.93-5.39-8.79-5.39s-8.78,2.41-8.78,5.39,3.93,5.39,8.78,5.39,8.79-2.41,8.79-5.39" transform="translate(0 0)"/><path class="cls-9" d="M297.9,267.47c3.87-6.17,3.42-13.42-1-16.19s-11.14,0-15,6.15-3.42,13.42,1,16.19,11.14,0,15-6.15" transform="translate(0 0)"/><path class="cls-7" d="M294,257.91c2.11-4.52,2.18-9,.16-9.9s-5.36,2-7.48,6.48-2.18,8.95-.16,9.89,5.37-1.95,7.48-6.47" transform="translate(0 0)"/><path class="cls-8" d="M303,195.79c0-3.21-4.4-5.81-9.84-5.81s-9.83,2.6-9.83,5.81,4.4,5.81,9.83,5.81S303,199,303,195.79" transform="translate(0 0)"/><path class="cls-6" d="M264.92,106.21c0-2.88-4.51-5.22-10.08-5.22s-10.07,2.34-10.07,5.22,4.51,5.23,10.07,5.23,10.08-2.34,10.08-5.23" transform="translate(0 0)"/><path class="cls-5" d="M245.15,62c0-4.26-4.46-7.72-10-7.72s-9.95,3.46-9.95,7.72,4.45,7.73,9.95,7.73,10-3.46,10-7.73" transform="translate(0 0)"/><path class="cls-5" d="M118.38,40.22c0-2.87-3.92-5.19-8.75-5.19s-8.75,2.32-8.75,5.19,3.91,5.19,8.75,5.19,8.75-2.32,8.75-5.19" transform="translate(0 0)"/><path class="cls-5" d="M69.44,71.7C69.44,68,66.09,65,62,65s-7.48,3-7.48,6.74,3.35,6.73,7.48,6.73,7.48-3,7.48-6.73" transform="translate(0 0)"/><path class="cls-6" d="M278.73,329.77c0-3.72-3.35-6.73-7.48-6.73s-7.48,3-7.48,6.73,3.35,6.73,7.48,6.73,7.48-3,7.48-6.73" transform="translate(0 0)"/><path class="cls-8" d="M39,125.8c0-4.62-2.81-8.36-6.29-8.36s-6.29,3.74-6.29,8.36,2.82,8.37,6.29,8.37S39,130.42,39,125.8" transform="translate(0 0)"/><path class="cls-9" d="M43.25,144.75c2.13-3.67,2-7.73-.33-9.06s-5.89.57-8,4.24-2,7.74.33,9.07,5.89-.57,8-4.25" transform="translate(0 0)"/><path class="cls-5" d="M52.78,246.72c0-2.75-4.49-5-10-5s-10,2.23-10,5,4.49,5,10,5,10-2.23,10-5" transform="translate(0 0)"/><path class="cls-9" d="M69.4,302.75c0-4.52-4.25-8.18-9.5-8.18s-9.5,3.66-9.5,8.18,4.26,8.19,9.5,8.19,9.5-3.67,9.5-8.19" transform="translate(0 0)"/><path class="cls-8" d="M123.09,34.83a7.6,7.6,0,1,0-7.6,7.6,7.59,7.59,0,0,0,7.6-7.6" transform="translate(0 0)"/><path class="cls-9" d="M196.83,38c0-4.19-4.53-7.59-10.12-7.59s-10.12,3.4-10.12,7.59,4.53,7.59,10.12,7.59,10.12-3.4,10.12-7.59" transform="translate(0 0)"/><path class="cls-6" d="M37.4,189.65c0-4.59-4.47-8.31-10-8.31s-10,3.72-10,8.31,4.46,8.31,10,8.31,10-3.72,10-8.31" transform="translate(0 0)"/><path class="cls-8" d="M63.86,294c0-2.9-3.89-5.26-8.7-5.26s-8.69,2.36-8.69,5.26,3.89,5.26,8.69,5.26,8.7-2.35,8.7-5.26" transform="translate(0 0)"/><path class="cls-9" d="M220.13,381.42c-4.63-3.49-12.5-.84-17.58,5.91s-5.44,15-.81,18.53,12.5.83,17.57-5.92,5.45-15,.82-18.52" transform="translate(0 0)"/><path class="cls-8" d="M224.33,398c3.85-3.86,5.07-8.88,2.72-11.23s-7.37-1.13-11.22,2.73-5.07,8.88-2.73,11.22,7.38,1.13,11.23-2.72" transform="translate(0 0)"/><path class="cls-7" d="M236.32,419.56c0-2.48-3.76-4.49-8.4-4.49s-8.39,2-8.39,4.49,3.76,4.49,8.39,4.49,8.4-2,8.4-4.49" transform="translate(0 0)"/><path class="cls-8" d="M202.37,400.11c0-5.33-2.92-9.65-6.52-9.65s-6.51,4.32-6.51,9.65,2.91,9.65,6.51,9.65,6.52-4.32,6.52-9.65" transform="translate(0 0)"/><path class="cls-6" d="M192.48,432.28c-4.95-4.95-6.93-11-4.42-13.5s8.56-.54,13.51,4.41,6.93,11,4.42,13.51-8.56.53-13.51-4.42" transform="translate(0 0)"/><path class="cls-5" d="M214.52,461.7a9.45,9.45,0,1,0-9.44,9.44,9.44,9.44,0,0,0,9.44-9.44" transform="translate(0 0)"/><path class="cls-9" d="M292,146.92c1.94-3.36,1.95-7,0-8.1s-5.07.71-7,4.07-1.95,7,0,8.1,5.07-.71,7-4.07" transform="translate(0 0)"/><path class="cls-7" d="M285.78,139.86c0-4.51-2.88-8.17-6.44-8.17s-6.43,3.66-6.43,8.17,2.88,8.17,6.43,8.17,6.44-3.66,6.44-8.17" transform="translate(0 0)"/><path class="cls-10" d="M178.61,358.8c-.14,3.84-.43,8.3-1,13.27-.78,7.1-1.45,13.12-3.29,19.67-4.54,16.3-14,27.61-23.32,38.8-4.19,5-7.9,8.9-10.33,11.34a54.84,54.84,0,0,1,6.16,17.33,78.67,78.67,0,0,1,.93,19.77,85.17,85.17,0,0,1-2.27,14,12.27,12.27,0,0,1-2.26-1.34c-2.24-1.69-3.32-3.78-5.15-7.08-2-3.58-2.73-5.79-3.85-11.11-2.2-10.43-3.1-14.44-3.5-21.63-2.64,2.92-4.88,4.64-6.43,6.4a3.79,3.79,0,0,0-.94,3c.66,5,1.77,6,2.53,19,.19,3.33-.87,9.26-3.4,12.62a12.25,12.25,0,0,1-2.56-.91,46.3,46.3,0,0,0-9.11-25.17c-.59-.7-3.73-3-4.74-4.3a4.59,4.59,0,0,1-1-3.79,5.76,5.76,0,0,1,.89-3,8.29,8.29,0,0,1,3.7-2.52c4.75-2.17,8-5.81,11.07-9.11,2.74-3,7.32-8.92,7.3-11.1,0-1.9-.64-6.82-.69-7.13-1.46-8.23-2.31-13.67-4.34-27.4-1.91-13-4-25.47-6-34.05a51.14,51.14,0,0,0,21.08,4c1,0,2,0,2.89-.05-.48,3.25-.9,6.61-1.27,10.1-.63,6-1,11.64-1.19,17l.08,22.75L153,399.41l8.8-10c-.82-1.82-3.35-14.63-5.06-22.72a80.25,80.25,0,0,0,20.52-7.15l1.38-.73" transform="translate(0 0)"/><path class="cls-11" d="M161.77,389.4l-8.8,10-14.36,18.67-.08-22.75c.18-5.32.56-11,1.19-17,.37-3.49.79-6.85,1.27-10.1.43,0,.86,0,1.29,0s.85,0,1.28-.05c-.53,3.48-1,7-1.33,10.46-.6,5.55-1,11.17-1.19,16.75l.07,15.34L151,397.87l.05-.06.05-.06,7.86-8.94c-.77-2.74-1.92-8.19-3.53-16-.41-2-.81-4-1.18-5.71l1.25-.22,1.23-.22c1.71,8.09,4.24,20.9,5.06,22.72" transform="translate(0 0)"/><path class="cls-11" d="M181.17,357.29c-.13,5-.47,10.06-1,15.06-.79,7.15-1.47,13.31-3.36,20.07a80.78,80.78,0,0,1-12.43,25.3c-.28.41-.58.83-.88,1.23s-.59.82-.91,1.22c-3.08,4.17-6.35,8.09-9.59,12-2.93,3.51-6,6.92-9.18,10.18a58.93,58.93,0,0,1,3.23,7.5,59.64,59.64,0,0,1,2.3,8.92,80.81,80.81,0,0,1,1,20.41A85.69,85.69,0,0,1,148,493.6l-.74,2.94-2.75-1.27a15.08,15.08,0,0,1-2.74-1.62c-2.56-1.94-3.82-4.24-5.57-7.41l-.25-.46c-2.08-3.78-2.93-6.21-4.1-11.8l-.29-1.33c-1.46-6.9-2.31-10.9-2.81-15.22a1.45,1.45,0,0,0-.18.17c-.91.85-1.69,1.58-2.31,2.29a1.19,1.19,0,0,0-.33,1c.19,1.45.42,2.53.68,3.77.62,2.92,1.32,6.25,1.86,15.41.24,4.08-1,10.47-3.9,14.27l-1,1.32-1.6-.38a13.54,13.54,0,0,1-3.23-1.18l-1.2-.69-.06-1.37a40.29,40.29,0,0,0-3.74-15.47,38.92,38.92,0,0,0-4.76-8.17c-.17-.19-.89-.78-1.41-1.22a25.13,25.13,0,0,1-3.43-3.21c-.58-.71-1.76-2.21-1.49-5.51a7.94,7.94,0,0,1,1.4-4.3,10.06,10.06,0,0,1,4.47-3.21l.17-.06c4.21-1.94,7.21-5.2,10.12-8.37l.16-.18c3.34-3.64,6.41-8.19,6.64-9.42,0-1.68-.58-6.17-.66-6.66-1.47-8.34-2.33-13.73-4.35-27.47q-.79-5.34-1.56-10.16c-.18-1-.34-2.05-.51-3-1.58-9.57-3.08-17.29-4.41-22.65.5.27,1,.52,1.5.76s1,.46,1.43.67c.87,3.75,1.77,8.27,2.67,13.24.12.7.25,1.42.38,2.15.4,2.3.8,4.71,1.2,7.16.17,1,.33,2,.49,3,.44,2.78.87,5.63,1.3,8.5,2,13.73,2.88,19.17,4.34,27.4,0,.31.67,5.23.69,7.13,0,2.18-4.56,8.12-7.3,11.1-3,3.3-6.32,6.94-11.07,9.11a8.29,8.29,0,0,0-3.7,2.52,5.76,5.76,0,0,0-.89,3,4.59,4.59,0,0,0,1,3.79c1,1.27,4.15,3.6,4.74,4.3A42.29,42.29,0,0,1,116,475.5a42.87,42.87,0,0,1,4,16.41,12.25,12.25,0,0,0,2.56.91c2.53-3.36,3.59-9.29,3.4-12.62-.76-13-1.87-14-2.53-19a3.78,3.78,0,0,1,.94-3c1.55-1.76,3.79-3.48,6.43-6.4.4,7.18,1.3,11.2,3.5,21.63,1.12,5.32,1.87,7.53,3.85,11.11,1.83,3.3,2.91,5.39,5.15,7.08a12.27,12.27,0,0,0,2.26,1.34,85.17,85.17,0,0,0,2.27-14,78.67,78.67,0,0,0-.93-19.77,54.84,54.84,0,0,0-6.16-17.33c2.43-2.44,6.14-6.32,10.33-11.34,3.58-4.28,7.18-8.6,10.5-13.19h0c.29-.42.59-.82.88-1.23a.7.7,0,0,0,.1-.16c.28-.36.53-.73.77-1.1.59-.85,1.16-1.69,1.7-2.56s1.11-1.75,1.63-2.64l.12-.19c1-1.72,2-3.5,2.88-5.33.24-.48.46-1,.69-1.45s.45-1,.67-1.47.41-1,.61-1.44c.44-1.06.86-2.13,1.25-3.23.18-.51.35-1,.52-1.51.1-.28.18-.56.26-.83s.2-.63.3-.95c.15-.5.3-1,.44-1.51,1.84-6.55,2.51-12.57,3.29-19.67.54-5,.83-9.43,1-13.27l1.28-.74c.42-.24.84-.5,1.28-.77" transform="translate(0 0)"/><path class="cls-8" d="M206.68,312.79c0,6.61-1.45,23.17-15.67,34.43-3.44,2.73-6.78,5.13-9.77,7.06-.43.29-.86.55-1.27.82l-1.26.75c-.92.54-1.8,1-2.62,1.44a77.28,77.28,0,0,1-19.91,6.92l-1.23.24-1.25.21a70.93,70.93,0,0,1-8,.89c-.55,0-1.12.07-1.7.08l-1.28.06c-.43,0-.86,0-1.3.05-7.59.27-16.33-.08-25.11-4.5-.5-.25-1-.53-1.51-.81l-.11-.06c-.5-.28-1-.57-1.46-.87-13.29-8.23-18.36-22.28-22.45-33.66-5.74-16-6.2-30.3-6-41,.59-25.8,6.59-52.14,17.87-78.45a80.29,80.29,0,0,0,3.22,9.41l.51,1.27c4.41,10.75,11.78,28.73,24.81,28.74,13.84,0,24.85-16.89,28.3-22.84,3.6,3.78,8,9.45,13.58,16.75a181.27,181.27,0,0,1,24.42,38.5c5.85,12.72,9.16,24.79,9.2,34.59" transform="translate(0 0)"/><path class="cls-12" d="M209.2,312.79V313c0,7.06-1.65,24.39-16.63,36.25a122,122,0,0,1-11.4,8.09c-.44.27-.87.53-1.28.76s-.87.51-1.28.75l-1.38.73a79.8,79.8,0,0,1-20.52,7.14l-1.23.23-1.25.22a69.31,69.31,0,0,1-8.46.95c-.71,0-1.46.08-2.21.1-.43,0-.86,0-1.28.05s-.86,0-1.29,0c-.94,0-1.9.05-2.89.05a51.14,51.14,0,0,1-21.08-4c-.48-.21-1-.43-1.44-.67s-1-.49-1.49-.77c-.23-.11-.46-.23-.68-.36-15.2-8.54-20.89-24.34-25-35.87-5.87-16.34-6.35-31-6.1-41.93.61-27.1,7.12-54.79,19.38-82.41q.21,1,.48,2c.16.67.34,1.32.52,2C91.36,232.68,85.36,259,84.77,284.82c-.24,10.72.22,25.06,6,41,4.09,11.38,9.16,25.43,22.45,33.66.48.3,1,.59,1.46.87l.11.06c.51.28,1,.56,1.51.81,8.78,4.42,17.52,4.77,25.11,4.5.44,0,.87,0,1.3-.05l1.28-.06c.58,0,1.15-.05,1.7-.08a70.93,70.93,0,0,0,8-.89l1.25-.21,1.23-.24a77.28,77.28,0,0,0,19.91-6.92c.82-.42,1.7-.9,2.62-1.44l1.25-.75c.42-.27.85-.53,1.28-.82,3-1.93,6.33-4.33,9.77-7.06,14.22-11.26,15.7-27.82,15.67-34.43,0-9.8-3.35-21.87-9.2-34.59a181.27,181.27,0,0,0-24.42-38.5c-5.62-7.3-10-13-13.58-16.75.26-.45.48-.83.64-1.14s.29-.52.36-.67l.26-.49c3.82,3.89,8.33,9.74,14.28,17.48,15.7,19.13,34.09,50.18,34.18,74.66" transform="translate(0 0)"/><path d="M196.16,132c-3.82,16.95-19.34,31-36.75,31.82a36.88,36.88,0,0,1-8.67-.62A14.94,14.94,0,0,1,153,159.3a38.09,38.09,0,0,1,7.52-7.18c1-.76,1.93-1.53,3-2.43,3.73-3.14,7.58-6.34,10.06-11.69,1-2.05,3.88-8.31,1.7-15.76-.85-2.91-3.57-9.93-10.34-12.08a13.3,13.3,0,0,0-4-.6,17.35,17.35,0,0,0-8,2.12c-15.23,8-18.28,36.33-18.3,36.61a7.67,7.67,0,0,1-.66,2.13,8,8,0,0,1-1.58,2.35c-9.09-10.68-10.32-26.75-5.7-39.17,6-16,21.73-26.53,34.57-26.19,6.62.17,15.94,1,25.85,9.68,9.24,8.13,11.71,23.06,9,34.93" transform="translate(0 0)"/><path class="cls-11" d="M150.72,163.29a.19.19,0,0,0,0-.07A14.94,14.94,0,0,1,153,159.3a38.38,38.38,0,0,1,7.52-7.18c1-.76,1.93-1.53,3-2.43,3.73-3.14,7.58-6.34,10.06-11.69,1-2.05,3.88-8.31,1.7-15.76-.85-2.9-3.57-9.93-10.34-12.08a13.3,13.3,0,0,0-4-.6,17.35,17.35,0,0,0-8,2.12c-15.23,8-18.28,36.33-18.3,36.61a7.83,7.83,0,0,1-.65,2.13,8.23,8.23,0,0,1-1.59,2.35,15.14,15.14,0,0,1-2.4,2l-.61.44-.88.69c-1.5,1.18-1.72,1.36-11.68,8.66-2.21,1.63-4,2.95-5.55,4-6,4.34-7.42,5.38-9.45,8.35-3.71,5.44-2.26,12.69-1.92,14.13a82.09,82.09,0,0,0,1.72,11.22q.21,1,.48,2c.16.67.34,1.32.52,2a79.66,79.66,0,0,0,3.22,9.41l.51,1.27c4.41,10.75,11.78,28.73,24.81,28.74,13.84,0,24.85-16.88,28.3-22.84.26-.45.48-.83.64-1.14s.29-.52.36-.67l.26-.49c8.29-15.93,8-26.53,7.76-29.42-.83-8.66-8.47-17.81-15.06-20.93-.53-.25-1.06-.48-1.56-.69a10.21,10.21,0,0,1-2.39-1.26v-.08a19.84,19.84,0,0,1,1.23-5m1.64,9.29c6,2.82,12.89,11.21,13.64,18.89.74,7.85-2.73,18.65-7.16,27.37-.19.39-.38.75-.58,1.13h0c-.17.36-.39.75-.61,1.15-4.13,7.32-14.66,22.15-26.44,22.15h0c-11.82,0-18.84-18.38-23-28.46a79.35,79.35,0,0,1-3.92-12.19c-.16-.71-.31-1.38-.45-2s-.28-1.42-.4-2.12a77.32,77.32,0,0,1-1-7.74s-1.94-7.24,1.51-12.3c2.24-3.29,3.62-3.85,14.42-11.78,11.58-8.51,10-7.39,12.61-9.39a22.11,22.11,0,0,0,3.18-2.62,11.06,11.06,0,0,0,2.17-3.18,10.61,10.61,0,0,0,.87-3c.13-1.95,3.55-27.57,16.93-34.56a15.33,15.33,0,0,1,6.89-1.85,10.64,10.64,0,0,1,3.22.49c6.23,2,8.36,9.24,8.7,10.39,1.91,6.54-.71,12.14-1.56,14-2.26,4.85-5.76,7.75-9.41,10.81-4.26,3.56-7.23,5.31-10.89,10a17.06,17.06,0,0,0-2.68,4.65,1.25,1.25,0,0,0-.1.27A22.76,22.76,0,0,0,147,168c-.29,2.56,2.48,3.21,5.38,4.58" transform="translate(0 0)"/><path class="cls-10" d="M148.27,162.66a1.57,1.57,0,0,1,.1-.28,17.14,17.14,0,0,1,2.68-4.64c3.66-4.68,6.63-6.43,10.89-10,3.65-3.06,7.15-6,9.4-10.81.86-1.85,3.48-7.45,1.57-14-.34-1.15-2.47-8.41-8.7-10.39a10.64,10.64,0,0,0-3.22-.49,15.33,15.33,0,0,0-6.89,1.85c-13.38,7-16.8,32.61-16.93,34.56a10.61,10.61,0,0,1-.87,3,11.06,11.06,0,0,1-2.17,3.18,22.11,22.11,0,0,1-3.18,2.62c-2.57,2-1,.88-12.61,9.39-10.8,7.93-12.18,8.49-14.42,11.78-3.45,5.06-1.51,12.3-1.51,12.3a77.32,77.32,0,0,0,1,7.74c.12.7.25,1.4.4,2.12s.29,1.34.45,2a79.35,79.35,0,0,0,3.92,12.19c4.15,10.08,11.17,28.44,23,28.46h0c11.78,0,22.31-14.83,26.44-22.15.22-.4.44-.8.61-1.15h0c.2-.38.39-.74.58-1.13,4.43-8.72,7.9-19.52,7.16-27.37-.75-7.68-7.67-16.07-13.64-18.89-2.9-1.37-5.67-2-5.38-4.58a22.76,22.76,0,0,1,1.29-5.34m-6.15,47c-1.74,6.84-6.17,13.93-10.53,13.93s-9.12-6.12-11.4-14.86c0,0-1.33-3.79-2.16-17.82a2.33,2.33,0,0,1,.47-1.65,3.37,3.37,0,0,1,2.73-.86l19.16-.27a3.23,3.23,0,0,1,2.44.64,2.81,2.81,0,0,1,1,2.28c0,10.68-.83,15.4-1.67,18.61" transform="translate(0 0)"/><path class="cls-12" d="M142.83,188.8a3.23,3.23,0,0,0-2.44-.64l-19.16.27a3.37,3.37,0,0,0-2.73.86,2.33,2.33,0,0,0-.47,1.65c.83,14,2.13,17.78,2.16,17.82,2.28,8.74,7,14.86,11.4,14.86s8.78-7.09,10.53-13.93c.83-3.21,1.67-7.93,1.67-18.61a2.81,2.81,0,0,0-1-2.28m-3.13,20.26c-1.75,6.78-5.79,12-8.11,12-2.7,0-6.77-4.55-9-13.08,0,0-1.23-3.7-2-17a5.51,5.51,0,0,1,.69,0l19.25-.28h.18a.84.84,0,0,1,.53.06.79.79,0,0,1,.06.36c0,10.39-.79,14.92-1.57,18" transform="translate(0 0)"/><path class="cls-8" d="M141.27,191.08c0,10.39-.79,14.92-1.57,18-1.75,6.78-5.79,12-8.11,12-2.7,0-6.77-4.55-9-13.09,0,0-1.23-3.69-2-17a5.51,5.51,0,0,1,.69,0l19.25-.28h.18a.84.84,0,0,1,.53.06.79.79,0,0,1,.06.36" transform="translate(0 0)"/><rect x="405.82" y="80.69" width="7.17" height="335.29"/><text class="cls-13" transform="translate(471.63 226.77)">BOSTON</text></g><text class="cls-14" transform="translate(473.61 386.54)"><tspan xml:space="preserve">DAY  SPA</tspan></text></svg>