<svg id="Layer_1" data-name="Layer 1" xmlns="http://www.w3.org/2000/svg" viewBox="0 0 1116.11309 494.30858"><defs><style>.cls-1{fill:#32c05c;}.cls-2{fill:#38a344;}.cls-3{fill:#ffe68b;}.cls-4{fill:#a82f2f;}.cls-5{fill:#18c6e0;}.cls-6{fill:#dc4da0;}.cls-7{fill:#6946a8;}.cls-8{fill:#c2884a;}.cls-9{fill:#a36f40;}.cls-10{fill:#b7428b;}</style></defs><rect x="378.63965" y="48.61159" width="7.17999" height="365.13699"/><g id="BG"><path class="cls-1" d="M325.0116,121.61592C313.91376,97.63713,293.14315,68.32285,266.21089,45.122S206.21917,4.72365,170.51606,4.73742a111.59011,111.59011,0,0,0-15.70359,1.11529c-41.56873,5.94822-72.77626,28.736-93.68454,60.72835s-31.4416,73.09983-31.4416,115.46718a261.92331,261.92331,0,0,0,1.41132,27.02863A246.37626,246.37626,0,0,0,67.13123,313.515c19.5245,31.0423,45.96106,56.7009,77.4784,72.28747l.537.2685c.92941.46125,1.845.90187,2.75381,1.32182a173.89392,173.89392,0,0,0,17.2113,6.98091c.83991.28914,1.66606.56454,2.4853.82615,3.54552,1.16349,6.88452,2.12734,9.99632,2.9466h0c.92252.24783,1.82439.48881,2.7125.68845s1.9552.475,2.88461.68845l.654.1377.23407.62647c2.06536,5.47321,3.9586,10.45759,5.61088,14.905.37864.99137.72976,1.94144,1.0671,2.85709,1.487,4.02058,2.79511,7.573,3.86909,10.51957s1.71424,4.73655,2.14108,6.00328a28.76447,28.76447,0,0,1,.83991,2.981h0a64.025,64.025,0,0,1,1.8657,14.127c0,5.50761-1.05333,11.53846-4.74344,16.52285a47.93392,47.93392,0,0,1-3.44226,3.94481,13.43814,13.43814,0,0,0-2.506,3.39407,5.61777,5.61777,0,0,0-.54388,2.43025v.51634a6.98643,6.98643,0,0,0,.15146.83989,8.34426,8.34426,0,0,0,1.03957,2.58859c.95006,1.57654,3.11868,3.03605,6.08591,4.13071a53.11375,53.11375,0,0,0,10.51265,2.54728,149.20637,149.20637,0,0,0,20.922,1.37691h3.993c15.022-.51634,26.00972-2.19617,34.223-4.30972a68.56312,68.56312,0,0,0,17.75518-7.04285,36.17821,36.17821,0,0,0,7.88966-5.83806,17.32129,17.32129,0,0,0,4.468-7.35266,15.9445,15.9445,0,0,0,.654-4.59886,24.847,24.847,0,0,0-.99137-6.42327c-6.8087-26.31963-9.6589-34.97348-9.98936-35.92355v-.13769c-1.06709-3.51109-2.80888-9.19771-4.97752-16.26124-1.3769-4.44741-3.31834-11.35946-5.07389-17.67944a10.83673,10.83673,0,0,1-.63336-2.83642,3.68325,3.68325,0,0,1,.39242-1.69361h0a3.88283,3.88283,0,0,1,1.074-1.253l.15146-.09639h0l.11015-.0895.15146-.062c24.2817-10.189,42.18145-30.59475,54.09166-56.70086s17.74831-57.91258,17.74831-90.57964C347.98524,193.27,340.17129,154.3105,325.0116,121.61592ZM290.29984,278.404c-4.35789,16.812-12.99108,35.75131-27.421,50.57368-.39242.39929-.778.79861-1.191,1.191s-.79172.78484-1.20479,1.17725c-.81237.77106-1.63852,1.53525-2.4922,2.27877l-1.03956.90187c-.82616.68845-1.67983,1.3769-2.54039,2.06536-.42684.35111-.86746.68845-1.30806.99826s-.88811.68845-1.3356.99137c-.22718.17212-.45438.33734-.68845.4888s-.44749.32357-.68845.475c-.58519.41308-1.17725.81237-1.7762,1.20479s-1.20479.78485-1.81752,1.16349-1.191.72976-1.79,1.074a.51609.51609,0,0,1-.11705.06885c-.61273.358-1.22544.68845-1.85194,1.04644-.41307.22718-.82615.45438-1.2392.68845a1.32139,1.32139,0,0,1-.241.12392c-.44749.241-.90876.475-1.37691.68845a78.40135,78.40135,0,0,1-9.12888,3.85534c-.21342.07572-.42683.1377-.62649.21342q-1.012.36487-2.06536.68845-1.69361.537-3.44226.98448l-.97761.2685c-.99137.24784-1.97585.48193-2.99477.68846a.7843.7843,0,0,1-.17211.0413h0c-.35112.0895-.68845.16522-1.08088.22718-1.85193.37177-3.76583.68845-5.70727.95007-.45438.062-.90187.12392-1.3769.17211-1.136.1377-2.29943.26851-3.48357.35112-1.549.1377-3.13934.22718-4.74344.27538-.4888,0-.97762.0413-1.48017.0413h-2.01716c-.85368,0-1.728,0-2.59546-.03441h-1.611c-9.76225,0-20.06838-3.18754-30.32631-8.81907s-20.48834-13.769-30.13354-23.73783q-1.67292-1.7349-3.30456-3.53866c-.51634-.55075-1.012-1.11529-1.5146-1.67293-.85367-.97072-1.71425-1.94144-2.55416-2.94658s-1.6936-1.98963-2.51974-3.02231q-2.33385-2.82265-4.55755-5.783c-.51634-.68845-1.0189-1.37691-1.50771-2.01716-.68845-.90187-1.32871-1.81753-1.97585-2.75381s-1.191-1.67983-1.76933-2.52663c-.30292-.42684-.599-.86745-.8881-1.30118-1.51459-2.23058-2.99477-4.51625-4.43363-6.82946-.72976-1.16348-1.43886-2.34073-2.14109-3.53176h0q-.68844-1.191-1.3769-2.39582c-.46126-.79861-.92942-1.611-1.3769-2.43023-.99138-1.76244-1.969-3.55242-2.90527-5.35616-.36488-.68845-.68846-1.3769-1.06711-2.06536-.80548-1.59032-1.59032-3.19442-2.36827-4.81916l-1.14284-2.444q-1.77618-3.86907-3.44226-7.82769c-.37865-.90187-.7573-1.81064-1.10152-2.75381q-.96384-2.45088-1.87259-4.92243c-.27538-.7573-.55077-1.52147-.81237-2.28566-.44749-1.25986-.8881-2.54039-1.31495-3.8278v-.07572a149.47267,149.47267,0,0,1-7.23562-27.72395,231.85535,231.85535,0,0,1-3.44226-39.51026,186.35666,186.35666,0,0,1,2.7538-32.81851v-.06885a80.59624,80.59624,0,0,1,2.75381-11.46961,174.99829,174.99829,0,0,1,6.76749-18.40232c5.92757-13.69331,14.73287-29.3556,26.97354-41.64447,8.15127-8.19258,17.85156-14.87745,29.2248-18.41609A70.53581,70.53581,0,0,1,170.62619,50.843a87.77678,87.77678,0,0,1,13.115,1.05333c26.70506,4.07563,48.80437,20.13033,66.01567,41.67889s29.60344,48.646,36.9561,75.04127c7.394,26.5054,9.85864,47.50319,9.85864,64.42533C296.59918,253.17222,293.11561,267.50579,290.29984,278.404Z" transform="translate(-27.18035 -2.23143)"/><path class="cls-2" d="M327.2766,120.56259c-11.27685-24.32989-32.21955-53.84383-59.45471-77.3407S207.04532,2.23145,170.53671,2.23145a112.47865,112.47865,0,0,0-16.06157,1.14283C112.14222,9.412,80.23935,32.75053,59.01438,65.21793s-31.834,74.0499-31.834,116.83031a259.0862,259.0862,0,0,0,1.43887,27.28336A248.70321,248.70321,0,0,0,65.0108,314.85752c19.731,31.36587,46.49116,57.36181,78.48352,73.19621.68845.35111,1.4251.68845,2.14107,1.03957.91564.44061,1.83818.86745,2.75381,1.28051a174.31056,174.31056,0,0,0,16.68807,6.60912q1.28052.43377,2.51974.82615c2.93281.957,5.721,1.76933,8.35782,2.4853l2.62989.68845q1.76587.45438,3.44226.83989,3.34587,8.83285,5.962,15.86882h0c.35111.96384.68845,1.907,1.03267,2.80889,1.2461,3.36654,2.35452,6.36129,3.2908,8.94988,1.08088,2.96722,1.71424,4.72277,2.12043,5.94134a28.58432,28.58432,0,0,1,.78484,2.75381h0a60.646,60.646,0,0,1,1.81753,13.57625c0,5.19781-1.012,10.66412-4.24776,14.99451-1.32184,1.79685-2.981,3.31145-4.40609,4.99817a13.76968,13.76968,0,0,0-1.84505,2.79511,8.20659,8.20659,0,0,0-.76417,3.48357v.32355a10.9462,10.9462,0,0,0,1.59721,4.92245,10.12,10.12,0,0,0,2.9741,2.97416,20.5084,20.5084,0,0,0,4.30972,2.16864c4.81916,1.85194,11.06343,2.84331,17.02542,3.40784s11.64862.68846,15.31117.68846c2.51285,0,4.06875-.0482,4.06875-.0482,15.18036-.53012,26.34706-2.2168,34.77372-4.39922a71.33615,71.33615,0,0,0,18.38168-7.27694,39.29715,39.29715,0,0,0,8.42665-6.2649,19.90326,19.90326,0,0,0,5.08767-8.406,18.63661,18.63661,0,0,0,.75041-5.30109,27.345,27.345,0,0,0-1.06709-7.04974c-7.02222-26.91846-9.86551-35.42776-10.10648-36.13h0c-1.06709-3.51109-2.79511-9.184-4.95686-16.2406-1.3769-4.41985-3.32521-11.31127-5.07389-17.62436a9.58335,9.58335,0,0,1-.46814-2.17549,1.30794,1.30794,0,0,1,.11705-.56454l.22031-.28913.1377-.10329h.0413c24.85312-10.47822,43.1453-31.40718,55.207-57.89193S350.4913,264.06355,350.505,231.0936C350.47744,192.93266,342.60844,153.64959,327.2766,120.56259Zm2.96033,201.1106c-11.9171,26.16118-29.8444,46.53934-54.05724,56.68712l-.15146.062-.11016.0895h0l-.15146.09639a3.8828,3.8828,0,0,0-1.074,1.253h0a3.68329,3.68329,0,0,0-.42684,1.70735,10.8356,10.8356,0,0,0,.56454,2.8502c1.75554,6.32,3.72452,13.232,5.07388,17.67944,2.16862,7.06353,3.91041,12.75015,4.97752,16.26124v.1377c.30981.93628,3.18064,9.63832,10.03075,35.889a24.84653,24.84653,0,0,1,.99137,6.42327,15.9445,15.9445,0,0,1-.654,4.59886,17.32129,17.32129,0,0,1-4.468,7.35266,36.178,36.178,0,0,1-7.88966,5.83806,68.56312,68.56312,0,0,1-17.75518,7.04285c-8.21323,2.11355-19.20092,3.79338-34.22294,4.30972h-3.993a149.20534,149.20534,0,0,1-20.92207-1.37691,53.11305,53.11305,0,0,1-10.51265-2.54728c-2.96723-1.12218-5.13585-2.58169-6.08591-4.13071a8.34426,8.34426,0,0,1-1.03957-2.58859,6.98608,6.98608,0,0,1-.15146-.83989v-.51634a5.61777,5.61777,0,0,1,.54388-2.43025,13.43814,13.43814,0,0,1,2.506-3.39407,47.93392,47.93392,0,0,0,3.44226-3.94481c3.69009-4.96376,4.74344-11.01523,4.74344-16.52285a64.02519,64.02519,0,0,0-1.8657-14.127h0c-.21342-.92939-.42684-1.71424-.83991-2.981s-1.05333-3.0292-2.14108-6.00328-2.382-6.499-3.86909-10.51957c-.33734-.91565-.68846-1.86572-1.0671-2.85709-1.65228-4.44742-3.53176-9.4318-5.61088-14.905l-.23407-.62648-.654-.1377c-.92941-.21341-1.89324-.44061-2.88461-.68845s-1.79-.45436-2.7125-.68845h0c-3.1118-.81926-6.4508-1.78311-9.99632-2.94659-.81926-.26162-1.64541-.537-2.4853-.82616a173.89392,173.89392,0,0,1-17.2113-6.98091c-.90876-.41994-1.8244-.86056-2.75381-1.32182l-.537-.2685c-31.51734-15.57967-57.95389-41.23827-77.4784-72.28746A246.37648,246.37648,0,0,1,31.07019,209.05611a261.92331,261.92331,0,0,1-1.41132-27.02863c0-42.36734,10.53331-83.49546,31.4416-115.46717s52.14327-54.75938,93.73265-60.7076a111.59011,111.59011,0,0,1,15.70359-1.11529c35.68246,0,68.74194,17.13557,95.69484,40.38459s47.70284,52.51512,58.80069,76.49391c15.14594,32.69459,22.97364,71.65408,22.97364,109.46387C347.98524,263.73307,342.14714,295.512,330.23693,321.67319Z" transform="translate(-27.18035 -2.23143)"/><path class="cls-2" d="M286.74054,168.69226c-7.3389-26.36771-19.731-53.45141-36.9561-75.04127S210.47382,56.04774,183.76876,51.9721a87.7794,87.7794,0,0,0-13.115-1.05333A70.53622,70.53622,0,0,0,148.09319,54.664C136.72,58.2026,127.01968,64.88747,118.86841,73.08005c-12.24068,12.28886-21.046,27.95115-26.97356,41.64446a174.996,174.996,0,0,0-6.76748,18.40232,80.59624,80.59624,0,0,0-2.75381,11.46961v.06885a186.35667,186.35667,0,0,0-2.75381,32.81851A231.85741,231.85741,0,0,0,83.062,216.99407a149.4745,149.4745,0,0,0,7.23563,27.724v.07572c.42683,1.2874.86744,2.56793,1.31494,3.82779.26162.76417.537,1.52836.81237,2.28566q.90876,2.47842,1.87259,4.92243c.358.90876.68845,1.81752,1.10153,2.75381q1.611,3.95861,3.44226,7.82769l1.14283,2.444c.778,1.611,1.56279,3.21508,2.36828,4.81917.35111.68845.68845,1.3769,1.0671,2.06535.9363,1.80374,1.9139,3.59372,2.90527,5.35616.44749.81926.91564,1.63163,1.3769,2.43023s.92942,1.60409,1.37691,2.39582h0c.68845,1.191,1.3769,2.36828,2.14108,3.53177,1.43887,2.31318,2.90527,4.59885,4.43364,6.82945.28915.43373.58519.87433.8881,1.30118.57829.84681,1.16348,1.68672,1.76932,2.52663s1.31495,1.84505,1.97586,2.75381c.4888.68845.99137,1.3769,1.50771,2.01716q2.23059,2.96724,4.55755,5.783c.82614,1.03268,1.66605,2.03094,2.51973,3.02232s1.70047,1.97585,2.55417,2.94657c.50257.55764.99826,1.12218,1.5146,1.67293q1.63161,1.81067,3.30456,3.53866c9.63833,9.96879,19.86872,18.08562,30.13354,23.73783s20.56406,8.81907,30.3263,8.81907h1.611c.86745,0,1.74178.03441,2.59545.03441h2.01716c.50258,0,.99138,0,1.48017-.0413,1.60408-.0482,3.19443-.1377,4.74344-.27538,1.18414-.08261,2.34763-.21342,3.48357-.35112.46814-.04819.91563-.11015,1.3769-.17211,1.94144-.24783,3.85534-.5783,5.70728-.95007.36488-.062.72976-.13769,1.08087-.22718h0l.17212-.0413c1.01891-.21342,2.00339-.44749,2.99477-.68845l.97761-.26851q1.72115-.44061,3.44226-.98448,1.05331-.31666,2.06535-.68845c.19966-.07572.41308-.1377.6265-.21342a78.39963,78.39963,0,0,0,9.12888-3.85534c.48192-.22718.94317-.46127,1.3769-.68845a1.32074,1.32074,0,0,0,.241-.12392c.41308-.21341.82616-.44061,1.23921-.68845.62649-.33733,1.2392-.68845,1.85194-1.04644a.516.516,0,0,0,.117-.06885c.599-.34422,1.1979-.68845,1.79-1.074s1.21169-.76417,1.81753-1.16349,1.191-.79171,1.77619-1.20479c.22718-.15146.45438-.30981.68846-.475s.45438-.31668.68845-.4888c.44749-.32357.90187-.68845,1.3356-.99137s.88121-.64714,1.30805-.99826c.86057-.68845,1.71424-1.37691,2.54039-2.06536l1.03957-.90187c.85367-.74352,1.67982-1.50771,2.49219-2.27877.41308-.39243.81237-.778,1.20479-1.17725s.79861-.79172,1.191-1.191c14.4575-14.82237,23.06315-33.73415,27.42106-50.57368,2.81577-10.89819,6.29933-25.23176,6.29933-45.28637C296.59918,216.19546,294.13451,195.19768,286.74054,168.69226Zm1.12907,109.08522c-4.27528,16.47466-12.757,35.0491-26.78078,49.44463s-33.54139,24.66725-60.18449,24.681c-.86056,0-1.728,0-2.61611-.0413h-1.59032c-9.21149,0-19.13209-3.00853-29.11464-8.50926-14.98072-8.26142-30.11289-22.03046-43.283-39.33127a207.27242,207.27242,0,0,1-31.66879-60.0812v-.062c-2.45778-6.19606-5.11519-15.7862-7.13236-27.31088a228.35956,228.35956,0,0,1-3.44226-39.06965,183.51389,183.51389,0,0,1,2.7538-32.433v-.0413h0A100.73432,100.73432,0,0,1,89.27185,128.411c3.97925-11.61418,10.68478-26.95979,20.48833-40.61867S132.47909,62.16121,148.823,57.11486a67.64333,67.64333,0,0,1,21.81016-3.6488,83.99194,83.99194,0,0,1,12.757,1.0189c25.90645,3.94483,47.50319,19.53827,64.43912,40.76325s29.23166,48.01264,36.48795,74.11874c7.32514,26.30576,9.75538,47.07635,9.75538,63.75065C294.0932,252.88306,290.68537,266.91371,287.86961,277.77748Z" transform="translate(-27.18035 -2.23143)"/><path class="cls-3" d="M294.0932,233.1176c0,19.76546-3.40785,33.79611-6.19607,44.65988-4.27528,16.47466-12.757,35.0491-26.78078,49.44463s-33.54138,24.66725-60.18448,24.681c-.86057,0-1.728,0-2.61611-.0413h-1.59033c-9.21149,0-19.13208-3.00853-29.11464-8.50926-14.98072-8.26142-30.11288-22.03046-43.283-39.33127a207.2722,207.2722,0,0,1-31.6688-60.0812v-.062c-2.45778-6.19606-5.11519-15.7862-7.13236-27.31088a228.35956,228.35956,0,0,1-3.44226-39.06965,183.5139,183.5139,0,0,1,2.75381-32.433v-.0413h0A100.734,100.734,0,0,1,89.29937,128.411c3.97926-11.61418,10.68478-26.95979,20.48833-40.61867s22.71891-25.63107,39.06277-30.67742a67.64333,67.64333,0,0,1,21.81016-3.6488,83.99063,83.99063,0,0,1,12.72949,1.0189c25.90645,3.94483,47.50319,19.53827,64.43912,40.76325s29.23166,48.01264,36.48795,74.11874C291.663,195.68647,294.0932,216.4433,294.0932,233.1176Z" transform="translate(-27.18035 -2.23143)"/></g><g id="DOTS"><path class="cls-4" d="M232.34594,250.45282a5.32238,5.32238,0,0,1-5.91381-.74352l-.06884-.05506h0a8.26109,8.26109,0,0,1-2.06536-2.39582,8.06188,8.06188,0,0,1-1.1084-4.32348v-.11705a4.97748,4.97748,0,0,1,2.35452-4.13071c2.56793-1.48017,6.19607-.0482,8.06176,3.2013S234.91387,248.96578,232.34594,250.45282Z" transform="translate(-27.18035 -2.23143)"/><path class="cls-4" d="M270.35539,446.82687a5.32111,5.32111,0,0,1-5.9138-.74354l-.07572-.05509h0a8.30956,8.30956,0,0,1-2.06536-2.3958,8.03446,8.03446,0,0,1-1.1084-4.32349v-.117a5.00506,5.00506,0,0,1,2.35452-4.13071c2.56793-1.48019,6.19607-.0482,8.06177,3.20132S272.9233,445.33983,270.35539,446.82687Z" transform="translate(-27.18035 -2.23143)"/><path class="cls-4" d="M267.0095,205.57952c-4.46118.06885-8.14438,4.13072-8.19258,9.005s3.49046,8.75022,8.19947,8.74335c4.88112,0,8.46108-3.78649,8.43354-8.94988C275.42928,209.76532,271.36741,205.51757,267.0095,205.57952Z" transform="translate(-27.18035 -2.23143)"/><path class="cls-5" d="M206.41885,195.14259a4.64334,4.64334,0,0,0-5.10143,3.277,7.04285,7.04285,0,0,0,.5783,6.32,4.2684,4.2684,0,0,0,4.00679,2.06536,4.20647,4.20647,0,0,0,3.97925-2.70561,12.96375,12.96375,0,0,0,.58519-2.561C210.45317,198.06851,208.71139,195.55566,206.41885,195.14259Z" transform="translate(-27.18035 -2.23143)"/><polygon points="141.628 71.475 141.67 71.448 141.539 71.358 141.628 71.475"/><ellipse class="cls-5" cx="233.05478" cy="296.7435" rx="6.5816" ry="4.39233"/><ellipse class="cls-6" cx="108.99574" cy="90.77243" rx="7.31825" ry="4.39233"/><ellipse class="cls-5" cx="215.49925" cy="110.2143" rx="5.12208" ry="8.04801"/><ellipse class="cls-7" cx="160.03756" cy="69.73333" rx="5.76923" ry="6.5816"/><ellipse class="cls-4" cx="87.7914" cy="122.30352" rx="8.04801" ry="5.85184"/><circle class="cls-5" cx="91.87393" cy="159.22521" r="5.85184"/><ellipse class="cls-7" cx="70.20146" cy="198.3706" rx="6.45079" ry="4.11006"/><ellipse class="cls-6" cx="240.14585" cy="252.28328" rx="10.97393" ry="5.85184"/><ellipse class="cls-6" cx="226.83117" cy="147.70741" rx="7.97227" ry="4.79163"/><ellipse class="cls-7" cx="207.04506" cy="180.69113" rx="6.96024" ry="9.80355"/><ellipse class="cls-7" cx="242.25704" cy="453.42283" rx="14.12703" ry="10.12714" transform="translate(-251.68952 235.76149) rotate(-37.11)"/><ellipse class="cls-7" cx="244.50198" cy="423.47494" rx="9.94125" ry="13.98246" transform="translate(-261.23232 320.75287) rotate(-48.14)"/><ellipse class="cls-3" cx="236.49015" cy="357.85738" rx="8.75022" ry="5.36303"/><ellipse class="cls-7" cx="315.7656" cy="263.49194" rx="13.12189" ry="9.40426" transform="translate(-102.35515 388.93795) rotate(-57.93)"/><ellipse class="cls-5" cx="316.19141" cy="257.25805" rx="8.99118" ry="4.02056" transform="translate(-77.86524 432.67934) rotate(-64.97)"/><ellipse class="cls-6" cx="291.78662" cy="194.90079" rx="9.79666" ry="5.78299"/><ellipse class="cls-4" cx="253.68769" cy="105.73248" rx="10.03075" ry="5.2047"/><ellipse class="cls-3" cx="234.12876" cy="61.69221" rx="9.89994" ry="7.68313"/><ellipse class="cls-3" cx="109.12652" cy="40.03351" rx="8.70891" ry="5.17028"/><ellipse class="cls-3" cx="61.67842" cy="71.37184" rx="7.44216" ry="6.69864"/><ellipse class="cls-4" cx="270.01777" cy="328.27459" rx="7.44216" ry="6.69865"/><ellipse class="cls-6" cx="32.51559" cy="125.23633" rx="6.26492" ry="8.33027"/><ellipse class="cls-7" cx="66.08502" cy="143.93252" rx="7.6487" ry="4.79851" transform="translate(-118.78706 126.96613) rotate(-60)"/><ellipse class="cls-3" cx="42.55322" cy="245.60528" rx="9.98255" ry="4.96373"/><ellipse class="cls-7" cx="59.63372" cy="301.37679" rx="9.45933" ry="8.14438"/><circle class="cls-6" cx="114.9646" cy="34.67735" r="7.55921"/><ellipse class="cls-7" cx="185.86827" cy="37.84423" rx="10.07206" ry="7.55232"/><ellipse class="cls-4" cx="27.30401" cy="188.78734" rx="9.9206" ry="8.26832"/><ellipse class="cls-6" cx="54.91094" cy="292.6954" rx="8.65384" ry="5.23911"/><ellipse class="cls-7" cx="237.15358" cy="394.08592" rx="15.22169" ry="10.44381" transform="matrix(0.60126, -0.79906, 0.79906, 0.60126, -247.51361, 344.40631)"/><ellipse class="cls-6" cx="246.26248" cy="394.15007" rx="9.8242" ry="5.98265" transform="translate(-233.75793 287.34632) rotate(-45)"/><ellipse class="cls-5" cx="226.89315" cy="417.65631" rx="8.35782" ry="4.46805"/><ellipse class="cls-6" cx="194.96274" cy="398.29704" rx="6.48523" ry="9.60391"/><ellipse class="cls-4" cx="223.31354" cy="428.02993" rx="6.4026" ry="12.61934" transform="translate(-264.4362 281.04215) rotate(-45)"/><circle class="cls-3" cx="204.14669" cy="459.61058" r="9.39738"/><ellipse class="cls-7" cx="314.35662" cy="146.47906" rx="6.99465" ry="4.02056" transform="translate(3.14336 343.24892) rotate(-60)"/><ellipse class="cls-5" cx="278.07954" cy="139.22567" rx="6.4095" ry="8.13062"/></g><g id="LADY"><g id="LEGS"><path class="cls-8" d="M204.98,359.40036c-.1377,3.8209-.42684,8.26142-.97072,13.21828-.77107,7.06353-1.43886,13.08059-3.26326,19.57958-4.52313,16.22682-13.9205,27.483-23.2146,38.62214-4.172,4.99817-7.869,8.86038-10.28548,11.29063a54.75966,54.75966,0,0,1,6.12722,17.2113,77.95972,77.95972,0,0,1,.92253,19.68287,84.44589,84.44589,0,0,1-2.25124,13.94115,11.77121,11.77121,0,0,1-2.25812-1.3769c-2.23058-1.67983-3.30456-3.759-5.12208-7.036-1.969-3.57307-2.7194-5.76234-3.83468-11.06343-2.18928-10.38876-3.07739-14.38178-3.48357-21.5348-2.62989,2.90524-4.86047,4.61952-6.39573,6.37507a3.75207,3.75207,0,0,0-.94317,2.981c.68845,4.96375,1.76933,5.97576,2.51974,18.89112.18587,3.31835-.86746,9.21839-3.38031,12.56425a12.08948,12.08948,0,0,1-2.54728-.90187A46.21571,46.21571,0,0,0,137.5323,466.792c-.59206-.68845-3.72453-3.01542-4.72277-4.28215-.45438-.56453-1.16349-1.432-.97761-3.7727a5.67967,5.67967,0,0,1,.88811-2.96723,8.172,8.172,0,0,1,3.68322-2.506c4.72277-2.16864,8.0067-5.78987,11.01523-9.0738,2.7194-2.96722,7.27694-8.881,7.27-11.01523,0-1.89324-.64025-6.795-.68845-7.10483-1.45951-8.1926-2.30632-13.60382-4.32348-27.26957-1.907-12.90848-4.03432-25.3557-6.01706-33.89938a51.01208,51.01208,0,0,0,20.984,3.94482c.99137,0,1.94143,0,2.88461-.0482q-.68844,4.81918-1.26675,10.04454c-.62649,5.93445-1.00513,11.58666-1.191,16.88775l.0895,22.65009L179.45218,399.792l8.75711-9.9207c-.81237-1.81752-3.33211-14.56763-5.03948-22.62252a79.62,79.62,0,0,0,20.43325-7.11862C204.04368,359.90295,204.49806,359.66886,204.98,359.40036Z" transform="translate(-27.18035 -2.23143)"/><path class="cls-9" d="M188.20929,389.87125l-8.75711,9.955L165.1599,418.41449l-.0895-22.65009c.18588-5.30109.56454-10.95326,1.191-16.88775q.55076-5.20467,1.26675-10.04454a9.85484,9.85484,0,0,0,1.27364-.05508c.42684-.05509.85368,0,1.28051-.0482-.52323,3.44226-.96383,6.95335-1.32871,10.40939-.58518,5.50762-.97761,11.12537-1.17724,16.67429l.062,15.26986,9.83109-12.79145.05507-.062.04819-.062,7.81394-8.89479c-.76417-2.7538-1.90014-8.15129-3.50422-15.91011-.41308-2.01716-.81237-3.9586-1.17725-5.68662l1.23921-.21342,1.22544-.22031C184.88407,375.30362,187.40379,388.05373,188.20929,389.87125Z" transform="translate(-27.18035 -2.23143)"/><path class="cls-9" d="M207.53414,357.89954c-.1377,4.99816-.475,10.02386-1.02579,14.9945-.79171,7.11861-1.4664,13.2527-3.34586,19.96511a80.2074,80.2074,0,0,1-12.39214,25.18359c-.27538.413-.5783.82615-.87433,1.22546s-.59206.81237-.90187,1.21857c-3.07049,4.13072-6.32687,8.0549-9.54882,11.924-2.919,3.49735-5.98955,6.88452-9.14265,10.134a56.30113,56.30113,0,0,1,5.50762,16.35074,80.58979,80.58979,0,0,1,.96383,20.31622,85.925,85.925,0,0,1-2.31319,14.368l-.70915,2.96029-2.7538-1.26677a15.00053,15.00053,0,0,1-2.7194-1.61785c-2.55415-1.92765-3.80714-4.22021-5.54892-7.37333l-.24783-.45436c-2.06536-3.77271-2.919-6.19607-4.08941-11.75188l-.28227-1.32871c-1.45951-6.88452-2.29253-10.84312-2.79511-15.146l-.179.15833c-.90876.85368-1.68671,1.57654-2.29942,2.27878a1.2116,1.2116,0,0,0-.33047.99137c.19277,1.43888.41308,2.51972.68845,3.759.61961,2.90525,1.32184,6.19607,1.85883,15.33184.23407,4.06189-1.03957,10.42318-3.88288,14.20966l-.99137,1.31493-1.59032-.37864a14.12071,14.12071,0,0,1-3.222-1.17727l-1.191-.68845-.062-1.37691a40.27451,40.27451,0,0,0-3.71764-15.40066,38.46125,38.46125,0,0,0-4.73655-8.13062c-.17211-.1859-.88811-.77106-1.3769-1.21168a25.192,25.192,0,0,1-3.44226-3.19443c-.57142-.68845-1.74867-2.20306-1.47329-5.50762a7.83467,7.83467,0,0,1,1.37689-4.28215,10.01009,10.01009,0,0,1,4.45431-3.19443l.17211-.062c4.18578-1.93455,7.18055-5.17718,10.07206-8.33715l.16522-.17211c3.31834-3.62127,6.37507-8.15814,6.60225-9.38361,0-1.666-.57829-6.13409-.654-6.6229-1.46641-8.30962-2.32008-13.67265-4.33037-27.35219q-.79171-5.32171-1.55591-10.10647c-.179-1.02578-.33734-2.06535-.50258-3.0292-1.57656-9.52131-3.07049-17.2113-4.39922-22.5537.50258.2754.99137.53012,1.49395.76417s.95007.45436,1.4251.68845c.86746,3.7314,1.76933,8.227,2.65742,13.177.12391.68845.25472,1.41821.37864,2.14107.39929,2.29256.7986,4.68836,1.1979,7.12546.16522.99138.33046,1.98275.48879,2.9879.44062,2.75381.86746,5.61091,1.2943,8.468,2.01716,13.66575,2.864,19.077,4.32347,27.26957.0482.30981.68846,5.21159.68846,7.10483,0,2.16175-4.55066,8.07553-7.27006,11.01523-3.01542,3.28393-6.29933,6.88452-11.01523,9.0738a8.172,8.172,0,0,0-3.68322,2.506,5.67967,5.67967,0,0,0-.88811,2.96723c-.18587,2.34075.52323,3.20817.97761,3.7727.99826,1.26677,4.13071,3.58,4.72277,4.28215a46.21571,46.21571,0,0,1,9.06692,25.05278,12.08881,12.08881,0,0,0,2.54729.90187c2.51284-3.34586,3.56617-9.2459,3.3803-12.56425-.75041-12.91536-1.85194-13.92737-2.51974-18.89112a3.75207,3.75207,0,0,1,.94318-2.981c1.53525-1.75554,3.76583-3.44226,6.39572-6.37507.40619,7.153,1.29429,11.146,3.48357,21.5348,1.11529,5.30109,1.8657,7.49036,3.83468,11.06343,1.81752,3.277,2.89151,5.35617,5.12208,7.036a11.771,11.771,0,0,0,2.25813,1.3769,84.44693,84.44693,0,0,0,2.25123-13.94115,77.96058,77.96058,0,0,0-.95-19.67589,54.75966,54.75966,0,0,0-6.12722-17.2113c2.41648-2.43026,6.11346-6.29246,10.28548-11.29063,3.55931-4.26152,7.13924-8.55746,10.44383-13.12879h0c.28915-.413.59205-.81237.88121-1.22546a.928.928,0,0,0,.0964-.15144c.27537-.3649.5301-.72287.76417-1.10151.59206-.83989,1.15659-1.67982,1.69358-2.54039s1.10153-1.7418,1.62474-2.62989l.11705-.19279q1.51459-2.56788,2.87085-5.308c.23407-.475.46127-.957.68845-1.44573s.44749-.9707.68846-1.45951.41307-.957.61273-1.432c.44062-1.05335.85367-2.11355,1.2392-3.22195.179-.49566.35112-.99826.51634-1.50082.0964-.27539.18588-.55075.26162-.82615s.19965-.62647.30292-.93628c.15146-.50256.296-1.00516.44062-1.50771,1.82439-6.52652,2.49219-12.51606,3.26325-19.57958.54389-4.95.833-9.39739.97072-13.21829l1.27364-.73665Q206.8732,358.3126,207.53414,357.89954Z" transform="translate(-27.18035 -2.23143)"/></g><path class="cls-6" d="M232.95867,313.60453c0,6.57471-1.43886,23.06315-15.59344,34.27115-3.44226,2.71939-6.75371,5.11519-9.73472,7.02911-.42684.28913-.85367.55075-1.26675.81926l-1.253.75043c-.91563.537-1.79,1.012-2.60234,1.4251a76.93578,76.93578,0,0,1-19.82054,6.88452c-.41308.07572-.82615.16522-1.22545.23409l-1.2392.21342a70.45386,70.45386,0,0,1-8.02046.895c-.55076,0-1.11529.062-1.69359.07572-.42684,0-.8468.04819-1.27364.062l-1.29429.04819c-7.573.26162-16.26124-.0895-24.9908-4.48183-.50258-.25472-.99827-.53012-1.50082-.80547l-.117-.062c-.49569-.2754-.97072-.56454-1.45262-.86746-13.22516-8.19257-18.27153-22.18192-22.34715-33.50695-5.70726-15.88259-6.19607-30.168-5.93445-40.839.58518-25.67925,6.56094-51.90241,17.78959-78.09111a79.914,79.914,0,0,0,3.16687,9.36978l.51634,1.25986c4.38543,10.69855,11.70368,28.60518,24.6879,28.61207,13.769,0,24.743-16.80512,28.17833-22.71892,3.58,3.75894,7.931,9.40426,13.51432,16.67431A180.43025,180.43025,0,0,1,223.76785,279.175C229.59213,291.83568,232.88982,303.84916,232.95867,313.60453Z" transform="translate(-27.18035 -2.23143)"/><path class="cls-10" d="M235.43021,313.60453v.16523c0,7.02222-1.63852,24.27482-16.52285,36.07488a121.04728,121.04728,0,0,1-11.3457,8.0549q-.68844.413-1.28051.76417l-1.27364.73665c-.48192.2685-.92941.50255-1.3769.72975a79.62029,79.62029,0,0,1-20.43325,7.11862l-1.22545.22031-1.2392.21341a69.1215,69.1215,0,0,1-8.41978.957l-2.203.0964c-.42684,0-.85368.0413-1.28051.04819s-.84681.04131-1.27365.05509c-.94317,0-1.89324.0482-2.88461.0482-6.38883,0-13.67954-.68846-20.984-3.94482-.475-.21342-.95006-.42684-1.4251-.68845s-.99137-.48882-1.49395-.76417l-.68845-.358c-15.14594-8.50926-20.79125-24.23352-24.92884-35.70311-5.85184-16.275-6.32688-30.85643-6.07215-41.74085.59895-26.98733,7.091-54.54607,19.27665-82.04282.13769.68845.30292,1.3769.475,2.06536s.33734,1.31494.51634,1.969c-11.22865,26.16118-17.2113,52.41185-17.7896,78.09111-.241,10.671.22719,24.95638,5.93445,40.839,4.07564,11.325,9.122,25.31437,22.34715,33.50694.48192.30293.957.59206,1.45262.86746l.11705.062c.50258.2754.99826.55075,1.50082.80548,8.72957,4.39232,17.43848,4.74344,24.9908,4.48183l1.29429-.0482c.42684,0,.84681-.04131,1.27364-.062.5783,0,1.14284-.05509,1.69359-.07572a70.4521,70.4521,0,0,0,8.02046-.895l1.23921-.21342c.39929-.06882.81236-.15833,1.22544-.23409a76.93528,76.93528,0,0,0,19.82054-6.88452c.81237-.413,1.68672-.88809,2.60235-1.4251l1.253-.75043c.41308-.26851.83992-.53012,1.26675-.81926,2.981-1.9139,6.29934-4.30972,9.73473-7.02909,14.16148-11.22869,15.63478-27.71713,15.63478-34.29184-.03442-9.75537-3.33211-21.76885-9.15641-34.4226a180.42946,180.42946,0,0,0-24.31613-38.31924c-5.58333-7.27-9.93435-12.91537-13.51431-16.67431.26161-.45438.475-.82615.64025-1.14283s.28227-.50945.358-.68845.179-.32358.25472-.4888c3.80714,3.8691,8.26143,9.6934,14.21653,17.39718C217.04166,258.33561,235.34071,289.24023,235.43021,313.60453Z" transform="translate(-27.18035 -2.23143)"/><path d="M222.45288,133.65006c-3.80714,16.874-19.27665,30.84265-36.57746,31.66879a36.85935,36.85935,0,0,1-8.63319-.62649,14.71194,14.71194,0,0,1,2.265-3.89664,38.32589,38.32589,0,0,1,7.48347-7.153c.95007-.75041,1.92766-1.51459,3.00164-2.41646,3.72453-3.11869,7.573-6.31311,10.02386-11.63484.95007-2.06535,3.85534-8.26142,1.69359-15.68293-.85367-2.89839-3.55931-9.88618-10.32678-12.02726a13.225,13.225,0,0,0-3.97236-.60584,17.33521,17.33521,0,0,0-8.0067,2.12043c-15.14595,7.9172-18.18891,36.16439-18.20957,36.43976a7.88964,7.88964,0,0,1-.654,2.12044,8.2614,8.2614,0,0,1-1.57656,2.34073c-9.04627-10.63658-10.27171-26.63621-5.67973-38.99392,5.96889-15.97209,21.638-26.409,34.42261-26.07168,6.58849.17211,15.86881.9776,25.72745,9.63833C222.6663,106.97254,225.11719,121.84311,222.45288,133.65006Z" transform="translate(-27.18035 -2.23143)"/><path class="cls-9" d="M177.19405,164.78186a.14455.14455,0,0,0,0-.07573,14.71213,14.71213,0,0,1,2.265-3.89664,38.32561,38.32561,0,0,1,7.48347-7.153c.95006-.75041,1.92765-1.51459,3.00164-2.41646,3.72453-3.11869,7.573-6.3131,10.02386-11.63484.95006-2.06535,3.85533-8.26142,1.69358-15.68293-.85367-2.89839-3.5593-9.88617-10.32678-12.02726a13.225,13.225,0,0,0-3.97236-.60584,17.33524,17.33524,0,0,0-8.0067,2.12043c-15.14594,7.9172-18.18891,36.16439-18.20956,36.43977a7.89,7.89,0,0,1-.654,2.12044,8.26161,8.26161,0,0,1-1.57656,2.34073,15.04884,15.04884,0,0,1-2.39582,2.06536l-.599.43372-.87433.68846c-1.49395,1.17036-1.72113,1.3769-11.628,8.61942-2.20306,1.61787-4.02056,2.9328-5.50762,4.02056-5.96889,4.32347-7.3871,5.34927-9.40426,8.30962-3.697,5.425-2.25812,12.64-1.91389,14.06507A82.55013,82.55013,0,0,0,128.307,203.6863c.13768.68845.30292,1.37691.475,2.06536s.33735,1.31494.51634,1.969a79.9176,79.9176,0,0,0,3.25642,9.30786l.51634,1.25986c4.38543,10.69855,11.70368,28.60518,24.6879,28.61207,13.769,0,24.743-16.80512,28.17833-22.71892.26162-.45438.475-.82615.64026-1.14283s.28227-.50945.358-.68845.179-.32358.25472-.4888c8.26142-15.8344,7.99981-26.409,7.72443-29.28676-.82613-8.59186-8.42664-17.707-14.96694-20.81189-.52323-.25472-1.05333-.475-1.549-.68845a10.25112,10.25112,0,0,1-2.382-1.253v-.07573A19.62111,19.62111,0,0,1,177.19405,164.78186Zm1.63163,9.24592c5.94824,2.80888,12.83963,11.1598,13.57628,18.80162.74352,7.8208-2.7194,18.5882-7.12549,27.24892-.18587.38553-.37864.75041-.57829,1.12907h0c-.17212.35112-.38554.74352-.61274,1.14284-4.13071,7.2907-14.59519,22.03046-26.31952,22.03046h0c-11.75876,0-18.74656-18.29217-22.88414-28.3298a79.9365,79.9365,0,0,1-3.90351-12.103c-.16523-.68846-.30982-1.37691-.44749-2.06536s-.27538-1.41821-.40619-2.10666a76.3557,76.3557,0,0,1-.99825-7.70378s-1.92767-7.215,1.50083-12.25444c2.23058-3.27015,3.60748-3.82779,14.35423-11.70368,11.52468-8.468,9.99631-7.35267,12.55736-9.3423a22.50707,22.50707,0,0,0,3.16688-2.60923,11.18763,11.18763,0,0,0,2.15486-3.16689,10.637,10.637,0,0,0,.86745-2.96034c.1377-1.94144,3.53177-27.4417,16.86019-34.4226a15.146,15.146,0,0,1,6.8501-1.84505,10.51261,10.51261,0,0,1,3.20819.48881c6.19607,1.969,8.31649,9.19772,8.65385,10.32678,1.907,6.51276-.68845,12.08233-1.549,13.92738-2.24436,4.81916-5.72792,7.71755-9.363,10.76051-4.24087,3.54552-7.2012,5.2873-10.84312,9.94813a17.11493,17.11493,0,0,0-2.6712,4.61951c-.03441.08951-.07572.18589-.10326.27538a22.63569,22.63569,0,0,0-1.27364,5.31485c-.28918,2.59546,2.46463,3.23571,5.34924,4.59885Z" transform="translate(-27.18035 -2.23143)"/><path class="cls-8" d="M174.77071,164.15537a.89989.89989,0,0,1,.10326-.27538,17.11514,17.11514,0,0,1,2.6712-4.61952c3.64192-4.66082,6.60225-6.4026,10.84312-9.94813,3.635-3.043,7.11859-5.94134,9.36295-10.76051.84681-1.845,3.44226-7.41463,1.549-13.92738-.33734-1.14283-2.45089-8.37158-8.65385-10.32678a10.513,10.513,0,0,0-3.20819-.4888,15.14582,15.14582,0,0,0-6.8501,1.845c-13.32842,6.95337-16.72251,32.45363-16.86019,34.4226a10.637,10.637,0,0,1-.86745,2.96035,11.18759,11.18759,0,0,1-2.15486,3.16688,22.50568,22.50568,0,0,1-3.16688,2.60923c-2.561,1.98963-1.03268.87434-12.55736,9.34229-10.74673,7.89655-12.12365,8.45419-14.35423,11.70368-3.44226,5.03948-1.50082,12.25444-1.50082,12.25444a76.35685,76.35685,0,0,0,.99826,7.7038c.13081.68846.25473,1.37691.40619,2.10667s.28226,1.33559.44749,2.06535a79.93458,79.93458,0,0,0,3.89664,12.13741c4.13071,10.03763,11.12538,28.316,22.88413,28.3298h0c11.70369,0,22.20947-14.76041,26.31953-22.03046.22718-.3993.44062-.79172.61274-1.14284h0c.19965-.37864.39242-.74352.57829-1.12907,4.40609-8.68137,7.869-19.42812,7.12549-27.24894-.73665-7.64182-7.628-15.99274-13.57628-18.80163-2.88461-1.3769-5.63842-2.00339-5.34926-4.55754A22.63592,22.63592,0,0,1,174.77071,164.15537Zm-6.10657,46.81474c-1.74178,6.81568-6.15476,13.86544-10.492,13.86544s-9.08068-6.08591-11.3457-14.79483c0-.03441-1.3287-3.76583-2.15485-17.73453a2.35455,2.35455,0,0,1,.475-1.64541,3.35533,3.35533,0,0,1,2.71939-.8468l19.06324-.27538a3.21507,3.21507,0,0,1,2.43024.63338,2.79517,2.79517,0,0,1,.957,2.27189c-.00692,10.63657-.82618,15.33182-1.65233,18.52624Z" transform="translate(-27.18035 -2.23143)"/><path class="cls-10" d="M169.35947,190.17886a3.215,3.215,0,0,0-2.43024-.63339l-19.06324.27538a3.35533,3.35533,0,0,0-2.71939.8468,2.35455,2.35455,0,0,0-.475,1.64541c.82615,13.9687,2.12731,17.7001,2.15485,17.73453,2.265,8.70892,6.92583,14.79483,11.3457,14.79483s8.75022-7.04974,10.492-13.86541c.82615-3.19443,1.65228-7.88966,1.65228-18.52625A2.79506,2.79506,0,0,0,169.35947,190.17886Zm-3.11869,20.17163c-1.74178,6.75371-5.76234,11.986-8.06866,11.986-2.69185,0-6.73306-4.53-8.94988-13.02552,0,0-1.22544-3.68322-2.024-16.96347h.68846l19.1665-.27537h.17211a.80544.80544,0,0,1,.5301.062.72963.72963,0,0,1,.062.35111c-.00687,10.30615-.79859,14.8155-1.57654,17.85847Z" transform="translate(-27.18035 -2.23143)"/><path class="cls-6" d="M167.81045,192.44387c0,10.32678-.79172,14.85678-1.56967,17.89975-1.74178,6.75371-5.76234,11.986-8.06866,11.986-2.69185,0-6.73306-4.53-8.94988-13.02552,0,0-1.22544-3.68322-2.024-16.96345h.68846l19.1665-.27537h.17211a.80544.80544,0,0,1,.5301.062A.72993.72993,0,0,1,167.81045,192.44387Z" transform="translate(-27.18035 -2.23143)"/></g><path d="M486.60323,51.70226v46.7l44-46.7h30.93l-44,44.49,48.3,68.15h-31.12l-33.88-50.64-14.2,14.36v36.28h-24.8v-112.64Z" transform="translate(-27.18035 -2.23143)"/><path d="M659.34323,155.74224q-12.78,11.13-35.34,11.12-22.87-.00009-35.41-11-12.54-11.00007-12.55-34.08v-70h24.79v70a50.71112,50.71112,0,0,0,.79,9,17.47009,17.47009,0,0,0,10.33,13.33q4.5,2.13006,12.07,2.13,13.26,0,18.3-5.92t5.05-18.54v-70h24.77v70Q672.12325,144.63229,659.34323,155.74224Z" transform="translate(-27.18035 -2.23143)"/><path d="M754.94322,51.70226a36.27993,36.27993,0,0,1,13.65,2.45,31.34939,31.34939,0,0,1,10.41,6.7,29.25978,29.25978,0,0,1,6.63,9.86,31.69966,31.69966,0,0,1,2.28,12.07,33.81,33.81,0,0,1-4.18,17.21q-4.18,7.26-13.64,11v.31a19.1597,19.1597,0,0,1,7.57,3.87,21.22979,21.22979,0,0,1,4.89,6.15,28.80955,28.80955,0,0,1,2.76,7.81,67.34976,67.34976,0,0,1,1.18,8.52c.11,1.79.21,3.89.32,6.31s.29,4.89.55,7.41a49,49,0,0,0,1.26,7.18,16.6001,16.6001,0,0,0,2.61,5.76h-24.77a43.63957,43.63957,0,0,1-2.53-12.78q-.47-7.40991-1.42-14.2-1.26-8.83-5.36-12.93c-2.74-2.74-7.2-4.11-13.41-4.11h-24.77v44h-24.77v-112.59Zm-8.83,51q8.52,0,12.78-3.79,4.26-3.79,4.26-12.31,0-8.18994-4.26-11.91t-12.78-3.70008h-27.14v31.71Z" transform="translate(-27.18035 -2.23143)"/><path d="M833.66322,51.70226v112.64h-24.77v-112.64Z" transform="translate(-27.18035 -2.23143)"/><path d="M935.41322,51.70226v20.82h-54.42v26h47.17v19.25h-47.17v46.54h-24.77v-112.61Z" transform="translate(-27.18035 -2.23143)"/><path d="M941.72325,72.52227v-20.82h92.29v20.82h-33.76v91.82H975.48326v-91.82Z" transform="translate(-27.18035 -2.23143)"/><path d="M1130.56321,155.74224q-12.72995,11.13-35.34,11.12-22.87-.00009-35.42-11-12.55-11.00007-12.54-34.08v-70h24.77v70a50.713,50.713,0,0,0,.79,9,17.47007,17.47007,0,0,0,10.33,13.33q4.5,2.13006,12.07,2.13,13.25,0,18.3-5.92,5.05-5.92,5-18.54v-70h24.77v70Q1143.34325,144.63229,1130.56321,155.74224Z" transform="translate(-27.18035 -2.23143)"/><path d="M466.95323,224.56225h47a61.32894,61.32894,0,0,1,13.88,1.5,32.68954,32.68954,0,0,1,11.38,4.93,23.33,23.33,0,0,1,7.62,8.87,30.55005,30.55005,0,0,1,2.76,13.73q0,11.35006-6.39,19.16t-17.75,9.7v.32q7.73.94995,12.23,4.1a19.99981,19.99981,0,0,1,6.7,7.73,30.99945,30.99945,0,0,1,2.84,10.1,97.28091,97.28091,0,0,1,.63,11v6.47a52.36011,52.36011,0,0,0,.32,5.92005,28.63063,28.63063,0,0,0,1,5.12,11.34011,11.34011,0,0,0,2,4h-7.7a20.46011,20.46011,0,0,1-2.45-9.23c-.16-3.52-.23-7.18-.23-11s-.16-7.54-.48-11.28a23.78012,23.78012,0,0,0-3-10,17.89052,17.89052,0,0,0-8-7.1q-5.44-2.68012-15.38-2.68006h-40.03v51.27h-6.95Zm47,55.37006a41.68155,41.68155,0,0,0,11.43-1.5,24.2987,24.2987,0,0,0,9.07-4.65,22.05052,22.05052,0,0,0,6-8,28.22009,28.22009,0,0,0,2.21-11.67,22.9202,22.9202,0,0,0-2.37-10.81,20.88047,20.88047,0,0,0-6.31-7.33,26.00022,26.00022,0,0,0-9.15-4.16,46.111,46.111,0,0,0-10.88-1.26h-40.05v49.37994Z" transform="translate(-27.18035 -2.23143)"/><path d="M567.13323,224.56225h75.7v6h-68.76v45.12006h64.68v6h-64.68v49.53h69.57v6h-76.51Z" transform="translate(-27.18035 -2.23143)"/><path d="M729.83323,256.74224a30.16936,30.16936,0,0,0-3.08-12.62,26.52011,26.52011,0,0,0-7.49-9,32.9094,32.9094,0,0,0-11.28-5.45,53.77982,53.77982,0,0,0-14.28-1.81,51.17933,51.17933,0,0,0-10.23,1.13,31.99978,31.99978,0,0,0-10.09,3.86,22.79055,22.79055,0,0,0-7.65,7.42,21,21,0,0,0-3,11.59q0,6.77994,3.31,11a24.15,24.15,0,0,0,8.68,6.87,57.37,57.37,0,0,0,12.3,4.18006q6.94,1.57983,14.05,3,7.11,1.42,14.11,3.4a48.25773,48.25773,0,0,1,12.31,5.36,26.50993,26.50993,0,0,1,8.76,8.82995q3.3,5.45,3.31,13.65,0,8.83008-3.79,14.82995a31.81854,31.81854,0,0,1-9.54,9.78,39.619,39.619,0,0,1-12.78,5.43994,58.43671,58.43671,0,0,1-13.49,1.66,77.8739,77.8739,0,0,1-18.61-2.13,41.64146,41.64146,0,0,1-15.15-6.93994,33.549,33.549,0,0,1-10.17-12.39q-3.72-7.56006-3.55-18.44995h6.94q-.48,9.3001,2.68,15.68994a28.28938,28.28938,0,0,0,8.75,10.49,36.33931,36.33931,0,0,0,13.18,5.92,68.09741,68.09741,0,0,0,15.93,1.81006,50.05571,50.05571,0,0,0,10.81-1.26,33.251,33.251,0,0,0,10.57-4.26,26.00066,26.00066,0,0,0,8-7.89c2.16-3.25,3.24-7.36,3.24-12.3q0-7.09992-3.32-11.6a24.25917,24.25917,0,0,0-8.75-7.25,56.16291,56.16291,0,0,0-12.31-4.42q-6.85-1.65-14.12-3.08-7.09-1.41009-14-3.31006a47.99843,47.99843,0,0,1-12.3-5.13,26.3002,26.3002,0,0,1-8.68-8.36c-2.21-3.41-3.31-7.81-3.31-13.17a26.74011,26.74011,0,0,1,3.39-13.8,27.73992,27.73992,0,0,1,8.83-9.31,39.33022,39.33022,0,0,1,12.23-5.21,56.55885,56.55885,0,0,1,13.41-1.65,65.73049,65.73049,0,0,1,16.49,2,39.11038,39.11038,0,0,1,13.41,6.13,30.80023,30.80023,0,0,1,9.22,10.81,38.17991,38.17991,0,0,1,3.95,15.93Z" transform="translate(-27.18035 -2.23143)"/><path d="M858.51322,280.88226a72.10006,72.10006,0,0,1-3.63,23.11,55.56951,55.56951,0,0,1-10.49,18.77,48.8895,48.8895,0,0,1-16.8,12.54,57.99944,57.99944,0,0,1-45.2,0,48.54039,48.54039,0,0,1-16.88-12.54,55.40049,55.40049,0,0,1-10.49-18.77,75.38,75.38,0,0,1,0-46.22,55.35017,55.35017,0,0,1,10.49-18.78,48.54,48.54,0,0,1,16.88-12.54,58.17023,58.17023,0,0,1,45.2,0,48.89022,48.89022,0,0,1,16.8,12.54,55.52029,55.52029,0,0,1,10.49,18.78A72.05962,72.05962,0,0,1,858.51322,280.88226Zm-100.18,0a65.30078,65.30078,0,0,0,3.16,20.51,50.521,50.521,0,0,0,9.14,16.80005,46.152,46.152,0,0,0,54.04,11.42993,44.63054,44.63054,0,0,0,14.59-11.43006,50.53933,50.53933,0,0,0,9.15-16.8,68.34981,68.34981,0,0,0,0-41,50.43966,50.43966,0,0,0-9.15-16.8,44.51974,44.51974,0,0,0-14.59-11.44,47.59,47.59,0,0,0-39.36,0,44.2503,44.2503,0,0,0-14.68,11.44,50.41914,50.41914,0,0,0-9.14,16.8A65.24952,65.24952,0,0,0,758.33323,280.88226Z" transform="translate(-27.18035 -2.23143)"/><path d="M874.12324,224.56225h47a61.39942,61.39942,0,0,1,13.88,1.5,32.68952,32.68952,0,0,1,11.38,4.93,23.33019,23.33019,0,0,1,7.65,8.91,30.54952,30.54952,0,0,1,2.8,13.69q0,11.35006-6.39,19.16t-17.75,9.7v.32q7.73.94995,12.23,4.1a19.99986,19.99986,0,0,1,6.7,7.73,31.26047,31.26047,0,0,1,2.84,10.1,97.28091,97.28091,0,0,1,.63,11v6.47a52.36245,52.36245,0,0,0,.32,5.92005,29.55041,29.55041,0,0,0,1,5.12,11.53086,11.53086,0,0,0,2,4h-7.73a20.46013,20.46013,0,0,1-2.45-9.23q-.24-5.28-.24-11c0-3.78-.15-7.54-.47-11.28a23.92024,23.92024,0,0,0-3-10,17.89063,17.89063,0,0,0-8-7.1q-5.44-2.68012-15.38-2.68006h-40.07v51.27h-6.95Zm47,55.37006a41.68158,41.68158,0,0,0,11.43-1.5,24.29882,24.29882,0,0,0,9.07-4.65,22.16941,22.16941,0,0,0,6-8,28.21976,28.21976,0,0,0,2.21-11.67,22.92006,22.92006,0,0,0-2.37-10.81,20.88047,20.88047,0,0,0-6.31-7.33,26.00027,26.00027,0,0,0-9.15-4.11,46.11088,46.11088,0,0,0-10.88-1.26h-40.05v49.37994Z" transform="translate(-27.18035 -2.23143)"/><path d="M961.99323,230.55224v-6h86.3v6h-39.76v106.65h-6.94v-106.65Z" transform="translate(-27.18035 -2.23143)"/><path d="M1128.43321,256.74224a30.17,30.17,0,0,0-3.08-12.62,26.51943,26.51943,0,0,0-7.49-9,32.9095,32.9095,0,0,0-11.28-5.45,53.77983,53.77983,0,0,0-14.28-1.81,51.08182,51.08182,0,0,0-10.16992,1.13,32.00137,32.00137,0,0,0-10.1,3.86,22.88011,22.88011,0,0,0-7.65,7.42,20.99995,20.99995,0,0,0-3,11.59q0,6.77994,3.32,11a24.12,24.12,0,0,0,8.67,6.87,57.46628,57.46628,0,0,0,12.31,4.18006q6.93,1.57983,14,3,7.07,1.42,14.12,3.4a48.33868,48.33868,0,0,1,12.3,5.36,26.51,26.51,0,0,1,8.76,8.82995q3.31,5.45,3.31,13.65,0,8.83008-3.79,14.82995a31.81915,31.81915,0,0,1-9.54,9.78,39.61878,39.61878,0,0,1-12.78,5.43994,58.43681,58.43681,0,0,1-13.49,1.66,77.87391,77.87391,0,0,1-18.61-2.13,41.63989,41.63989,0,0,1-15.15-6.93994,33.54918,33.54918,0,0,1-10.17-12.39q-3.71-7.56006-3.55-18.44995h6.94q-.47991,9.3001,2.68,15.68994a28.21929,28.21929,0,0,0,8.76,10.49,36.22021,36.22021,0,0,0,13.17,5.92,68.16286,68.16286,0,0,0,15.93,1.81006,50.05559,50.05559,0,0,0,10.81-1.26,33.25077,33.25077,0,0,0,10.57-4.26,25.84955,25.84955,0,0,0,8-7.89c2.16-3.25,3.24-7.36,3.24-12.3q0-7.09992-3.31-11.6a24.38,24.38,0,0,0-8.76-7.25,56.262,56.262,0,0,0-12.3-4.42q-6.87-1.65-14.12-3.08-7.25-1.42988-14-3.31006a48.19188,48.19188,0,0,1-12.31-5.13,26.3,26.3,0,0,1-8.68-8.36c-2.2-3.41-3.31-7.81-3.31-13.17a26.74027,26.74027,0,0,1,3.39-13.8,27.6702,27.6702,0,0,1,8.84-9.31,39.28,39.28,0,0,1,12.22-5.21,56.62248,56.62248,0,0,1,13.41-1.65,65.67052,65.67052,0,0,1,16.49,2,39.11093,39.11093,0,0,1,13.45,6.13,30.8196,30.8196,0,0,1,9.23,10.81,38.17977,38.17977,0,0,1,3.94,15.93Z" transform="translate(-27.18035 -2.23143)"/><ellipse class="cls-2" cx="545.74287" cy="411.44087" rx="20.45" ry="13.70996"/><ellipse class="cls-2" cx="1005.07286" cy="411.44087" rx="20.45001" ry="13.70996"/><path d="M685.95323,386.5523v10.21h-29.12v11.81995h26.76v9.41h-26.76v13.53h29.77v10.2h-41.94V386.52227Z" transform="translate(-27.18035 -2.23143)"/><path d="M707.21324,386.5523l23,37h.16v-37h11.36v55.2h-12.09l-23-37h-.15v37h-11.34V386.5523Z" transform="translate(-27.18035 -2.23143)"/><path d="M748.50324,396.76226v-10.21h45.23v10.21h-16.55v45h-12.13v-45Z" transform="translate(-27.18035 -2.23143)"/><path d="M799.91322,402.90228a27.659,27.659,0,0,1,5.34-9.24,24.34966,24.34966,0,0,1,8.54-6.18006,30.1296,30.1296,0,0,1,22.85,0,24.28945,24.28945,0,0,1,8.5,6.18006,27.65883,27.65883,0,0,1,5.34,9.24,34.41985,34.41985,0,0,1,1.86,11.48,33.27989,33.27989,0,0,1-1.86,11.25,27,27,0,0,1-5.34,9.09,24.40045,24.40045,0,0,1-8.5,6.07,30.76952,30.76952,0,0,1-22.85,0,24.45884,24.45884,0,0,1-8.54-6.07,27,27,0,0,1-5.34-9.09,33.51967,33.51967,0,0,1-1.85-11.25A34.67943,34.67943,0,0,1,799.91322,402.90228Zm11.1,18.25a18.11981,18.11981,0,0,0,2.59,5.91,13.26949,13.26949,0,0,0,4.64,4.22,16.12033,16.12033,0,0,0,13.92,0,13.2389,13.2389,0,0,0,4.63-4.22,18.11981,18.11981,0,0,0,2.59-5.91,27.69882,27.69882,0,0,0,.82-6.77,29.73007,29.73007,0,0,0-.82-7,18.51,18.51,0,0,0-2.59-6.06995,13.00028,13.00028,0,0,0-4.63-4.25,16.00011,16.00011,0,0,0-13.92,0,13.06976,13.06976,0,0,0-4.64,4.25,18.51,18.51,0,0,0-2.59,6.06995,30.24906,30.24906,0,0,0-.81,7A28.19058,28.19058,0,0,0,811.01322,421.15228Z" transform="translate(-27.18035 -2.23143)"/><path d="M856.67323,396.76226v-10.21h45.23v10.21h-16.55v45h-12.14v-45Z" transform="translate(-27.18035 -2.23143)"/><path d="M908.08323,402.90228a27.79968,27.79968,0,0,1,5.33-9.24,24.30019,24.30019,0,0,1,8.55-6.18006,30.10983,30.10983,0,0,1,22.84,0,24.42005,24.42005,0,0,1,8.51,6.18006,27.47026,27.47026,0,0,1,5.33,9.24,34.41984,34.41984,0,0,1,1.86,11.48,33.28012,33.28012,0,0,1-1.86,11.25,26.78033,26.78033,0,0,1-5.33,9.09,24.53046,24.53046,0,0,1-8.51,6.07,30.7399,30.7399,0,0,1-22.84,0,24.41056,24.41056,0,0,1-8.55-6.07,27.10957,27.10957,0,0,1-5.33-9.09,33.28012,33.28012,0,0,1-1.86-11.25A34.41984,34.41984,0,0,1,908.08323,402.90228Zm11.09,18.25a18.35131,18.35131,0,0,0,2.6,5.91,13.23893,13.23893,0,0,0,4.63,4.22,16.12031,16.12031,0,0,0,13.92,0,13.26943,13.26943,0,0,0,4.64-4.22,18.11958,18.11958,0,0,0,2.59-5.91,28.19059,28.19059,0,0,0,.81-6.77,30.24961,30.24961,0,0,0-.81-7,18.50976,18.50976,0,0,0-2.59-6.06995,13.06979,13.06979,0,0,0-4.64-4.25,16.00009,16.00009,0,0,0-13.92,0,13.00031,13.00031,0,0,0-4.63,4.25,18.7407,18.7407,0,0,0-2.6,6.06995,30.24961,30.24961,0,0,0-.81,7A28.19059,28.19059,0,0,0,919.17323,421.15228Z" transform="translate(-27.18035 -2.23143)"/></svg>