<svg width="18" height="21" viewBox="0 0 18 21" fill="none" xmlns="http://www.w3.org/2000/svg">
<path fill-rule="evenodd" clip-rule="evenodd" d="M1.125 10.4996C1.125 10.3256 1.18426 10.1586 1.28975 10.0356C1.39524 9.9125 1.53832 9.84336 1.6875 9.84336L14.9546 9.84336L11.4143 5.71424C11.3086 5.59101 11.2493 5.42388 11.2493 5.24961C11.2493 5.07535 11.3086 4.90821 11.4143 4.78499C11.5199 4.66176 11.6631 4.59253 11.8125 4.59253C11.9619 4.59253 12.1051 4.66176 12.2108 4.78499L16.7108 10.035C16.7631 10.0959 16.8047 10.1684 16.8331 10.2481C16.8614 10.3278 16.876 10.4133 16.876 10.4996C16.876 10.5859 16.8614 10.6714 16.8331 10.7511C16.8047 10.8309 16.7631 10.9033 16.7108 10.9642L12.2108 16.2142C12.1051 16.3375 11.9619 16.4067 11.8125 16.4067C11.6631 16.4067 11.5199 16.3375 11.4143 16.2142C11.3086 16.091 11.2493 15.9239 11.2493 15.7496C11.2493 15.5753 11.3086 15.4082 11.4143 15.285L14.9546 11.1559L1.6875 11.1559C1.53832 11.1559 1.39524 11.0867 1.28975 10.9637C1.18426 10.8406 1.125 10.6737 1.125 10.4996Z" fill="#191E19"/>
</svg>
