<svg width="24" height="24" viewBox="0 0 24 24" fill="none" xmlns="http://www.w3.org/2000/svg">
<path d="M12 8.00119C9.798 8.00119 8.001 9.79819 8.001 12.0002C8.001 14.2022 9.798 15.9992 12 15.9992C14.202 15.9992 15.999 14.2022 15.999 12.0002C15.999 9.79819 14.202 8.00119 12 8.00119ZM23.994 12.0002C23.994 10.3442 24.009 8.70319 23.916 7.05019C23.823 5.13019 23.385 3.42619 21.981 2.02219C20.574 0.615193 18.873 0.180193 16.953 0.0871931C15.297 -0.00580693 13.656 0.00919311 12.003 0.00919311C10.347 0.00919311 8.706 -0.00580693 7.053 0.0871931C5.133 0.180193 3.429 0.618193 2.025 2.02219C0.618001 3.42919 0.183001 5.13019 0.0900007 7.05019C-0.00299931 8.70619 0.0120007 10.3472 0.0120007 12.0002C0.0120007 13.6532 -0.00299931 15.2972 0.0900007 16.9502C0.183001 18.8702 0.621001 20.5742 2.025 21.9782C3.432 23.3852 5.133 23.8202 7.053 23.9132C8.709 24.0062 10.35 23.9912 12.003 23.9912C13.659 23.9912 15.3 24.0062 16.953 23.9132C18.873 23.8202 20.577 23.3822 21.981 21.9782C23.388 20.5712 23.823 18.8702 23.916 16.9502C24.012 15.2972 23.994 13.6562 23.994 12.0002ZM12 18.1532C8.595 18.1532 5.847 15.4052 5.847 12.0002C5.847 8.59519 8.595 5.84719 12 5.84719C15.405 5.84719 18.153 8.59519 18.153 12.0002C18.153 15.4052 15.405 18.1532 12 18.1532ZM18.405 7.03219C17.61 7.03219 16.968 6.39019 16.968 5.59519C16.968 4.80019 17.61 4.15819 18.405 4.15819C19.2 4.15819 19.842 4.80019 19.842 5.59519C19.8422 5.78397 19.8052 5.97094 19.7331 6.14539C19.661 6.31984 19.5551 6.47835 19.4216 6.61183C19.2882 6.74532 19.1297 6.85116 18.9552 6.92329C18.7807 6.99542 18.5938 7.03243 18.405 7.03219Z" fill="white"/>
</svg>
