<svg width="27" height="18" viewBox="0 0 27 18" fill="none" xmlns="http://www.w3.org/2000/svg">
<g clip-path="url(#clip0_2_2109)">
<path fill-rule="evenodd" clip-rule="evenodd" d="M-3.72749e-07 8.99986C-3.83732e-07 8.7486 0.0998113 8.50763 0.277477 8.32997C0.455143 8.1523 0.69611 8.05249 0.947368 8.05249L23.292 8.05249L17.3293 2.09165C17.1514 1.91376 17.0514 1.67249 17.0514 1.42091C17.0514 1.16934 17.1514 0.928066 17.3293 0.750175C17.5072 0.572284 17.7484 0.472348 18 0.472348C18.2516 0.472348 18.4928 0.572284 18.6707 0.750175L26.2497 8.32912C26.3379 8.41712 26.4079 8.52167 26.4557 8.63676C26.5034 8.75186 26.528 8.87524 26.528 8.99986C26.528 9.12447 26.5034 9.24785 26.4557 9.36295C26.4079 9.47805 26.3379 9.58259 26.2497 9.67059L18.6707 17.2495C18.4928 17.4274 18.2516 17.5274 18 17.5274C17.7484 17.5274 17.5072 17.4274 17.3293 17.2495C17.1514 17.0716 17.0514 16.8304 17.0514 16.5788C17.0514 16.3272 17.1514 16.086 17.3293 15.9081L23.292 9.94722L0.947368 9.94723C0.69611 9.94723 0.455143 9.84741 0.277477 9.66975C0.0998114 9.49208 -3.61766e-07 9.25112 -3.72749e-07 8.99986Z" fill="#C2874A"/>
</g>
<defs>
<clipPath id="clip0_2_2109">
<rect width="18" height="27" fill="white" transform="translate(0 18) rotate(-90)"/>
</clipPath>
</defs>
</svg>
