<svg width="36" height="36" viewBox="0 0 36 36" fill="none" xmlns="http://www.w3.org/2000/svg">
<g clip-path="url(#clip0_279_2641)">
<path d="M18 36C13.2261 36 8.64773 34.1036 5.27208 30.7279C1.89643 27.3523 2.65843e-06 22.7739 2.24109e-06 18C1.82374e-06 13.2261 1.89642 8.64773 5.27208 5.27208C8.64773 1.89642 13.2261 -1.82374e-06 18 -2.24109e-06C22.7739 -2.65843e-06 27.3523 1.89642 30.7279 5.27207C34.1036 8.64773 36 13.2261 36 18C36 22.7739 34.1036 27.3523 30.7279 30.7279C27.3523 34.1036 22.7739 36 18 36V36ZM25.875 19.125C26.1734 19.125 26.4595 19.0065 26.6705 18.7955C26.8815 18.5845 27 18.2984 27 18C27 17.7016 26.8815 17.4155 26.6705 17.2045C26.4595 16.9935 26.1734 16.875 25.875 16.875L12.8408 16.875L17.6715 12.0465C17.7761 11.9419 17.8591 11.8177 17.9157 11.6811C17.9723 11.5444 18.0014 11.3979 18.0014 11.25C18.0014 11.1021 17.9723 10.9556 17.9157 10.8189C17.8591 10.6823 17.7761 10.5581 17.6715 10.4535C17.5669 10.3489 17.4427 10.2659 17.3061 10.2093C17.1694 10.1527 17.0229 10.1236 16.875 10.1236C16.7271 10.1236 16.5806 10.1527 16.4439 10.2093C16.3073 10.2659 16.1831 10.3489 16.0785 10.4535L9.3285 17.2035C9.22373 17.308 9.14061 17.4321 9.0839 17.5688C9.02718 17.7055 8.99799 17.852 8.99799 18C8.99799 18.148 9.02718 18.2945 9.0839 18.4312C9.14061 18.5679 9.22373 18.692 9.3285 18.7965L16.0785 25.5465C16.1831 25.6511 16.3073 25.7341 16.4439 25.7907C16.5806 25.8473 16.7271 25.8764 16.875 25.8764C17.0229 25.8764 17.1694 25.8473 17.3061 25.7907C17.4427 25.7341 17.5669 25.6511 17.6715 25.5465C17.7761 25.4419 17.8591 25.3177 17.9157 25.1811C17.9723 25.0444 18.0014 24.8979 18.0014 24.75C18.0014 24.6021 17.9723 24.4556 17.9157 24.3189C17.8591 24.1823 17.7761 24.0581 17.6715 23.9535L12.8408 19.125L25.875 19.125Z" fill="#18C6E0"/>
</g>
<defs>
<clipPath id="clip0_279_2641">
<rect width="36" height="36" fill="white" transform="translate(36 36) rotate(180)"/>
</clipPath>
</defs>
</svg>
