<svg width="290" height="50" viewBox="0 0 290 50" fill="none" xmlns="http://www.w3.org/2000/svg">
<path d="M24.9263 0L30.5226 17.2237H48.6327L33.9813 27.8685L39.5777 45.0922L24.9263 34.4473L10.275 45.0922L15.8713 27.8685L1.21998 17.2237H19.33L24.9263 0Z" fill="#C7AF58"/>
<path d="M84.9263 0L90.5226 17.2237H108.633L93.9813 27.8685L99.5777 45.0922L84.9263 34.4473L70.275 45.0922L75.8713 27.8685L61.22 17.2237H79.33L84.9263 0Z" fill="#C7AF58"/>
<path d="M144.926 0L150.523 17.2237H168.633L153.981 27.8685L159.578 45.0922L144.926 34.4473L130.275 45.0922L135.871 27.8685L121.22 17.2237H139.33L144.926 0Z" fill="#C7AF58"/>
<path d="M204.926 0L210.523 17.2237H228.633L213.981 27.8685L219.578 45.0922L204.926 34.4473L190.275 45.0922L195.871 27.8685L181.22 17.2237H199.33L204.926 0Z" fill="#C7AF58"/>
<path d="M264.926 0L270.523 17.2237H288.633L273.981 27.8685L279.578 45.0922L264.926 34.4473L250.275 45.0922L255.871 27.8685L241.22 17.2237H259.33L264.926 0Z" fill="#C7AF58"/>
</svg>
